  0
SECTION
  2
HEADER
  9
$ACADVER
  1
AC1009
  0
ENDSEC
  0
SECTION
  2
ENTITIES
  0
POLYLINE
  5
90
  8
Layer_0
  62
0
  66
1
  10
0
  20
0
  30
0
  0
VERTEX
  5
90
  8
Layer_0
  10
373.43207
  20
244.50555
  0
VERTEX
  5
91
  8
Layer_0
  10
367.85941
  20
249.18158
  0
VERTEX
  5
92
  8
Layer_0
  10
374.69531
  20
251.66964
  0
VERTEX
  5
93
  8
Layer_0
  10
373.43207
  20
244.50555
  0
SEQEND
  0
POLYLINE
  5
95
  8
Layer_0
  62
0
  66
1
  10
0
  20
0
  30
0
  0
VERTEX
  5
95
  8
Layer_0
  10
375.55368
  20
195.48394
  0
VERTEX
  5
96
  8
Layer_0
  10
376.81689
  20
202.64804
  0
VERTEX
  5
97
  8
Layer_0
  10
369.98099
  20
200.15997
  0
VERTEX
  5
98
  8
Layer_0
  10
375.55368
  20
195.48394
  0
SEQEND
  0
POLYLINE
  5
9a
  8
Layer_0
  62
0
  66
1
  10
0
  20
0
  30
0
  0
VERTEX
  5
9a
  8
Layer_0
  10
354.89377
  20
233.41703
  0
VERTEX
  5
9b
  8
Layer_0
  10
349.32111
  20
238.09306
  0
VERTEX
  5
9c
  8
Layer_0
  10
356.15701
  20
240.58112
  0
VERTEX
  5
9d
  8
Layer_0
  10
354.89377
  20
233.41703
  0
SEQEND
  0
POLYLINE
  5
9f
  8
Layer_0
  62
0
  66
1
  10
0
  20
0
  30
0
  0
VERTEX
  5
9f
  8
Layer_0
  10
391.4801
  20
251.09113
  0
VERTEX
  5
a0
  8
Layer_0
  10
385.90744
  20
255.76716
  0
VERTEX
  5
a1
  8
Layer_0
  10
392.74335
  20
258.25523
  0
VERTEX
  5
a2
  8
Layer_0
  10
391.4801
  20
251.09113
  0
SEQEND
  0
POLYLINE
  5
a4
  8
Layer_0
  62
0
  66
1
  10
0
  20
0
  30
0
  0
VERTEX
  5
a4
  8
Layer_0
  10
349.38821
  20
203.76714
  0
VERTEX
  5
a5
  8
Layer_0
  10
343.81555
  20
208.44316
  0
VERTEX
  5
a6
  8
Layer_0
  10
350.65146
  20
210.93123
  0
VERTEX
  5
a7
  8
Layer_0
  10
349.38821
  20
203.76714
  0
SEQEND
  0
POLYLINE
  5
a9
  8
Layer_0
  62
0
  66
1
  10
0
  20
0
  30
0
  0
VERTEX
  5
a9
  8
Layer_0
  10
361.93723
  20
262.69489
  0
VERTEX
  5
aa
  8
Layer_0
  10
363.20044
  20
269.85899
  0
VERTEX
  5
ab
  8
Layer_0
  10
356.36453
  20
267.37092
  0
VERTEX
  5
ac
  8
Layer_0
  10
361.93723
  20
262.69489
  0
SEQEND
  0
POLYLINE
  5
ae
  8
Layer_0
  62
0
  66
1
  10
0
  20
0
  30
0
  0
VERTEX
  5
ae
  8
Layer_0
  10
379.47272
  20
220.21506
  0
VERTEX
  5
af
  8
Layer_0
  10
373.90005
  20
224.89108
  0
VERTEX
  5
b0
  8
Layer_0
  10
380.73593
  20
227.37915
  0
VERTEX
  5
b1
  8
Layer_0
  10
379.47272
  20
220.21506
  0
SEQEND
  0
POLYLINE
  5
b3
  8
Layer_0
  62
0
  66
1
  10
0
  20
0
  30
0
  0
VERTEX
  5
b3
  8
Layer_0
  10
340.77899
  20
274.56677
  0
VERTEX
  5
b4
  8
Layer_0
  10
341.00216
  20
274.7871
  0
VERTEX
  5
b5
  8
Layer_0
  10
341.20031
  20
274.99259
  0
VERTEX
  5
b6
  8
Layer_0
  10
341.3586
  20
275.19215
  0
VERTEX
  5
b7
  8
Layer_0
  10
341.46216
  20
275.3947
  0
VERTEX
  5
b8
  8
Layer_0
  10
341.49617
  20
275.60913
  0
VERTEX
  5
b9
  8
Layer_0
  10
341.44576
  20
275.84436
  0
VERTEX
  5
ba
  8
Layer_0
  10
341.38427
  20
275.97256
  0
VERTEX
  5
bb
  8
Layer_0
  10
341.29611
  20
276.1093
  0
VERTEX
  5
bc
  8
Layer_0
  10
341.17942
  20
276.2557
  0
VERTEX
  5
bd
  8
Layer_0
  10
341.03235
  20
276.41286
  0
VERTEX
  5
be
  8
Layer_0
  10
340.86555
  20
276.55597
  0
VERTEX
  5
bf
  8
Layer_0
  10
340.69217
  20
276.66208
  0
VERTEX
  5
c0
  8
Layer_0
  10
340.51413
  20
276.7349
  0
VERTEX
  5
c1
  8
Layer_0
  10
340.33333
  20
276.77814
  0
VERTEX
  5
c2
  8
Layer_0
  10
339.9711
  20
276.79071
  0
VERTEX
  5
c3
  8
Layer_0
  10
339.62075
  20
276.72948
  0
VERTEX
  5
c4
  8
Layer_0
  10
339.29754
  20
276.62412
  0
VERTEX
  5
c5
  8
Layer_0
  10
339.01675
  20
276.50434
  0
VERTEX
  5
c6
  8
Layer_0
  10
338.79364
  20
276.3998
  0
VERTEX
  5
c7
  8
Layer_0
  10
338.64349
  20
276.34019
  0
VERTEX
  5
c8
  8
Layer_0
  10
338.57022
  20
276.30612
  0
VERTEX
  5
c9
  8
Layer_0
  10
338.4611
  20
276.23382
  0
VERTEX
  5
ca
  8
Layer_0
  10
338.31932
  20
276.12748
  0
VERTEX
  5
cb
  8
Layer_0
  10
338.14806
  20
275.9913
  0
VERTEX
  5
cc
  8
Layer_0
  10
337.95051
  20
275.82944
  0
VERTEX
  5
cd
  8
Layer_0
  10
337.72984
  20
275.64612
  0
VERTEX
  5
ce
  8
Layer_0
  10
337.48923
  20
275.44551
  0
VERTEX
  5
cf
  8
Layer_0
  10
337.23187
  20
275.2318
  0
VERTEX
  5
d0
  8
Layer_0
  10
336.67962
  20
274.78185
  0
VERTEX
  5
d1
  8
Layer_0
  10
336.09852
  20
274.32976
  0
VERTEX
  5
d2
  8
Layer_0
  10
335.51403
  20
273.90906
  0
VERTEX
  5
d3
  8
Layer_0
  10
334.9516
  20
273.55324
  0
VERTEX
  5
d4
  8
Layer_0
  10
334.4286
  20
273.25398
  0
VERTEX
  5
d5
  8
Layer_0
  10
333.93021
  20
272.98486
  0
VERTEX
  5
d6
  8
Layer_0
  10
333.43352
  20
272.75222
  0
VERTEX
  5
d7
  8
Layer_0
  10
332.91562
  20
272.56242
  0
VERTEX
  5
d8
  8
Layer_0
  10
332.35361
  20
272.42182
  0
VERTEX
  5
d9
  8
Layer_0
  10
331.72458
  20
272.33677
  0
VERTEX
  5
da
  8
Layer_0
  10
331.37778
  20
272.31706
  0
VERTEX
  5
db
  8
Layer_0
  10
331.00563
  20
272.31362
  0
VERTEX
  5
dc
  8
Layer_0
  10
330.60528
  20
272.32725
  0
VERTEX
  5
dd
  8
Layer_0
  10
330.17386
  20
272.35873
  0
VERTEX
  5
de
  8
Layer_0
  10
329.9587
  20
272.38969
  0
VERTEX
  5
df
  8
Layer_0
  10
329.76068
  20
272.44089
  0
VERTEX
  5
e0
  8
Layer_0
  10
329.57912
  20
272.51093
  0
VERTEX
  5
e1
  8
Layer_0
  10
329.41334
  20
272.59843
  0
VERTEX
  5
e2
  8
Layer_0
  10
329.12646
  20
272.82024
  0
VERTEX
  5
e3
  8
Layer_0
  10
328.8946
  20
273.09517
  0
VERTEX
  5
e4
  8
Layer_0
  10
328.71237
  20
273.41209
  0
VERTEX
  5
e5
  8
Layer_0
  10
328.57437
  20
273.75986
  0
VERTEX
  5
e6
  8
Layer_0
  10
328.47517
  20
274.12736
  0
VERTEX
  5
e7
  8
Layer_0
  10
328.40937
  20
274.50345
  0
VERTEX
  5
e8
  8
Layer_0
  10
328.37157
  20
274.87698
  0
VERTEX
  5
e9
  8
Layer_0
  10
328.35635
  20
275.23684
  0
VERTEX
  5
ea
  8
Layer_0
  10
328.35832
  20
275.57188
  0
VERTEX
  5
eb
  8
Layer_0
  10
328.37205
  20
275.87098
  0
VERTEX
  5
ec
  8
Layer_0
  10
328.39214
  20
276.12299
  0
VERTEX
  5
ed
  8
Layer_0
  10
328.41319
  20
276.31678
  0
VERTEX
  5
ee
  8
Layer_0
  10
328.42979
  20
276.44122
  0
VERTEX
  5
ef
  8
Layer_0
  10
328.43652
  20
276.48518
  0
VERTEX
  5
f0
  8
Layer_0
  10
328.43137
  20
277.01225
  0
VERTEX
  5
f1
  8
Layer_0
  10
328.4568
  20
277.54734
  0
VERTEX
  5
f2
  8
Layer_0
  10
328.51305
  20
278.08894
  0
VERTEX
  5
f3
  8
Layer_0
  10
328.60039
  20
278.63551
  0
VERTEX
  5
f4
  8
Layer_0
  10
328.71907
  20
279.18553
  0
VERTEX
  5
f5
  8
Layer_0
  10
328.86934
  20
279.73749
  0
VERTEX
  5
f6
  8
Layer_0
  10
329.05144
  20
280.28986
  0
VERTEX
  5
f7
  8
Layer_0
  10
329.26564
  20
280.84111
  0
VERTEX
  5
f8
  8
Layer_0
  10
329.51218
  20
281.38973
  0
VERTEX
  5
f9
  8
Layer_0
  10
329.79131
  20
281.93419
  0
VERTEX
  5
fa
  8
Layer_0
  10
330.1033
  20
282.47296
  0
VERTEX
  5
fb
  8
Layer_0
  10
330.44839
  20
283.00453
  0
VERTEX
  5
fc
  8
Layer_0
  10
330.82683
  20
283.52737
  0
VERTEX
  5
fd
  8
Layer_0
  10
331.23887
  20
284.03997
  0
VERTEX
  5
fe
  8
Layer_0
  10
331.68477
  20
284.54079
  0
VERTEX
  5
ff
  8
Layer_0
  10
332.16478
  20
285.02831
  0
VERTEX
  5
100
  8
Layer_0
  10
332.67915
  20
285.50101
  0
VERTEX
  5
101
  8
Layer_0
  10
333.22814
  20
285.95738
  0
VERTEX
  5
102
  8
Layer_0
  10
333.81199
  20
286.39587
  0
VERTEX
  5
103
  8
Layer_0
  10
334.43095
  20
286.81499
  0
VERTEX
  5
104
  8
Layer_0
  10
335.08529
  20
287.21319
  0
VERTEX
  5
105
  8
Layer_0
  10
335.77525
  20
287.58896
  0
VERTEX
  5
106
  8
Layer_0
  10
336.50108
  20
287.94077
  0
VERTEX
  5
107
  8
Layer_0
  10
337.26304
  20
288.26711
  0
VERTEX
  5
108
  8
Layer_0
  10
338.06138
  20
288.56644
  0
VERTEX
  5
109
  8
Layer_0
  10
338.89635
  20
288.83725
  0
VERTEX
  5
10a
  8
Layer_0
  10
339.7682
  20
289.07801
  0
VERTEX
  5
10b
  8
Layer_0
  10
340.67718
  20
289.28721
  0
VERTEX
  5
10c
  8
Layer_0
  10
341.62356
  20
289.46331
  0
VERTEX
  5
10d
  8
Layer_0
  10
342.60757
  20
289.6048
  0
VERTEX
  5
10e
  8
Layer_0
  10
343.62947
  20
289.71015
  0
VERTEX
  5
10f
  8
Layer_0
  10
344.68951
  20
289.77784
  0
VERTEX
  5
110
  8
Layer_0
  10
345.80572
  20
289.80086
  0
VERTEX
  5
111
  8
Layer_0
  10
346.99277
  20
289.77434
  0
VERTEX
  5
112
  8
Layer_0
  10
348.24592
  20
289.69995
  0
VERTEX
  5
113
  8
Layer_0
  10
349.56044
  20
289.57939
  0
VERTEX
  5
114
  8
Layer_0
  10
350.93159
  20
289.41433
  0
VERTEX
  5
115
  8
Layer_0
  10
352.35464
  20
289.20646
  0
VERTEX
  5
116
  8
Layer_0
  10
353.82484
  20
288.95745
  0
VERTEX
  5
117
  8
Layer_0
  10
355.33746
  20
288.66899
  0
VERTEX
  5
118
  8
Layer_0
  10
356.88776
  20
288.34277
  0
VERTEX
  5
119
  8
Layer_0
  10
358.471
  20
287.98046
  0
VERTEX
  5
11a
  8
Layer_0
  10
360.08246
  20
287.58375
  0
VERTEX
  5
11b
  8
Layer_0
  10
361.71738
  20
287.15432
  0
VERTEX
  5
11c
  8
Layer_0
  10
363.37103
  20
286.69386
  0
VERTEX
  5
11d
  8
Layer_0
  10
365.03868
  20
286.20403
  0
VERTEX
  5
11e
  8
Layer_0
  10
366.71559
  20
285.68654
  0
VERTEX
  5
11f
  8
Layer_0
  10
368.39702
  20
285.14305
  0
VERTEX
  5
120
  8
Layer_0
  10
371.75448
  20
283.98483
  0
VERTEX
  5
121
  8
Layer_0
  10
375.07318
  20
282.74283
  0
VERTEX
  5
122
  8
Layer_0
  10
376.70615
  20
282.09463
  0
VERTEX
  5
123
  8
Layer_0
  10
378.31522
  20
281.43052
  0
VERTEX
  5
124
  8
Layer_0
  10
379.89564
  20
280.7522
  0
VERTEX
  5
125
  8
Layer_0
  10
381.44269
  20
280.06135
  0
VERTEX
  5
126
  8
Layer_0
  10
382.95162
  20
279.35965
  0
VERTEX
  5
127
  8
Layer_0
  10
384.41769
  20
278.64878
  0
VERTEX
  5
128
  8
Layer_0
  10
385.83618
  20
277.93043
  0
VERTEX
  5
129
  8
Layer_0
  10
387.20234
  20
277.20627
  0
VERTEX
  5
12a
  8
Layer_0
  10
388.51143
  20
276.47799
  0
VERTEX
  5
12b
  8
Layer_0
  10
389.75872
  20
275.74727
  0
VERTEX
  5
12c
  8
Layer_0
  10
390.93948
  20
275.0158
  0
VERTEX
  5
12d
  8
Layer_0
  10
392.04895
  20
274.28526
  0
VERTEX
  5
12e
  8
Layer_0
  10
394.01439
  20
272.91487
  0
VERTEX
  5
12f
  8
Layer_0
  10
395.92117
  20
271.52141
  0
VERTEX
  5
130
  8
Layer_0
  10
397.76255
  20
270.11447
  0
VERTEX
  5
131
  8
Layer_0
  10
399.53179
  20
268.70362
  0
VERTEX
  5
132
  8
Layer_0
  10
401.22214
  20
267.29845
  0
VERTEX
  5
133
  8
Layer_0
  10
402.82685
  20
265.90854
  0
VERTEX
  5
134
  8
Layer_0
  10
403.59499
  20
265.22231
  0
VERTEX
  5
135
  8
Layer_0
  10
404.33919
  20
264.54348
  0
VERTEX
  5
136
  8
Layer_0
  10
405.0586
  20
263.87326
  0
VERTEX
  5
137
  8
Layer_0
  10
405.7524
  20
263.21284
  0
VERTEX
  5
138
  8
Layer_0
  10
406.41972
  20
262.56342
  0
VERTEX
  5
139
  8
Layer_0
  10
407.05973
  20
261.92621
  0
VERTEX
  5
13a
  8
Layer_0
  10
407.67159
  20
261.30239
  0
VERTEX
  5
13b
  8
Layer_0
  10
408.25446
  20
260.69316
  0
VERTEX
  5
13c
  8
Layer_0
  10
408.80748
  20
260.09973
  0
VERTEX
  5
13d
  8
Layer_0
  10
409.32982
  20
259.52329
  0
VERTEX
  5
13e
  8
Layer_0
  10
409.82063
  20
258.96504
  0
VERTEX
  5
13f
  8
Layer_0
  10
410.27907
  20
258.42618
  0
VERTEX
  5
140
  8
Layer_0
  10
410.7043
  20
257.9079
  0
VERTEX
  5
141
  8
Layer_0
  10
411.09547
  20
257.4114
  0
VERTEX
  5
142
  8
Layer_0
  10
411.45175
  20
256.93788
  0
VERTEX
  5
143
  8
Layer_0
  10
411.77228
  20
256.48854
  0
VERTEX
  5
144
  8
Layer_0
  10
412.05622
  20
256.06457
  0
VERTEX
  5
145
  8
Layer_0
  10
412.30274
  20
255.66718
  0
VERTEX
  5
146
  8
Layer_0
  10
412.51099
  20
255.29756
  0
VERTEX
  5
147
  8
Layer_0
  10
412.68011
  20
254.95691
  0
VERTEX
  5
148
  8
Layer_0
  10
412.95718
  20
254.29998
  0
VERTEX
  5
149
  8
Layer_0
  10
413.1932
  20
253.63664
  0
VERTEX
  5
14a
  8
Layer_0
  10
413.39138
  20
252.97361
  0
VERTEX
  5
14b
  8
Layer_0
  10
413.55491
  20
252.31762
  0
VERTEX
  5
14c
  8
Layer_0
  10
413.687
  20
251.67542
  0
VERTEX
  5
14d
  8
Layer_0
  10
413.79083
  20
251.05373
  0
VERTEX
  5
14e
  8
Layer_0
  10
413.8696
  20
250.45929
  0
VERTEX
  5
14f
  8
Layer_0
  10
413.92651
  20
249.89883
  0
VERTEX
  5
150
  8
Layer_0
  10
413.96476
  20
249.37909
  0
VERTEX
  5
151
  8
Layer_0
  10
413.98754
  20
248.9068
  0
VERTEX
  5
152
  8
Layer_0
  10
413.99804
  20
248.48869
  0
VERTEX
  5
153
  8
Layer_0
  10
413.99947
  20
248.1315
  0
VERTEX
  5
154
  8
Layer_0
  10
413.99502
  20
247.84197
  0
VERTEX
  5
155
  8
Layer_0
  10
413.98788
  20
247.62682
  0
VERTEX
  5
156
  8
Layer_0
  10
413.98125
  20
247.4928
  0
VERTEX
  5
157
  8
Layer_0
  10
413.97833
  20
247.44662
  0
VERTEX
  5
158
  8
Layer_0
  10
413.97418
  20
247.01488
  0
VERTEX
  5
159
  8
Layer_0
  10
413.93986
  20
246.58214
  0
VERTEX
  5
15a
  8
Layer_0
  10
413.87683
  20
246.14933
  0
VERTEX
  5
15b
  8
Layer_0
  10
413.78655
  20
245.71734
  0
VERTEX
  5
15c
  8
Layer_0
  10
413.53008
  20
244.85953
  0
VERTEX
  5
15d
  8
Layer_0
  10
413.1821
  20
244.01604
  0
VERTEX
  5
15e
  8
Layer_0
  10
412.75426
  20
243.19417
  0
VERTEX
  5
15f
  8
Layer_0
  10
412.25822
  20
242.40125
  0
VERTEX
  5
160
  8
Layer_0
  10
411.70562
  20
241.6446
  0
VERTEX
  5
161
  8
Layer_0
  10
411.10814
  20
240.93152
  0
VERTEX
  5
162
  8
Layer_0
  10
410.47741
  20
240.26935
  0
VERTEX
  5
163
  8
Layer_0
  10
409.8251
  20
239.66539
  0
VERTEX
  5
164
  8
Layer_0
  10
409.16287
  20
239.12697
  0
VERTEX
  5
165
  8
Layer_0
  10
408.50236
  20
238.6614
  0
VERTEX
  5
166
  8
Layer_0
  10
407.85523
  20
238.276
  0
VERTEX
  5
167
  8
Layer_0
  10
407.23314
  20
237.97808
  0
VERTEX
  5
168
  8
Layer_0
  10
406.93512
  20
237.86422
  0
VERTEX
  5
169
  8
Layer_0
  10
406.64774
  20
237.77497
  0
VERTEX
  5
16a
  8
Layer_0
  10
406.37244
  20
237.71125
  0
VERTEX
  5
16b
  8
Layer_0
  10
406.11069
  20
237.67398
  0
VERTEX
  5
16c
  8
Layer_0
  10
405.86282
  20
237.66249
  0
VERTEX
  5
16d
  8
Layer_0
  10
405.62797
  20
237.67451
  0
VERTEX
  5
16e
  8
Layer_0
  10
405.4058
  20
237.70852
  0
VERTEX
  5
16f
  8
Layer_0
  10
405.19599
  20
237.76299
  0
VERTEX
  5
170
  8
Layer_0
  10
404.81205
  20
237.92729
  0
VERTEX
  5
171
  8
Layer_0
  10
404.47344
  20
238.15526
  0
VERTEX
  5
172
  8
Layer_0
  10
404.17746
  20
238.43477
  0
VERTEX
  5
173
  8
Layer_0
  10
403.9214
  20
238.75366
  0
VERTEX
  5
174
  8
Layer_0
  10
403.70257
  20
239.09981
  0
VERTEX
  5
175
  8
Layer_0
  10
403.51825
  20
239.46106
  0
VERTEX
  5
176
  8
Layer_0
  10
403.36575
  20
239.82528
  0
VERTEX
  5
177
  8
Layer_0
  10
403.24235
  20
240.18033
  0
VERTEX
  5
178
  8
Layer_0
  10
403.14536
  20
240.51407
  0
VERTEX
  5
179
  8
Layer_0
  10
403.07206
  20
240.81435
  0
VERTEX
  5
17a
  8
Layer_0
  10
403.01976
  20
241.06904
  0
VERTEX
  5
17b
  8
Layer_0
  10
402.98575
  20
241.26599
  0
VERTEX
  5
17c
  8
Layer_0
  10
402.96733
  20
241.39306
  0
VERTEX
  5
17d
  8
Layer_0
  10
402.96179
  20
241.43812
  0
VERTEX
  5
17e
  8
Layer_0
  10
402.96179
  20
247.33797
  0
VERTEX
  5
17f
  8
Layer_0
  10
402.94526
  20
247.64077
  0
VERTEX
  5
180
  8
Layer_0
  10
402.89055
  20
247.9211
  0
VERTEX
  5
181
  8
Layer_0
  10
402.79004
  20
248.17343
  0
VERTEX
  5
182
  8
Layer_0
  10
402.63609
  20
248.39225
  0
VERTEX
  5
183
  8
Layer_0
  10
402.42104
  20
248.57204
  0
VERTEX
  5
184
  8
Layer_0
  10
402.13728
  20
248.70729
  0
VERTEX
  5
185
  8
Layer_0
  10
401.96723
  20
248.75649
  0
VERTEX
  5
186
  8
Layer_0
  10
401.77714
  20
248.79248
  0
VERTEX
  5
187
  8
Layer_0
  10
401.56605
  20
248.81458
  0
VERTEX
  5
188
  8
Layer_0
  10
401.33301
  20
248.82211
  0
VERTEX
  5
189
  8
Layer_0
  10
401.10165
  20
248.80706
  0
VERTEX
  5
18a
  8
Layer_0
  10
400.89521
  20
248.76455
  0
VERTEX
  5
18b
  8
Layer_0
  10
400.7123
  20
248.69849
  0
VERTEX
  5
18c
  8
Layer_0
  10
400.55155
  20
248.61281
  0
VERTEX
  5
18d
  8
Layer_0
  10
400.29101
  20
248.39828
  0
VERTEX
  5
18e
  8
Layer_0
  10
400.10256
  20
248.15236
  0
VERTEX
  5
18f
  8
Layer_0
  10
399.97518
  20
247.90644
  0
VERTEX
  5
190
  8
Layer_0
  10
399.89785
  20
247.69191
  0
VERTEX
  5
191
  8
Layer_0
  10
399.85953
  20
247.54017
  0
VERTEX
  5
192
  8
Layer_0
  10
399.84921
  20
247.48261
  0
VERTEX
  5
193
  8
Layer_0
  10
399.84921
  20
191.95976
  0
VERTEX
  5
194
  8
Layer_0
  10
399.8299
  20
191.94091
  0
VERTEX
  5
195
  8
Layer_0
  10
399.77448
  20
191.88702
  0
VERTEX
  5
196
  8
Layer_0
  10
399.68671
  20
191.80205
  0
VERTEX
  5
197
  8
Layer_0
  10
399.57036
  20
191.69
  0
VERTEX
  5
198
  8
Layer_0
  10
399.26698
  20
191.40051
  0
VERTEX
  5
199
  8
Layer_0
  10
398.89447
  20
191.05036
  0
VERTEX
  5
19a
  8
Layer_0
  10
398.48294
  20
190.67138
  0
VERTEX
  5
19b
  8
Layer_0
  10
398.06254
  20
190.29536
  0
VERTEX
  5
19c
  8
Layer_0
  10
397.66338
  20
189.95412
  0
VERTEX
  5
19d
  8
Layer_0
  10
397.31558
  20
189.67948
  0
VERTEX
  5
19e
  8
Layer_0
  10
397.03858
  20
189.42427
  0
VERTEX
  5
19f
  8
Layer_0
  10
396.83708
  20
189.1309
  0
VERTEX
  5
1a0
  8
Layer_0
  10
396.71871
  20
188.81546
  0
VERTEX
  5
1a1
  8
Layer_0
  10
396.69112
  20
188.4941
  0
VERTEX
  5
1a2
  8
Layer_0
  10
396.71375
  20
188.33622
  0
VERTEX
  5
1a3
  8
Layer_0
  10
396.76194
  20
188.18291
  0
VERTEX
  5
1a4
  8
Layer_0
  10
396.83663
  20
188.03617
  0
VERTEX
  5
1a5
  8
Layer_0
  10
396.9388
  20
187.89802
  0
VERTEX
  5
1a6
  8
Layer_0
  10
397.06938
  20
187.77047
  0
VERTEX
  5
1a7
  8
Layer_0
  10
397.22934
  20
187.65555
  0
VERTEX
  5
1a8
  8
Layer_0
  10
397.41963
  20
187.55526
  0
VERTEX
  5
1a9
  8
Layer_0
  10
397.6412
  20
187.47162
  0
VERTEX
  5
1aa
  8
Layer_0
  10
397.89058
  20
187.41745
  0
VERTEX
  5
1ab
  8
Layer_0
  10
398.16185
  20
187.40304
  0
VERTEX
  5
1ac
  8
Layer_0
  10
398.45232
  20
187.4266
  0
VERTEX
  5
1ad
  8
Layer_0
  10
398.75927
  20
187.48632
  0
VERTEX
  5
1ae
  8
Layer_0
  10
399.08001
  20
187.58039
  0
VERTEX
  5
1af
  8
Layer_0
  10
399.41182
  20
187.70701
  0
VERTEX
  5
1b0
  8
Layer_0
  10
399.75202
  20
187.86439
  0
VERTEX
  5
1b1
  8
Layer_0
  10
400.0979
  20
188.05072
  0
VERTEX
  5
1b2
  8
Layer_0
  10
400.79586
  20
188.50301
  0
VERTEX
  5
1b3
  8
Layer_0
  10
401.48408
  20
189.04946
  0
VERTEX
  5
1b4
  8
Layer_0
  10
402.14094
  20
189.67566
  0
VERTEX
  5
1b5
  8
Layer_0
  10
402.74481
  20
190.36718
  0
VERTEX
  5
1b6
  8
Layer_0
  10
403.0378
  20
190.70608
  0
VERTEX
  5
1b7
  8
Layer_0
  10
403.34377
  20
191.00505
  0
VERTEX
  5
1b8
  8
Layer_0
  10
403.65833
  20
191.26659
  0
VERTEX
  5
1b9
  8
Layer_0
  10
403.97708
  20
191.49319
  0
VERTEX
  5
1ba
  8
Layer_0
  10
404.29561
  20
191.68734
  0
VERTEX
  5
1bb
  8
Layer_0
  10
404.60953
  20
191.85153
  0
VERTEX
  5
1bc
  8
Layer_0
  10
404.91444
  20
191.98826
  0
VERTEX
  5
1bd
  8
Layer_0
  10
405.20593
  20
192.10002
  0
VERTEX
  5
1be
  8
Layer_0
  10
405.47961
  20
192.18929
  0
VERTEX
  5
1bf
  8
Layer_0
  10
405.73107
  20
192.25858
  0
VERTEX
  5
1c0
  8
Layer_0
  10
405.95592
  20
192.31037
  0
VERTEX
  5
1c1
  8
Layer_0
  10
406.14976
  20
192.34716
  0
VERTEX
  5
1c2
  8
Layer_0
  10
406.30818
  20
192.37144
  0
VERTEX
  5
1c3
  8
Layer_0
  10
406.42678
  20
192.38569
  0
VERTEX
  5
1c4
  8
Layer_0
  10
406.50117
  20
192.39241
  0
VERTEX
  5
1c5
  8
Layer_0
  10
406.52695
  20
192.3941
  0
VERTEX
  5
1c6
  8
Layer_0
  10
406.75432
  20
192.38486
  0
VERTEX
  5
1c7
  8
Layer_0
  10
406.99888
  20
192.35409
  0
VERTEX
  5
1c8
  8
Layer_0
  10
407.25574
  20
192.29723
  0
VERTEX
  5
1c9
  8
Layer_0
  10
407.52002
  20
192.20973
  0
VERTEX
  5
1ca
  8
Layer_0
  10
407.78685
  20
192.08703
  0
VERTEX
  5
1cb
  8
Layer_0
  10
408.05135
  20
191.92456
  0
VERTEX
  5
1cc
  8
Layer_0
  10
408.30864
  20
191.71776
  0
VERTEX
  5
1cd
  8
Layer_0
  10
408.55384
  20
191.46209
  0
VERTEX
  5
1ce
  8
Layer_0
  10
408.78208
  20
191.15296
  0
VERTEX
  5
1cf
  8
Layer_0
  10
408.98846
  20
190.78584
  0
VERTEX
  5
1d0
  8
Layer_0
  10
409.16813
  20
190.35615
  0
VERTEX
  5
1d1
  8
Layer_0
  10
409.3162
  20
189.85934
  0
VERTEX
  5
1d2
  8
Layer_0
  10
409.42778
  20
189.29084
  0
VERTEX
  5
1d3
  8
Layer_0
  10
409.49801
  20
188.6461
  0
VERTEX
  5
1d4
  8
Layer_0
  10
409.522
  20
187.92057
  0
VERTEX
  5
1d5
  8
Layer_0
  10
409.49487
  20
187.10967
  0
VERTEX
  5
1d6
  8
Layer_0
  10
409.39189
  20
186.00974
  0
VERTEX
  5
1d7
  8
Layer_0
  10
409.22905
  20
184.97561
  0
VERTEX
  5
1d8
  8
Layer_0
  10
409.0096
  20
184.00521
  0
VERTEX
  5
1d9
  8
Layer_0
  10
408.73678
  20
183.09644
  0
VERTEX
  5
1da
  8
Layer_0
  10
408.41386
  20
182.24724
  0
VERTEX
  5
1db
  8
Layer_0
  10
408.04407
  20
181.45551
  0
VERTEX
  5
1dc
  8
Layer_0
  10
407.63067
  20
180.71918
  0
VERTEX
  5
1dd
  8
Layer_0
  10
407.17691
  20
180.03616
  0
VERTEX
  5
1de
  8
Layer_0
  10
406.68604
  20
179.40438
  0
VERTEX
  5
1df
  8
Layer_0
  10
406.1613
  20
178.82174
  0
VERTEX
  5
1e0
  8
Layer_0
  10
405.60596
  20
178.28617
  0
VERTEX
  5
1e1
  8
Layer_0
  10
405.02325
  20
177.79558
  0
VERTEX
  5
1e2
  8
Layer_0
  10
404.41643
  20
177.34789
  0
VERTEX
  5
1e3
  8
Layer_0
  10
403.78875
  20
176.94103
  0
VERTEX
  5
1e4
  8
Layer_0
  10
403.14346
  20
176.57291
  0
VERTEX
  5
1e5
  8
Layer_0
  10
402.48381
  20
176.24144
  0
VERTEX
  5
1e6
  8
Layer_0
  10
401.81305
  20
175.94454
  0
VERTEX
  5
1e7
  8
Layer_0
  10
401.13442
  20
175.68014
  0
VERTEX
  5
1e8
  8
Layer_0
  10
400.45118
  20
175.44615
  0
VERTEX
  5
1e9
  8
Layer_0
  10
399.76658
  20
175.24048
  0
VERTEX
  5
1ea
  8
Layer_0
  10
398.4063
  20
174.90581
  0
VERTEX
  5
1eb
  8
Layer_0
  10
397.07958
  20
174.65947
  0
VERTEX
  5
1ec
  8
Layer_0
  10
396.43692
  20
174.56422
  0
VERTEX
  5
1ed
  8
Layer_0
  10
395.8124
  20
174.4848
  0
VERTEX
  5
1ee
  8
Layer_0
  10
395.20927
  20
174.41914
  0
VERTEX
  5
1ef
  8
Layer_0
  10
394.63078
  20
174.36515
  0
VERTEX
  5
1f0
  8
Layer_0
  10
394.08018
  20
174.32075
  0
VERTEX
  5
1f1
  8
Layer_0
  10
393.56072
  20
174.28385
  0
VERTEX
  5
1f2
  8
Layer_0
  10
393.07564
  20
174.25239
  0
VERTEX
  5
1f3
  8
Layer_0
  10
392.6282
  20
174.22426
  0
VERTEX
  5
1f4
  8
Layer_0
  10
392.15757
  20
174.20415
  0
VERTEX
  5
1f5
  8
Layer_0
  10
391.60242
  20
174.19911
  0
VERTEX
  5
1f6
  8
Layer_0
  10
390.9652
  20
174.21064
  0
VERTEX
  5
1f7
  8
Layer_0
  10
390.24835
  20
174.24024
  0
VERTEX
  5
1f8
  8
Layer_0
  10
389.4543
  20
174.2894
  0
VERTEX
  5
1f9
  8
Layer_0
  10
388.58549
  20
174.35962
  0
VERTEX
  5
1fa
  8
Layer_0
  10
387.64437
  20
174.4524
  0
VERTEX
  5
1fb
  8
Layer_0
  10
386.63337
  20
174.56924
  0
VERTEX
  5
1fc
  8
Layer_0
  10
385.55492
  20
174.71164
  0
VERTEX
  5
1fd
  8
Layer_0
  10
384.41148
  20
174.88109
  0
VERTEX
  5
1fe
  8
Layer_0
  10
383.20547
  20
175.07909
  0
VERTEX
  5
1ff
  8
Layer_0
  10
381.93934
  20
175.30714
  0
VERTEX
  5
200
  8
Layer_0
  10
380.61552
  20
175.56673
  0
VERTEX
  5
201
  8
Layer_0
  10
379.23646
  20
175.85938
  0
VERTEX
  5
202
  8
Layer_0
  10
377.80459
  20
176.18656
  0
VERTEX
  5
203
  8
Layer_0
  10
376.32235
  20
176.54978
  0
VERTEX
  5
204
  8
Layer_0
  10
374.79219
  20
176.95054
  0
VERTEX
  5
205
  8
Layer_0
  10
373.21653
  20
177.39034
  0
VERTEX
  5
206
  8
Layer_0
  10
371.59782
  20
177.87067
  0
VERTEX
  5
207
  8
Layer_0
  10
369.93849
  20
178.39303
  0
VERTEX
  5
208
  8
Layer_0
  10
368.24099
  20
178.95893
  0
VERTEX
  5
209
  8
Layer_0
  10
366.50776
  20
179.56985
  0
VERTEX
  5
20a
  8
Layer_0
  10
364.74123
  20
180.22729
  0
VERTEX
  5
20b
  8
Layer_0
  10
362.94384
  20
180.93276
  0
VERTEX
  5
20c
  8
Layer_0
  10
361.11803
  20
181.68774
  0
VERTEX
  5
20d
  8
Layer_0
  10
359.26624
  20
182.49375
  0
VERTEX
  5
20e
  8
Layer_0
  10
357.39091
  20
183.35227
  0
VERTEX
  5
20f
  8
Layer_0
  10
355.49448
  20
184.2648
  0
VERTEX
  5
210
  8
Layer_0
  10
353.57938
  20
185.23285
  0
VERTEX
  5
211
  8
Layer_0
  10
351.64806
  20
186.25791
  0
VERTEX
  5
212
  8
Layer_0
  10
349.70295
  20
187.34147
  0
VERTEX
  5
213
  8
Layer_0
  10
347.74649
  20
188.48504
  0
VERTEX
  5
214
  8
Layer_0
  10
346.77931
  20
189.06888
  0
VERTEX
  5
215
  8
Layer_0
  10
345.83881
  20
189.64635
  0
VERTEX
  5
216
  8
Layer_0
  10
344.92463
  20
190.2175
  0
VERTEX
  5
217
  8
Layer_0
  10
344.0364
  20
190.78238
  0
VERTEX
  5
218
  8
Layer_0
  10
343.17373
  20
191.34105
  0
VERTEX
  5
219
  8
Layer_0
  10
342.33625
  20
191.89354
  0
VERTEX
  5
21a
  8
Layer_0
  10
341.52358
  20
192.43991
  0
VERTEX
  5
21b
  8
Layer_0
  10
340.73535
  20
192.98021
  0
VERTEX
  5
21c
  8
Layer_0
  10
339.23072
  20
194.04278
  0
VERTEX
  5
21d
  8
Layer_0
  10
337.81934
  20
195.08164
  0
VERTEX
  5
21e
  8
Layer_0
  10
336.49821
  20
196.09719
  0
VERTEX
  5
21f
  8
Layer_0
  10
335.26434
  20
197.08982
  0
VERTEX
  5
220
  8
Layer_0
  10
334.11471
  20
198.05991
  0
VERTEX
  5
221
  8
Layer_0
  10
333.04633
  20
199.00786
  0
VERTEX
  5
222
  8
Layer_0
  10
332.0562
  20
199.93405
  0
VERTEX
  5
223
  8
Layer_0
  10
331.1413
  20
200.83889
  0
VERTEX
  5
224
  8
Layer_0
  10
330.29865
  20
201.72276
  0
VERTEX
  5
225
  8
Layer_0
  10
329.52523
  20
202.58605
  0
VERTEX
  5
226
  8
Layer_0
  10
328.81805
  20
203.42915
  0
VERTEX
  5
227
  8
Layer_0
  10
328.1741
  20
204.25245
  0
VERTEX
  5
228
  8
Layer_0
  10
327.59038
  20
205.05635
  0
VERTEX
  5
229
  8
Layer_0
  10
327.06389
  20
205.84124
  0
VERTEX
  5
22a
  8
Layer_0
  10
326.59162
  20
206.6075
  0
VERTEX
  5
22b
  8
Layer_0
  10
326.17058
  20
207.35553
  0
VERTEX
  5
22c
  8
Layer_0
  10
325.79776
  20
208.08572
  0
VERTEX
  5
22d
  8
Layer_0
  10
325.47016
  20
208.79846
  0
VERTEX
  5
22e
  8
Layer_0
  10
325.18478
  20
209.49414
  0
VERTEX
  5
22f
  8
Layer_0
  10
324.93861
  20
210.17315
  0
VERTEX
  5
230
  8
Layer_0
  10
324.72866
  20
210.83588
  0
VERTEX
  5
231
  8
Layer_0
  10
324.55191
  20
211.48273
  0
VERTEX
  5
232
  8
Layer_0
  10
324.40537
  20
212.11408
  0
VERTEX
  5
233
  8
Layer_0
  10
324.28604
  20
212.73033
  0
VERTEX
  5
234
  8
Layer_0
  10
324.11698
  20
213.91908
  0
VERTEX
  5
235
  8
Layer_0
  10
324.02072
  20
215.0521
  0
VERTEX
  5
236
  8
Layer_0
  10
324.00051
  20
215.60171
  0
VERTEX
  5
237
  8
Layer_0
  10
324.00704
  20
216.14389
  0
VERTEX
  5
238
  8
Layer_0
  10
324.03927
  20
216.67799
  0
VERTEX
  5
239
  8
Layer_0
  10
324.09616
  20
217.20338
  0
VERTEX
  5
23a
  8
Layer_0
  10
324.27976
  20
218.22543
  0
VERTEX
  5
23b
  8
Layer_0
  10
324.54952
  20
219.20489
  0
VERTEX
  5
23c
  8
Layer_0
  10
324.89711
  20
220.13661
  0
VERTEX
  5
23d
  8
Layer_0
  10
325.31421
  20
221.01545
  0
VERTEX
  5
23e
  8
Layer_0
  10
325.79249
  20
221.83627
  0
VERTEX
  5
23f
  8
Layer_0
  10
326.32364
  20
222.59392
  0
VERTEX
  5
240
  8
Layer_0
  10
326.89932
  20
223.28325
  0
VERTEX
  5
241
  8
Layer_0
  10
327.51121
  20
223.89912
  0
VERTEX
  5
242
  8
Layer_0
  10
328.151
  20
224.43638
  0
VERTEX
  5
243
  8
Layer_0
  10
328.81034
  20
224.88989
  0
VERTEX
  5
244
  8
Layer_0
  10
329.48092
  20
225.2545
  0
VERTEX
  5
245
  8
Layer_0
  10
330.15442
  20
225.52507
  0
VERTEX
  5
246
  8
Layer_0
  10
330.48966
  20
225.62348
  0
VERTEX
  5
247
  8
Layer_0
  10
330.82251
  20
225.69645
  0
VERTEX
  5
248
  8
Layer_0
  10
331.15193
  20
225.74333
  0
VERTEX
  5
249
  8
Layer_0
  10
331.47687
  20
225.76349
  0
VERTEX
  5
24a
  8
Layer_0
  10
332.08132
  20
225.74382
  0
VERTEX
  5
24b
  8
Layer_0
  10
332.60874
  20
225.664
  0
VERTEX
  5
24c
  8
Layer_0
  10
333.06437
  20
225.5325
  0
VERTEX
  5
24d
  8
Layer_0
  10
333.45346
  20
225.3578
  0
VERTEX
  5
24e
  8
Layer_0
  10
333.78126
  20
225.14837
  0
VERTEX
  5
24f
  8
Layer_0
  10
334.05301
  20
224.91269
  0
VERTEX
  5
250
  8
Layer_0
  10
334.27398
  20
224.65924
  0
VERTEX
  5
251
  8
Layer_0
  10
334.44939
  20
224.39648
  0
VERTEX
  5
252
  8
Layer_0
  10
334.58452
  20
224.13289
  0
VERTEX
  5
253
  8
Layer_0
  10
334.68459
  20
223.87696
  0
VERTEX
  5
254
  8
Layer_0
  10
334.75487
  20
223.63714
  0
VERTEX
  5
255
  8
Layer_0
  10
334.8006
  20
223.42193
  0
VERTEX
  5
256
  8
Layer_0
  10
334.82703
  20
223.23979
  0
VERTEX
  5
257
  8
Layer_0
  10
334.83941
  20
223.09919
  0
VERTEX
  5
258
  8
Layer_0
  10
334.84299
  20
223.00862
  0
VERTEX
  5
259
  8
Layer_0
  10
334.84302
  20
222.97655
  0
VERTEX
  5
25a
  8
Layer_0
  10
334.84302
  20
217.76461
  0
VERTEX
  5
25b
  8
Layer_0
  10
334.86211
  20
217.29703
  0
VERTEX
  5
25c
  8
Layer_0
  10
334.91608
  20
216.89537
  0
VERTEX
  5
25d
  8
Layer_0
  10
334.99993
  20
216.5547
  0
VERTEX
  5
25e
  8
Layer_0
  10
335.10869
  20
216.27008
  0
VERTEX
  5
25f
  8
Layer_0
  10
335.23737
  20
216.03657
  0
VERTEX
  5
260
  8
Layer_0
  10
335.381
  20
215.84925
  0
VERTEX
  5
261
  8
Layer_0
  10
335.53459
  20
215.70319
  0
VERTEX
  5
262
  8
Layer_0
  10
335.69316
  20
215.59344
  0
VERTEX
  5
263
  8
Layer_0
  10
336.00532
  20
215.46317
  0
VERTEX
  5
264
  8
Layer_0
  10
336.27763
  20
215.41898
  0
VERTEX
  5
265
  8
Layer_0
  10
336.38639
  20
215.41683
  0
VERTEX
  5
266
  8
Layer_0
  10
336.47025
  20
215.42141
  0
VERTEX
  5
267
  8
Layer_0
  10
336.52421
  20
215.42777
  0
VERTEX
  5
268
  8
Layer_0
  10
336.5433
  20
215.43098
  0
VERTEX
  5
269
  8
Layer_0
  10
336.78762
  20
215.44836
  0
VERTEX
  5
26a
  8
Layer_0
  10
336.99985
  20
215.51586
  0
VERTEX
  5
26b
  8
Layer_0
  10
337.18226
  20
215.62643
  0
VERTEX
  5
26c
  8
Layer_0
  10
337.33708
  20
215.77299
  0
VERTEX
  5
26d
  8
Layer_0
  10
337.46657
  20
215.94847
  0
VERTEX
  5
26e
  8
Layer_0
  10
337.57299
  20
216.14579
  0
VERTEX
  5
26f
  8
Layer_0
  10
337.65859
  20
216.35789
  0
VERTEX
  5
270
  8
Layer_0
  10
337.72562
  20
216.57769
  0
VERTEX
  5
271
  8
Layer_0
  10
337.81296
  20
217.0121
  0
VERTEX
  5
272
  8
Layer_0
  10
337.85305
  20
217.39244
  0
VERTEX
  5
273
  8
Layer_0
  10
337.861
  20
217.54466
  0
VERTEX
  5
274
  8
Layer_0
  10
337.86389
  20
217.66214
  0
VERTEX
  5
275
  8
Layer_0
  10
337.86397
  20
217.73781
  0
VERTEX
  5
276
  8
Layer_0
  10
337.86349
  20
217.76461
  0
VERTEX
  5
277
  8
Layer_0
  10
337.86349
  20
272.13049
  0
VERTEX
  5
278
  8
Layer_0
  10
337.88948
  20
272.15109
  0
VERTEX
  5
279
  8
Layer_0
  10
337.96353
  20
272.20993
  0
VERTEX
  5
27a
  8
Layer_0
  10
338.07982
  20
272.3026
  0
VERTEX
  5
27b
  8
Layer_0
  10
338.23251
  20
272.42464
  0
VERTEX
  5
27c
  8
Layer_0
  10
338.62373
  20
272.73912
  0
VERTEX
  5
27d
  8
Layer_0
  10
339.0905
  20
273.11791
  0
VERTEX
  5
27e
  8
Layer_0
  10
339.5861
  20
273.52554
  0
VERTEX
  5
27f
  8
Layer_0
  10
340.06385
  20
273.92654
  0
VERTEX
  5
280
  8
Layer_0
  10
340.28144
  20
274.11347
  0
VERTEX
  5
281
  8
Layer_0
  10
340.47705
  20
274.28544
  0
VERTEX
  5
282
  8
Layer_0
  10
340.64485
  20
274.43802
  0
VERTEX
  5
283
  8
Layer_0
  10
340.77899
  20
274.56677
  0
SEQEND
  0
POLYLINE
  5
285
  8
Layer_0
  62
0
  66
1
  10
0
  20
0
  30
0
  0
VERTEX
  5
285
  8
Layer_0
  10
293.43207
  20
244.50555
  0
VERTEX
  5
286
  8
Layer_0
  10
287.85941
  20
249.18158
  0
VERTEX
  5
287
  8
Layer_0
  10
294.69531
  20
251.66964
  0
VERTEX
  5
288
  8
Layer_0
  10
293.43207
  20
244.50555
  0
SEQEND
  0
POLYLINE
  5
28a
  8
Layer_0
  62
0
  66
1
  10
0
  20
0
  30
0
  0
VERTEX
  5
28a
  8
Layer_0
  10
295.55368
  20
195.48394
  0
VERTEX
  5
28b
  8
Layer_0
  10
296.81689
  20
202.64804
  0
VERTEX
  5
28c
  8
Layer_0
  10
289.98099
  20
200.15997
  0
VERTEX
  5
28d
  8
Layer_0
  10
295.55368
  20
195.48394
  0
SEQEND
  0
POLYLINE
  5
28f
  8
Layer_0
  62
0
  66
1
  10
0
  20
0
  30
0
  0
VERTEX
  5
28f
  8
Layer_0
  10
274.89377
  20
233.41703
  0
VERTEX
  5
290
  8
Layer_0
  10
269.32111
  20
238.09306
  0
VERTEX
  5
291
  8
Layer_0
  10
276.15701
  20
240.58112
  0
VERTEX
  5
292
  8
Layer_0
  10
274.89377
  20
233.41703
  0
SEQEND
  0
POLYLINE
  5
294
  8
Layer_0
  62
0
  66
1
  10
0
  20
0
  30
0
  0
VERTEX
  5
294
  8
Layer_0
  10
311.4801
  20
251.09113
  0
VERTEX
  5
295
  8
Layer_0
  10
305.90744
  20
255.76716
  0
VERTEX
  5
296
  8
Layer_0
  10
312.74335
  20
258.25523
  0
VERTEX
  5
297
  8
Layer_0
  10
311.4801
  20
251.09113
  0
SEQEND
  0
POLYLINE
  5
299
  8
Layer_0
  62
0
  66
1
  10
0
  20
0
  30
0
  0
VERTEX
  5
299
  8
Layer_0
  10
269.38821
  20
203.76714
  0
VERTEX
  5
29a
  8
Layer_0
  10
263.81555
  20
208.44316
  0
VERTEX
  5
29b
  8
Layer_0
  10
270.65146
  20
210.93123
  0
VERTEX
  5
29c
  8
Layer_0
  10
269.38821
  20
203.76714
  0
SEQEND
  0
POLYLINE
  5
29e
  8
Layer_0
  62
0
  66
1
  10
0
  20
0
  30
0
  0
VERTEX
  5
29e
  8
Layer_0
  10
281.93723
  20
262.69489
  0
VERTEX
  5
29f
  8
Layer_0
  10
283.20044
  20
269.85899
  0
VERTEX
  5
2a0
  8
Layer_0
  10
276.36453
  20
267.37092
  0
VERTEX
  5
2a1
  8
Layer_0
  10
281.93723
  20
262.69489
  0
SEQEND
  0
POLYLINE
  5
2a3
  8
Layer_0
  62
0
  66
1
  10
0
  20
0
  30
0
  0
VERTEX
  5
2a3
  8
Layer_0
  10
299.47272
  20
220.21506
  0
VERTEX
  5
2a4
  8
Layer_0
  10
293.90005
  20
224.89108
  0
VERTEX
  5
2a5
  8
Layer_0
  10
300.73593
  20
227.37915
  0
VERTEX
  5
2a6
  8
Layer_0
  10
299.47272
  20
220.21506
  0
SEQEND
  0
POLYLINE
  5
2a8
  8
Layer_0
  62
0
  66
1
  10
0
  20
0
  30
0
  0
VERTEX
  5
2a8
  8
Layer_0
  10
260.77899
  20
274.56677
  0
VERTEX
  5
2a9
  8
Layer_0
  10
261.00216
  20
274.7871
  0
VERTEX
  5
2aa
  8
Layer_0
  10
261.20031
  20
274.99259
  0
VERTEX
  5
2ab
  8
Layer_0
  10
261.3586
  20
275.19215
  0
VERTEX
  5
2ac
  8
Layer_0
  10
261.46216
  20
275.3947
  0
VERTEX
  5
2ad
  8
Layer_0
  10
261.49617
  20
275.60913
  0
VERTEX
  5
2ae
  8
Layer_0
  10
261.44576
  20
275.84436
  0
VERTEX
  5
2af
  8
Layer_0
  10
261.38427
  20
275.97256
  0
VERTEX
  5
2b0
  8
Layer_0
  10
261.29611
  20
276.1093
  0
VERTEX
  5
2b1
  8
Layer_0
  10
261.17942
  20
276.2557
  0
VERTEX
  5
2b2
  8
Layer_0
  10
261.03235
  20
276.41286
  0
VERTEX
  5
2b3
  8
Layer_0
  10
260.86555
  20
276.55597
  0
VERTEX
  5
2b4
  8
Layer_0
  10
260.69217
  20
276.66208
  0
VERTEX
  5
2b5
  8
Layer_0
  10
260.51413
  20
276.7349
  0
VERTEX
  5
2b6
  8
Layer_0
  10
260.33333
  20
276.77814
  0
VERTEX
  5
2b7
  8
Layer_0
  10
259.9711
  20
276.79071
  0
VERTEX
  5
2b8
  8
Layer_0
  10
259.62074
  20
276.72948
  0
VERTEX
  5
2b9
  8
Layer_0
  10
259.29754
  20
276.62412
  0
VERTEX
  5
2ba
  8
Layer_0
  10
259.01674
  20
276.50434
  0
VERTEX
  5
2bb
  8
Layer_0
  10
258.79363
  20
276.3998
  0
VERTEX
  5
2bc
  8
Layer_0
  10
258.64348
  20
276.34019
  0
VERTEX
  5
2bd
  8
Layer_0
  10
258.57021
  20
276.30612
  0
VERTEX
  5
2be
  8
Layer_0
  10
258.46109
  20
276.23382
  0
VERTEX
  5
2bf
  8
Layer_0
  10
258.31932
  20
276.12748
  0
VERTEX
  5
2c0
  8
Layer_0
  10
258.14806
  20
275.9913
  0
VERTEX
  5
2c1
  8
Layer_0
  10
257.95051
  20
275.82944
  0
VERTEX
  5
2c2
  8
Layer_0
  10
257.72984
  20
275.64612
  0
VERTEX
  5
2c3
  8
Layer_0
  10
257.48924
  20
275.44551
  0
VERTEX
  5
2c4
  8
Layer_0
  10
257.23188
  20
275.2318
  0
VERTEX
  5
2c5
  8
Layer_0
  10
256.67963
  20
274.78185
  0
VERTEX
  5
2c6
  8
Layer_0
  10
256.09853
  20
274.32976
  0
VERTEX
  5
2c7
  8
Layer_0
  10
255.51404
  20
273.90906
  0
VERTEX
  5
2c8
  8
Layer_0
  10
254.9516
  20
273.55324
  0
VERTEX
  5
2c9
  8
Layer_0
  10
254.42861
  20
273.25398
  0
VERTEX
  5
2ca
  8
Layer_0
  10
253.93022
  20
272.98486
  0
VERTEX
  5
2cb
  8
Layer_0
  10
253.43353
  20
272.75222
  0
VERTEX
  5
2cc
  8
Layer_0
  10
252.91563
  20
272.56242
  0
VERTEX
  5
2cd
  8
Layer_0
  10
252.35362
  20
272.42182
  0
VERTEX
  5
2ce
  8
Layer_0
  10
251.72459
  20
272.33677
  0
VERTEX
  5
2cf
  8
Layer_0
  10
251.37778
  20
272.31706
  0
VERTEX
  5
2d0
  8
Layer_0
  10
251.00564
  20
272.31362
  0
VERTEX
  5
2d1
  8
Layer_0
  10
250.60528
  20
272.32725
  0
VERTEX
  5
2d2
  8
Layer_0
  10
250.17386
  20
272.35873
  0
VERTEX
  5
2d3
  8
Layer_0
  10
249.9587
  20
272.38969
  0
VERTEX
  5
2d4
  8
Layer_0
  10
249.76068
  20
272.44089
  0
VERTEX
  5
2d5
  8
Layer_0
  10
249.57912
  20
272.51093
  0
VERTEX
  5
2d6
  8
Layer_0
  10
249.41335
  20
272.59843
  0
VERTEX
  5
2d7
  8
Layer_0
  10
249.12646
  20
272.82024
  0
VERTEX
  5
2d8
  8
Layer_0
  10
248.89461
  20
273.09517
  0
VERTEX
  5
2d9
  8
Layer_0
  10
248.71238
  20
273.41209
  0
VERTEX
  5
2da
  8
Layer_0
  10
248.57437
  20
273.75986
  0
VERTEX
  5
2db
  8
Layer_0
  10
248.47517
  20
274.12736
  0
VERTEX
  5
2dc
  8
Layer_0
  10
248.40938
  20
274.50345
  0
VERTEX
  5
2dd
  8
Layer_0
  10
248.37157
  20
274.87698
  0
VERTEX
  5
2de
  8
Layer_0
  10
248.35636
  20
275.23684
  0
VERTEX
  5
2df
  8
Layer_0
  10
248.35832
  20
275.57188
  0
VERTEX
  5
2e0
  8
Layer_0
  10
248.37205
  20
275.87098
  0
VERTEX
  5
2e1
  8
Layer_0
  10
248.39215
  20
276.12299
  0
VERTEX
  5
2e2
  8
Layer_0
  10
248.41319
  20
276.31678
  0
VERTEX
  5
2e3
  8
Layer_0
  10
248.42979
  20
276.44122
  0
VERTEX
  5
2e4
  8
Layer_0
  10
248.43652
  20
276.48518
  0
VERTEX
  5
2e5
  8
Layer_0
  10
248.43137
  20
277.01225
  0
VERTEX
  5
2e6
  8
Layer_0
  10
248.4568
  20
277.54734
  0
VERTEX
  5
2e7
  8
Layer_0
  10
248.51305
  20
278.08894
  0
VERTEX
  5
2e8
  8
Layer_0
  10
248.60039
  20
278.63551
  0
VERTEX
  5
2e9
  8
Layer_0
  10
248.71907
  20
279.18553
  0
VERTEX
  5
2ea
  8
Layer_0
  10
248.86934
  20
279.73749
  0
VERTEX
  5
2eb
  8
Layer_0
  10
249.05144
  20
280.28986
  0
VERTEX
  5
2ec
  8
Layer_0
  10
249.26564
  20
280.84111
  0
VERTEX
  5
2ed
  8
Layer_0
  10
249.51218
  20
281.38973
  0
VERTEX
  5
2ee
  8
Layer_0
  10
249.79131
  20
281.93419
  0
VERTEX
  5
2ef
  8
Layer_0
  10
250.1033
  20
282.47296
  0
VERTEX
  5
2f0
  8
Layer_0
  10
250.44839
  20
283.00453
  0
VERTEX
  5
2f1
  8
Layer_0
  10
250.82683
  20
283.52737
  0
VERTEX
  5
2f2
  8
Layer_0
  10
251.23887
  20
284.03997
  0
VERTEX
  5
2f3
  8
Layer_0
  10
251.68477
  20
284.54079
  0
VERTEX
  5
2f4
  8
Layer_0
  10
252.16478
  20
285.02831
  0
VERTEX
  5
2f5
  8
Layer_0
  10
252.67915
  20
285.50101
  0
VERTEX
  5
2f6
  8
Layer_0
  10
253.22814
  20
285.95738
  0
VERTEX
  5
2f7
  8
Layer_0
  10
253.81199
  20
286.39587
  0
VERTEX
  5
2f8
  8
Layer_0
  10
254.43095
  20
286.81499
  0
VERTEX
  5
2f9
  8
Layer_0
  10
255.08529
  20
287.21319
  0
VERTEX
  5
2fa
  8
Layer_0
  10
255.77525
  20
287.58896
  0
VERTEX
  5
2fb
  8
Layer_0
  10
256.50108
  20
287.94077
  0
VERTEX
  5
2fc
  8
Layer_0
  10
257.26304
  20
288.26711
  0
VERTEX
  5
2fd
  8
Layer_0
  10
258.06138
  20
288.56644
  0
VERTEX
  5
2fe
  8
Layer_0
  10
258.89635
  20
288.83725
  0
VERTEX
  5
2ff
  8
Layer_0
  10
259.7682
  20
289.07801
  0
VERTEX
  5
300
  8
Layer_0
  10
260.67718
  20
289.28721
  0
VERTEX
  5
301
  8
Layer_0
  10
261.62356
  20
289.46331
  0
VERTEX
  5
302
  8
Layer_0
  10
262.60757
  20
289.6048
  0
VERTEX
  5
303
  8
Layer_0
  10
263.62947
  20
289.71015
  0
VERTEX
  5
304
  8
Layer_0
  10
264.68951
  20
289.77784
  0
VERTEX
  5
305
  8
Layer_0
  10
265.80572
  20
289.80086
  0
VERTEX
  5
306
  8
Layer_0
  10
266.99277
  20
289.77434
  0
VERTEX
  5
307
  8
Layer_0
  10
268.24592
  20
289.69995
  0
VERTEX
  5
308
  8
Layer_0
  10
269.56044
  20
289.57939
  0
VERTEX
  5
309
  8
Layer_0
  10
270.93159
  20
289.41433
  0
VERTEX
  5
30a
  8
Layer_0
  10
272.35464
  20
289.20646
  0
VERTEX
  5
30b
  8
Layer_0
  10
273.82484
  20
288.95745
  0
VERTEX
  5
30c
  8
Layer_0
  10
275.33746
  20
288.66899
  0
VERTEX
  5
30d
  8
Layer_0
  10
276.88776
  20
288.34277
  0
VERTEX
  5
30e
  8
Layer_0
  10
278.471
  20
287.98046
  0
VERTEX
  5
30f
  8
Layer_0
  10
280.08246
  20
287.58375
  0
VERTEX
  5
310
  8
Layer_0
  10
281.71738
  20
287.15432
  0
VERTEX
  5
311
  8
Layer_0
  10
283.37103
  20
286.69386
  0
VERTEX
  5
312
  8
Layer_0
  10
285.03868
  20
286.20403
  0
VERTEX
  5
313
  8
Layer_0
  10
286.71559
  20
285.68654
  0
VERTEX
  5
314
  8
Layer_0
  10
288.39702
  20
285.14305
  0
VERTEX
  5
315
  8
Layer_0
  10
291.75448
  20
283.98483
  0
VERTEX
  5
316
  8
Layer_0
  10
295.07318
  20
282.74283
  0
VERTEX
  5
317
  8
Layer_0
  10
296.70615
  20
282.09463
  0
VERTEX
  5
318
  8
Layer_0
  10
298.31522
  20
281.43052
  0
VERTEX
  5
319
  8
Layer_0
  10
299.89564
  20
280.7522
  0
VERTEX
  5
31a
  8
Layer_0
  10
301.44269
  20
280.06135
  0
VERTEX
  5
31b
  8
Layer_0
  10
302.95162
  20
279.35965
  0
VERTEX
  5
31c
  8
Layer_0
  10
304.41769
  20
278.64878
  0
VERTEX
  5
31d
  8
Layer_0
  10
305.83618
  20
277.93043
  0
VERTEX
  5
31e
  8
Layer_0
  10
307.20234
  20
277.20627
  0
VERTEX
  5
31f
  8
Layer_0
  10
308.51143
  20
276.47799
  0
VERTEX
  5
320
  8
Layer_0
  10
309.75872
  20
275.74727
  0
VERTEX
  5
321
  8
Layer_0
  10
310.93948
  20
275.0158
  0
VERTEX
  5
322
  8
Layer_0
  10
312.04895
  20
274.28526
  0
VERTEX
  5
323
  8
Layer_0
  10
314.01439
  20
272.91487
  0
VERTEX
  5
324
  8
Layer_0
  10
315.92117
  20
271.52141
  0
VERTEX
  5
325
  8
Layer_0
  10
317.76255
  20
270.11447
  0
VERTEX
  5
326
  8
Layer_0
  10
319.53179
  20
268.70362
  0
VERTEX
  5
327
  8
Layer_0
  10
321.22214
  20
267.29845
  0
VERTEX
  5
328
  8
Layer_0
  10
322.82685
  20
265.90854
  0
VERTEX
  5
329
  8
Layer_0
  10
323.59499
  20
265.22231
  0
VERTEX
  5
32a
  8
Layer_0
  10
324.33919
  20
264.54348
  0
VERTEX
  5
32b
  8
Layer_0
  10
325.0586
  20
263.87326
  0
VERTEX
  5
32c
  8
Layer_0
  10
325.7524
  20
263.21284
  0
VERTEX
  5
32d
  8
Layer_0
  10
326.41972
  20
262.56342
  0
VERTEX
  5
32e
  8
Layer_0
  10
327.05973
  20
261.92621
  0
VERTEX
  5
32f
  8
Layer_0
  10
327.67159
  20
261.30239
  0
VERTEX
  5
330
  8
Layer_0
  10
328.25446
  20
260.69316
  0
VERTEX
  5
331
  8
Layer_0
  10
328.80748
  20
260.09973
  0
VERTEX
  5
332
  8
Layer_0
  10
329.32982
  20
259.52329
  0
VERTEX
  5
333
  8
Layer_0
  10
329.82063
  20
258.96504
  0
VERTEX
  5
334
  8
Layer_0
  10
330.27907
  20
258.42618
  0
VERTEX
  5
335
  8
Layer_0
  10
330.7043
  20
257.9079
  0
VERTEX
  5
336
  8
Layer_0
  10
331.09547
  20
257.4114
  0
VERTEX
  5
337
  8
Layer_0
  10
331.45175
  20
256.93788
  0
VERTEX
  5
338
  8
Layer_0
  10
331.77228
  20
256.48854
  0
VERTEX
  5
339
  8
Layer_0
  10
332.05622
  20
256.06457
  0
VERTEX
  5
33a
  8
Layer_0
  10
332.30274
  20
255.66718
  0
VERTEX
  5
33b
  8
Layer_0
  10
332.51099
  20
255.29756
  0
VERTEX
  5
33c
  8
Layer_0
  10
332.68011
  20
254.95691
  0
VERTEX
  5
33d
  8
Layer_0
  10
332.95718
  20
254.29998
  0
VERTEX
  5
33e
  8
Layer_0
  10
333.1932
  20
253.63664
  0
VERTEX
  5
33f
  8
Layer_0
  10
333.39138
  20
252.97361
  0
VERTEX
  5
340
  8
Layer_0
  10
333.55491
  20
252.31762
  0
VERTEX
  5
341
  8
Layer_0
  10
333.687
  20
251.67542
  0
VERTEX
  5
342
  8
Layer_0
  10
333.79083
  20
251.05373
  0
VERTEX
  5
343
  8
Layer_0
  10
333.8696
  20
250.45929
  0
VERTEX
  5
344
  8
Layer_0
  10
333.92651
  20
249.89883
  0
VERTEX
  5
345
  8
Layer_0
  10
333.96476
  20
249.37909
  0
VERTEX
  5
346
  8
Layer_0
  10
333.98754
  20
248.9068
  0
VERTEX
  5
347
  8
Layer_0
  10
333.99804
  20
248.48869
  0
VERTEX
  5
348
  8
Layer_0
  10
333.99947
  20
248.1315
  0
VERTEX
  5
349
  8
Layer_0
  10
333.99502
  20
247.84197
  0
VERTEX
  5
34a
  8
Layer_0
  10
333.98788
  20
247.62682
  0
VERTEX
  5
34b
  8
Layer_0
  10
333.98125
  20
247.4928
  0
VERTEX
  5
34c
  8
Layer_0
  10
333.97833
  20
247.44662
  0
VERTEX
  5
34d
  8
Layer_0
  10
333.97418
  20
247.01488
  0
VERTEX
  5
34e
  8
Layer_0
  10
333.93986
  20
246.58214
  0
VERTEX
  5
34f
  8
Layer_0
  10
333.87683
  20
246.14933
  0
VERTEX
  5
350
  8
Layer_0
  10
333.78655
  20
245.71734
  0
VERTEX
  5
351
  8
Layer_0
  10
333.53008
  20
244.85953
  0
VERTEX
  5
352
  8
Layer_0
  10
333.1821
  20
244.01604
  0
VERTEX
  5
353
  8
Layer_0
  10
332.75426
  20
243.19417
  0
VERTEX
  5
354
  8
Layer_0
  10
332.25822
  20
242.40125
  0
VERTEX
  5
355
  8
Layer_0
  10
331.70562
  20
241.6446
  0
VERTEX
  5
356
  8
Layer_0
  10
331.10814
  20
240.93152
  0
VERTEX
  5
357
  8
Layer_0
  10
330.47741
  20
240.26935
  0
VERTEX
  5
358
  8
Layer_0
  10
329.8251
  20
239.66539
  0
VERTEX
  5
359
  8
Layer_0
  10
329.16287
  20
239.12697
  0
VERTEX
  5
35a
  8
Layer_0
  10
328.50236
  20
238.6614
  0
VERTEX
  5
35b
  8
Layer_0
  10
327.85523
  20
238.276
  0
VERTEX
  5
35c
  8
Layer_0
  10
327.23314
  20
237.97808
  0
VERTEX
  5
35d
  8
Layer_0
  10
326.93512
  20
237.86422
  0
VERTEX
  5
35e
  8
Layer_0
  10
326.64774
  20
237.77497
  0
VERTEX
  5
35f
  8
Layer_0
  10
326.37244
  20
237.71125
  0
VERTEX
  5
360
  8
Layer_0
  10
326.11069
  20
237.67398
  0
VERTEX
  5
361
  8
Layer_0
  10
325.86282
  20
237.66249
  0
VERTEX
  5
362
  8
Layer_0
  10
325.62797
  20
237.67451
  0
VERTEX
  5
363
  8
Layer_0
  10
325.4058
  20
237.70852
  0
VERTEX
  5
364
  8
Layer_0
  10
325.19599
  20
237.76299
  0
VERTEX
  5
365
  8
Layer_0
  10
324.81205
  20
237.92729
  0
VERTEX
  5
366
  8
Layer_0
  10
324.47344
  20
238.15526
  0
VERTEX
  5
367
  8
Layer_0
  10
324.17746
  20
238.43477
  0
VERTEX
  5
368
  8
Layer_0
  10
323.9214
  20
238.75366
  0
VERTEX
  5
369
  8
Layer_0
  10
323.70257
  20
239.09981
  0
VERTEX
  5
36a
  8
Layer_0
  10
323.51825
  20
239.46106
  0
VERTEX
  5
36b
  8
Layer_0
  10
323.36575
  20
239.82528
  0
VERTEX
  5
36c
  8
Layer_0
  10
323.24235
  20
240.18033
  0
VERTEX
  5
36d
  8
Layer_0
  10
323.14536
  20
240.51407
  0
VERTEX
  5
36e
  8
Layer_0
  10
323.07206
  20
240.81435
  0
VERTEX
  5
36f
  8
Layer_0
  10
323.01976
  20
241.06904
  0
VERTEX
  5
370
  8
Layer_0
  10
322.98575
  20
241.26599
  0
VERTEX
  5
371
  8
Layer_0
  10
322.96733
  20
241.39306
  0
VERTEX
  5
372
  8
Layer_0
  10
322.96179
  20
241.43812
  0
VERTEX
  5
373
  8
Layer_0
  10
322.96179
  20
247.33797
  0
VERTEX
  5
374
  8
Layer_0
  10
322.94526
  20
247.64077
  0
VERTEX
  5
375
  8
Layer_0
  10
322.89055
  20
247.9211
  0
VERTEX
  5
376
  8
Layer_0
  10
322.79004
  20
248.17343
  0
VERTEX
  5
377
  8
Layer_0
  10
322.63609
  20
248.39225
  0
VERTEX
  5
378
  8
Layer_0
  10
322.42104
  20
248.57204
  0
VERTEX
  5
379
  8
Layer_0
  10
322.13728
  20
248.70729
  0
VERTEX
  5
37a
  8
Layer_0
  10
321.96723
  20
248.75649
  0
VERTEX
  5
37b
  8
Layer_0
  10
321.77714
  20
248.79248
  0
VERTEX
  5
37c
  8
Layer_0
  10
321.56605
  20
248.81458
  0
VERTEX
  5
37d
  8
Layer_0
  10
321.33301
  20
248.82211
  0
VERTEX
  5
37e
  8
Layer_0
  10
321.10165
  20
248.80706
  0
VERTEX
  5
37f
  8
Layer_0
  10
320.89521
  20
248.76455
  0
VERTEX
  5
380
  8
Layer_0
  10
320.7123
  20
248.69849
  0
VERTEX
  5
381
  8
Layer_0
  10
320.55155
  20
248.61281
  0
VERTEX
  5
382
  8
Layer_0
  10
320.29101
  20
248.39828
  0
VERTEX
  5
383
  8
Layer_0
  10
320.10256
  20
248.15236
  0
VERTEX
  5
384
  8
Layer_0
  10
319.97518
  20
247.90644
  0
VERTEX
  5
385
  8
Layer_0
  10
319.89785
  20
247.69191
  0
VERTEX
  5
386
  8
Layer_0
  10
319.85953
  20
247.54017
  0
VERTEX
  5
387
  8
Layer_0
  10
319.84921
  20
247.48261
  0
VERTEX
  5
388
  8
Layer_0
  10
319.84921
  20
191.95976
  0
VERTEX
  5
389
  8
Layer_0
  10
319.8299
  20
191.94091
  0
VERTEX
  5
38a
  8
Layer_0
  10
319.77448
  20
191.88702
  0
VERTEX
  5
38b
  8
Layer_0
  10
319.68671
  20
191.80205
  0
VERTEX
  5
38c
  8
Layer_0
  10
319.57036
  20
191.69
  0
VERTEX
  5
38d
  8
Layer_0
  10
319.26698
  20
191.40051
  0
VERTEX
  5
38e
  8
Layer_0
  10
318.89447
  20
191.05036
  0
VERTEX
  5
38f
  8
Layer_0
  10
318.48294
  20
190.67138
  0
VERTEX
  5
390
  8
Layer_0
  10
318.06254
  20
190.29536
  0
VERTEX
  5
391
  8
Layer_0
  10
317.66338
  20
189.95412
  0
VERTEX
  5
392
  8
Layer_0
  10
317.31558
  20
189.67948
  0
VERTEX
  5
393
  8
Layer_0
  10
317.03858
  20
189.42427
  0
VERTEX
  5
394
  8
Layer_0
  10
316.83708
  20
189.1309
  0
VERTEX
  5
395
  8
Layer_0
  10
316.71871
  20
188.81546
  0
VERTEX
  5
396
  8
Layer_0
  10
316.69112
  20
188.4941
  0
VERTEX
  5
397
  8
Layer_0
  10
316.71375
  20
188.33622
  0
VERTEX
  5
398
  8
Layer_0
  10
316.76194
  20
188.18291
  0
VERTEX
  5
399
  8
Layer_0
  10
316.83663
  20
188.03617
  0
VERTEX
  5
39a
  8
Layer_0
  10
316.9388
  20
187.89802
  0
VERTEX
  5
39b
  8
Layer_0
  10
317.06938
  20
187.77047
  0
VERTEX
  5
39c
  8
Layer_0
  10
317.22934
  20
187.65555
  0
VERTEX
  5
39d
  8
Layer_0
  10
317.41963
  20
187.55526
  0
VERTEX
  5
39e
  8
Layer_0
  10
317.6412
  20
187.47162
  0
VERTEX
  5
39f
  8
Layer_0
  10
317.89058
  20
187.41745
  0
VERTEX
  5
3a0
  8
Layer_0
  10
318.16185
  20
187.40304
  0
VERTEX
  5
3a1
  8
Layer_0
  10
318.45232
  20
187.4266
  0
VERTEX
  5
3a2
  8
Layer_0
  10
318.75927
  20
187.48632
  0
VERTEX
  5
3a3
  8
Layer_0
  10
319.08001
  20
187.58039
  0
VERTEX
  5
3a4
  8
Layer_0
  10
319.41182
  20
187.70701
  0
VERTEX
  5
3a5
  8
Layer_0
  10
319.75202
  20
187.86439
  0
VERTEX
  5
3a6
  8
Layer_0
  10
320.0979
  20
188.05072
  0
VERTEX
  5
3a7
  8
Layer_0
  10
320.79586
  20
188.50301
  0
VERTEX
  5
3a8
  8
Layer_0
  10
321.48408
  20
189.04946
  0
VERTEX
  5
3a9
  8
Layer_0
  10
322.14094
  20
189.67566
  0
VERTEX
  5
3aa
  8
Layer_0
  10
322.74481
  20
190.36718
  0
VERTEX
  5
3ab
  8
Layer_0
  10
323.0378
  20
190.70608
  0
VERTEX
  5
3ac
  8
Layer_0
  10
323.34377
  20
191.00505
  0
VERTEX
  5
3ad
  8
Layer_0
  10
323.65833
  20
191.26659
  0
VERTEX
  5
3ae
  8
Layer_0
  10
323.97708
  20
191.49319
  0
VERTEX
  5
3af
  8
Layer_0
  10
324.29561
  20
191.68734
  0
VERTEX
  5
3b0
  8
Layer_0
  10
324.60953
  20
191.85153
  0
VERTEX
  5
3b1
  8
Layer_0
  10
324.91444
  20
191.98826
  0
VERTEX
  5
3b2
  8
Layer_0
  10
325.20593
  20
192.10002
  0
VERTEX
  5
3b3
  8
Layer_0
  10
325.47961
  20
192.18929
  0
VERTEX
  5
3b4
  8
Layer_0
  10
325.73107
  20
192.25858
  0
VERTEX
  5
3b5
  8
Layer_0
  10
325.95592
  20
192.31037
  0
VERTEX
  5
3b6
  8
Layer_0
  10
326.14976
  20
192.34716
  0
VERTEX
  5
3b7
  8
Layer_0
  10
326.30818
  20
192.37144
  0
VERTEX
  5
3b8
  8
Layer_0
  10
326.42678
  20
192.38569
  0
VERTEX
  5
3b9
  8
Layer_0
  10
326.50117
  20
192.39241
  0
VERTEX
  5
3ba
  8
Layer_0
  10
326.52695
  20
192.3941
  0
VERTEX
  5
3bb
  8
Layer_0
  10
326.75432
  20
192.38486
  0
VERTEX
  5
3bc
  8
Layer_0
  10
326.99888
  20
192.35409
  0
VERTEX
  5
3bd
  8
Layer_0
  10
327.25574
  20
192.29723
  0
VERTEX
  5
3be
  8
Layer_0
  10
327.52002
  20
192.20973
  0
VERTEX
  5
3bf
  8
Layer_0
  10
327.78685
  20
192.08703
  0
VERTEX
  5
3c0
  8
Layer_0
  10
328.05135
  20
191.92456
  0
VERTEX
  5
3c1
  8
Layer_0
  10
328.30864
  20
191.71776
  0
VERTEX
  5
3c2
  8
Layer_0
  10
328.55384
  20
191.46209
  0
VERTEX
  5
3c3
  8
Layer_0
  10
328.78208
  20
191.15296
  0
VERTEX
  5
3c4
  8
Layer_0
  10
328.98846
  20
190.78584
  0
VERTEX
  5
3c5
  8
Layer_0
  10
329.16813
  20
190.35615
  0
VERTEX
  5
3c6
  8
Layer_0
  10
329.3162
  20
189.85934
  0
VERTEX
  5
3c7
  8
Layer_0
  10
329.42778
  20
189.29084
  0
VERTEX
  5
3c8
  8
Layer_0
  10
329.49801
  20
188.6461
  0
VERTEX
  5
3c9
  8
Layer_0
  10
329.522
  20
187.92057
  0
VERTEX
  5
3ca
  8
Layer_0
  10
329.49487
  20
187.10967
  0
VERTEX
  5
3cb
  8
Layer_0
  10
329.39189
  20
186.00974
  0
VERTEX
  5
3cc
  8
Layer_0
  10
329.22905
  20
184.97561
  0
VERTEX
  5
3cd
  8
Layer_0
  10
329.0096
  20
184.00521
  0
VERTEX
  5
3ce
  8
Layer_0
  10
328.73678
  20
183.09644
  0
VERTEX
  5
3cf
  8
Layer_0
  10
328.41386
  20
182.24724
  0
VERTEX
  5
3d0
  8
Layer_0
  10
328.04407
  20
181.45551
  0
VERTEX
  5
3d1
  8
Layer_0
  10
327.63067
  20
180.71918
  0
VERTEX
  5
3d2
  8
Layer_0
  10
327.17691
  20
180.03616
  0
VERTEX
  5
3d3
  8
Layer_0
  10
326.68604
  20
179.40438
  0
VERTEX
  5
3d4
  8
Layer_0
  10
326.1613
  20
178.82174
  0
VERTEX
  5
3d5
  8
Layer_0
  10
325.60596
  20
178.28617
  0
VERTEX
  5
3d6
  8
Layer_0
  10
325.02325
  20
177.79558
  0
VERTEX
  5
3d7
  8
Layer_0
  10
324.41643
  20
177.34789
  0
VERTEX
  5
3d8
  8
Layer_0
  10
323.78875
  20
176.94103
  0
VERTEX
  5
3d9
  8
Layer_0
  10
323.14346
  20
176.57291
  0
VERTEX
  5
3da
  8
Layer_0
  10
322.48381
  20
176.24144
  0
VERTEX
  5
3db
  8
Layer_0
  10
321.81305
  20
175.94454
  0
VERTEX
  5
3dc
  8
Layer_0
  10
321.13442
  20
175.68014
  0
VERTEX
  5
3dd
  8
Layer_0
  10
320.45118
  20
175.44615
  0
VERTEX
  5
3de
  8
Layer_0
  10
319.76658
  20
175.24048
  0
VERTEX
  5
3df
  8
Layer_0
  10
318.4063
  20
174.90581
  0
VERTEX
  5
3e0
  8
Layer_0
  10
317.07958
  20
174.65947
  0
VERTEX
  5
3e1
  8
Layer_0
  10
316.43692
  20
174.56422
  0
VERTEX
  5
3e2
  8
Layer_0
  10
315.8124
  20
174.4848
  0
VERTEX
  5
3e3
  8
Layer_0
  10
315.20927
  20
174.41914
  0
VERTEX
  5
3e4
  8
Layer_0
  10
314.63078
  20
174.36515
  0
VERTEX
  5
3e5
  8
Layer_0
  10
314.08018
  20
174.32075
  0
VERTEX
  5
3e6
  8
Layer_0
  10
313.56072
  20
174.28385
  0
VERTEX
  5
3e7
  8
Layer_0
  10
313.07564
  20
174.25239
  0
VERTEX
  5
3e8
  8
Layer_0
  10
312.6282
  20
174.22426
  0
VERTEX
  5
3e9
  8
Layer_0
  10
312.15757
  20
174.20415
  0
VERTEX
  5
3ea
  8
Layer_0
  10
311.60242
  20
174.19911
  0
VERTEX
  5
3eb
  8
Layer_0
  10
310.9652
  20
174.21064
  0
VERTEX
  5
3ec
  8
Layer_0
  10
310.24835
  20
174.24024
  0
VERTEX
  5
3ed
  8
Layer_0
  10
309.4543
  20
174.2894
  0
VERTEX
  5
3ee
  8
Layer_0
  10
308.58549
  20
174.35962
  0
VERTEX
  5
3ef
  8
Layer_0
  10
307.64437
  20
174.4524
  0
VERTEX
  5
3f0
  8
Layer_0
  10
306.63337
  20
174.56924
  0
VERTEX
  5
3f1
  8
Layer_0
  10
305.55492
  20
174.71164
  0
VERTEX
  5
3f2
  8
Layer_0
  10
304.41148
  20
174.88109
  0
VERTEX
  5
3f3
  8
Layer_0
  10
303.20547
  20
175.07909
  0
VERTEX
  5
3f4
  8
Layer_0
  10
301.93934
  20
175.30714
  0
VERTEX
  5
3f5
  8
Layer_0
  10
300.61552
  20
175.56673
  0
VERTEX
  5
3f6
  8
Layer_0
  10
299.23646
  20
175.85938
  0
VERTEX
  5
3f7
  8
Layer_0
  10
297.80459
  20
176.18656
  0
VERTEX
  5
3f8
  8
Layer_0
  10
296.32235
  20
176.54978
  0
VERTEX
  5
3f9
  8
Layer_0
  10
294.79219
  20
176.95054
  0
VERTEX
  5
3fa
  8
Layer_0
  10
293.21653
  20
177.39034
  0
VERTEX
  5
3fb
  8
Layer_0
  10
291.59782
  20
177.87067
  0
VERTEX
  5
3fc
  8
Layer_0
  10
289.93849
  20
178.39303
  0
VERTEX
  5
3fd
  8
Layer_0
  10
288.24099
  20
178.95893
  0
VERTEX
  5
3fe
  8
Layer_0
  10
286.50776
  20
179.56985
  0
VERTEX
  5
3ff
  8
Layer_0
  10
284.74123
  20
180.22729
  0
VERTEX
  5
400
  8
Layer_0
  10
282.94384
  20
180.93276
  0
VERTEX
  5
401
  8
Layer_0
  10
281.11803
  20
181.68774
  0
VERTEX
  5
402
  8
Layer_0
  10
279.26624
  20
182.49375
  0
VERTEX
  5
403
  8
Layer_0
  10
277.39091
  20
183.35227
  0
VERTEX
  5
404
  8
Layer_0
  10
275.49448
  20
184.2648
  0
VERTEX
  5
405
  8
Layer_0
  10
273.57938
  20
185.23285
  0
VERTEX
  5
406
  8
Layer_0
  10
271.64806
  20
186.25791
  0
VERTEX
  5
407
  8
Layer_0
  10
269.70295
  20
187.34147
  0
VERTEX
  5
408
  8
Layer_0
  10
267.74649
  20
188.48504
  0
VERTEX
  5
409
  8
Layer_0
  10
266.77931
  20
189.06888
  0
VERTEX
  5
40a
  8
Layer_0
  10
265.83881
  20
189.64635
  0
VERTEX
  5
40b
  8
Layer_0
  10
264.92463
  20
190.2175
  0
VERTEX
  5
40c
  8
Layer_0
  10
264.0364
  20
190.78238
  0
VERTEX
  5
40d
  8
Layer_0
  10
263.17373
  20
191.34105
  0
VERTEX
  5
40e
  8
Layer_0
  10
262.33625
  20
191.89354
  0
VERTEX
  5
40f
  8
Layer_0
  10
261.52358
  20
192.43991
  0
VERTEX
  5
410
  8
Layer_0
  10
260.73535
  20
192.98021
  0
VERTEX
  5
411
  8
Layer_0
  10
259.23072
  20
194.04278
  0
VERTEX
  5
412
  8
Layer_0
  10
257.81934
  20
195.08164
  0
VERTEX
  5
413
  8
Layer_0
  10
256.49822
  20
196.09719
  0
VERTEX
  5
414
  8
Layer_0
  10
255.26434
  20
197.08982
  0
VERTEX
  5
415
  8
Layer_0
  10
254.11471
  20
198.05991
  0
VERTEX
  5
416
  8
Layer_0
  10
253.04633
  20
199.00786
  0
VERTEX
  5
417
  8
Layer_0
  10
252.0562
  20
199.93405
  0
VERTEX
  5
418
  8
Layer_0
  10
251.1413
  20
200.83889
  0
VERTEX
  5
419
  8
Layer_0
  10
250.29865
  20
201.72276
  0
VERTEX
  5
41a
  8
Layer_0
  10
249.52523
  20
202.58605
  0
VERTEX
  5
41b
  8
Layer_0
  10
248.81805
  20
203.42915
  0
VERTEX
  5
41c
  8
Layer_0
  10
248.1741
  20
204.25245
  0
VERTEX
  5
41d
  8
Layer_0
  10
247.59038
  20
205.05635
  0
VERTEX
  5
41e
  8
Layer_0
  10
247.06389
  20
205.84124
  0
VERTEX
  5
41f
  8
Layer_0
  10
246.59163
  20
206.6075
  0
VERTEX
  5
420
  8
Layer_0
  10
246.17059
  20
207.35553
  0
VERTEX
  5
421
  8
Layer_0
  10
245.79777
  20
208.08572
  0
VERTEX
  5
422
  8
Layer_0
  10
245.47017
  20
208.79846
  0
VERTEX
  5
423
  8
Layer_0
  10
245.18479
  20
209.49414
  0
VERTEX
  5
424
  8
Layer_0
  10
244.93862
  20
210.17315
  0
VERTEX
  5
425
  8
Layer_0
  10
244.72866
  20
210.83588
  0
VERTEX
  5
426
  8
Layer_0
  10
244.55192
  20
211.48273
  0
VERTEX
  5
427
  8
Layer_0
  10
244.40538
  20
212.11408
  0
VERTEX
  5
428
  8
Layer_0
  10
244.28605
  20
212.73033
  0
VERTEX
  5
429
  8
Layer_0
  10
244.11699
  20
213.91908
  0
VERTEX
  5
42a
  8
Layer_0
  10
244.02074
  20
215.0521
  0
VERTEX
  5
42b
  8
Layer_0
  10
244.00052
  20
215.60171
  0
VERTEX
  5
42c
  8
Layer_0
  10
244.00705
  20
216.14389
  0
VERTEX
  5
42d
  8
Layer_0
  10
244.03928
  20
216.67799
  0
VERTEX
  5
42e
  8
Layer_0
  10
244.09617
  20
217.20338
  0
VERTEX
  5
42f
  8
Layer_0
  10
244.27976
  20
218.22543
  0
VERTEX
  5
430
  8
Layer_0
  10
244.54952
  20
219.20489
  0
VERTEX
  5
431
  8
Layer_0
  10
244.89711
  20
220.13661
  0
VERTEX
  5
432
  8
Layer_0
  10
245.31421
  20
221.01545
  0
VERTEX
  5
433
  8
Layer_0
  10
245.79249
  20
221.83627
  0
VERTEX
  5
434
  8
Layer_0
  10
246.32364
  20
222.59392
  0
VERTEX
  5
435
  8
Layer_0
  10
246.89932
  20
223.28325
  0
VERTEX
  5
436
  8
Layer_0
  10
247.51121
  20
223.89912
  0
VERTEX
  5
437
  8
Layer_0
  10
248.15099
  20
224.43638
  0
VERTEX
  5
438
  8
Layer_0
  10
248.81033
  20
224.88989
  0
VERTEX
  5
439
  8
Layer_0
  10
249.48092
  20
225.2545
  0
VERTEX
  5
43a
  8
Layer_0
  10
250.15442
  20
225.52507
  0
VERTEX
  5
43b
  8
Layer_0
  10
250.48966
  20
225.62348
  0
VERTEX
  5
43c
  8
Layer_0
  10
250.82251
  20
225.69645
  0
VERTEX
  5
43d
  8
Layer_0
  10
251.15193
  20
225.74333
  0
VERTEX
  5
43e
  8
Layer_0
  10
251.47687
  20
225.76349
  0
VERTEX
  5
43f
  8
Layer_0
  10
252.08132
  20
225.74382
  0
VERTEX
  5
440
  8
Layer_0
  10
252.60874
  20
225.664
  0
VERTEX
  5
441
  8
Layer_0
  10
253.06437
  20
225.5325
  0
VERTEX
  5
442
  8
Layer_0
  10
253.45345
  20
225.3578
  0
VERTEX
  5
443
  8
Layer_0
  10
253.78125
  20
225.14837
  0
VERTEX
  5
444
  8
Layer_0
  10
254.053
  20
224.91269
  0
VERTEX
  5
445
  8
Layer_0
  10
254.27396
  20
224.65924
  0
VERTEX
  5
446
  8
Layer_0
  10
254.44938
  20
224.39648
  0
VERTEX
  5
447
  8
Layer_0
  10
254.5845
  20
224.13289
  0
VERTEX
  5
448
  8
Layer_0
  10
254.68458
  20
223.87696
  0
VERTEX
  5
449
  8
Layer_0
  10
254.75486
  20
223.63714
  0
VERTEX
  5
44a
  8
Layer_0
  10
254.80059
  20
223.42193
  0
VERTEX
  5
44b
  8
Layer_0
  10
254.82702
  20
223.23979
  0
VERTEX
  5
44c
  8
Layer_0
  10
254.8394
  20
223.09919
  0
VERTEX
  5
44d
  8
Layer_0
  10
254.84298
  20
223.00862
  0
VERTEX
  5
44e
  8
Layer_0
  10
254.843
  20
222.97655
  0
VERTEX
  5
44f
  8
Layer_0
  10
254.843
  20
217.76461
  0
VERTEX
  5
450
  8
Layer_0
  10
254.8621
  20
217.29703
  0
VERTEX
  5
451
  8
Layer_0
  10
254.91606
  20
216.89537
  0
VERTEX
  5
452
  8
Layer_0
  10
254.99991
  20
216.5547
  0
VERTEX
  5
453
  8
Layer_0
  10
255.10867
  20
216.27008
  0
VERTEX
  5
454
  8
Layer_0
  10
255.23736
  20
216.03657
  0
VERTEX
  5
455
  8
Layer_0
  10
255.38098
  20
215.84925
  0
VERTEX
  5
456
  8
Layer_0
  10
255.53457
  20
215.70319
  0
VERTEX
  5
457
  8
Layer_0
  10
255.69315
  20
215.59344
  0
VERTEX
  5
458
  8
Layer_0
  10
256.00531
  20
215.46317
  0
VERTEX
  5
459
  8
Layer_0
  10
256.27762
  20
215.41898
  0
VERTEX
  5
45a
  8
Layer_0
  10
256.38638
  20
215.41683
  0
VERTEX
  5
45b
  8
Layer_0
  10
256.47023
  20
215.42141
  0
VERTEX
  5
45c
  8
Layer_0
  10
256.52419
  20
215.42777
  0
VERTEX
  5
45d
  8
Layer_0
  10
256.54329
  20
215.43098
  0
VERTEX
  5
45e
  8
Layer_0
  10
256.78761
  20
215.44836
  0
VERTEX
  5
45f
  8
Layer_0
  10
256.99984
  20
215.51586
  0
VERTEX
  5
460
  8
Layer_0
  10
257.18225
  20
215.62643
  0
VERTEX
  5
461
  8
Layer_0
  10
257.33707
  20
215.77299
  0
VERTEX
  5
462
  8
Layer_0
  10
257.46657
  20
215.94847
  0
VERTEX
  5
463
  8
Layer_0
  10
257.57299
  20
216.14579
  0
VERTEX
  5
464
  8
Layer_0
  10
257.65859
  20
216.35789
  0
VERTEX
  5
465
  8
Layer_0
  10
257.72561
  20
216.57769
  0
VERTEX
  5
466
  8
Layer_0
  10
257.81296
  20
217.0121
  0
VERTEX
  5
467
  8
Layer_0
  10
257.85305
  20
217.39244
  0
VERTEX
  5
468
  8
Layer_0
  10
257.861
  20
217.54466
  0
VERTEX
  5
469
  8
Layer_0
  10
257.86389
  20
217.66214
  0
VERTEX
  5
46a
  8
Layer_0
  10
257.86397
  20
217.73781
  0
VERTEX
  5
46b
  8
Layer_0
  10
257.86349
  20
217.76461
  0
VERTEX
  5
46c
  8
Layer_0
  10
257.86349
  20
272.13049
  0
VERTEX
  5
46d
  8
Layer_0
  10
257.88948
  20
272.15109
  0
VERTEX
  5
46e
  8
Layer_0
  10
257.96353
  20
272.20993
  0
VERTEX
  5
46f
  8
Layer_0
  10
258.07982
  20
272.3026
  0
VERTEX
  5
470
  8
Layer_0
  10
258.23251
  20
272.42464
  0
VERTEX
  5
471
  8
Layer_0
  10
258.62373
  20
272.73912
  0
VERTEX
  5
472
  8
Layer_0
  10
259.0905
  20
273.11791
  0
VERTEX
  5
473
  8
Layer_0
  10
259.5861
  20
273.52554
  0
VERTEX
  5
474
  8
Layer_0
  10
260.06385
  20
273.92654
  0
VERTEX
  5
475
  8
Layer_0
  10
260.28144
  20
274.11347
  0
VERTEX
  5
476
  8
Layer_0
  10
260.47705
  20
274.28544
  0
VERTEX
  5
477
  8
Layer_0
  10
260.64485
  20
274.43802
  0
VERTEX
  5
478
  8
Layer_0
  10
260.77899
  20
274.56677
  0
SEQEND
  0
POLYLINE
  5
47a
  8
Layer_0
  62
0
  66
1
  10
0
  20
0
  30
0
  0
VERTEX
  5
47a
  8
Layer_0
  10
213.43208
  20
244.50555
  0
VERTEX
  5
47b
  8
Layer_0
  10
214.6953
  20
251.66964
  0
VERTEX
  5
47c
  8
Layer_0
  10
207.85941
  20
249.18158
  0
VERTEX
  5
47d
  8
Layer_0
  10
213.43208
  20
244.50555
  0
SEQEND
  0
POLYLINE
  5
47f
  8
Layer_0
  62
0
  66
1
  10
0
  20
0
  30
0
  0
VERTEX
  5
47f
  8
Layer_0
  10
215.55368
  20
195.48394
  0
VERTEX
  5
480
  8
Layer_0
  10
216.81689
  20
202.64804
  0
VERTEX
  5
481
  8
Layer_0
  10
209.981
  20
200.15997
  0
VERTEX
  5
482
  8
Layer_0
  10
215.55368
  20
195.48394
  0
SEQEND
  0
POLYLINE
  5
484
  8
Layer_0
  62
0
  66
1
  10
0
  20
0
  30
0
  0
VERTEX
  5
484
  8
Layer_0
  10
194.89378
  20
233.41703
  0
VERTEX
  5
485
  8
Layer_0
  10
189.32111
  20
238.09306
  0
VERTEX
  5
486
  8
Layer_0
  10
196.15701
  20
240.58112
  0
VERTEX
  5
487
  8
Layer_0
  10
194.89378
  20
233.41703
  0
SEQEND
  0
POLYLINE
  5
489
  8
Layer_0
  62
0
  66
1
  10
0
  20
0
  30
0
  0
VERTEX
  5
489
  8
Layer_0
  10
231.48012
  20
251.09113
  0
VERTEX
  5
48a
  8
Layer_0
  10
225.90744
  20
255.76716
  0
VERTEX
  5
48b
  8
Layer_0
  10
232.74335
  20
258.25523
  0
VERTEX
  5
48c
  8
Layer_0
  10
231.48012
  20
251.09113
  0
SEQEND
  0
POLYLINE
  5
48e
  8
Layer_0
  62
0
  66
1
  10
0
  20
0
  30
0
  0
VERTEX
  5
48e
  8
Layer_0
  10
189.38823
  20
203.76714
  0
VERTEX
  5
48f
  8
Layer_0
  10
183.81555
  20
208.44316
  0
VERTEX
  5
490
  8
Layer_0
  10
190.65146
  20
210.93123
  0
VERTEX
  5
491
  8
Layer_0
  10
189.38823
  20
203.76714
  0
SEQEND
  0
POLYLINE
  5
493
  8
Layer_0
  62
0
  66
1
  10
0
  20
0
  30
0
  0
VERTEX
  5
493
  8
Layer_0
  10
201.93723
  20
262.69489
  0
VERTEX
  5
494
  8
Layer_0
  10
196.36455
  20
267.37092
  0
VERTEX
  5
495
  8
Layer_0
  10
203.20045
  20
269.85899
  0
VERTEX
  5
496
  8
Layer_0
  10
201.93723
  20
262.69489
  0
SEQEND
  0
POLYLINE
  5
498
  8
Layer_0
  62
0
  66
1
  10
0
  20
0
  30
0
  0
VERTEX
  5
498
  8
Layer_0
  10
219.47272
  20
220.21506
  0
VERTEX
  5
499
  8
Layer_0
  10
213.90004
  20
224.89108
  0
VERTEX
  5
49a
  8
Layer_0
  10
220.73595
  20
227.37915
  0
VERTEX
  5
49b
  8
Layer_0
  10
219.47272
  20
220.21506
  0
SEQEND
  0
POLYLINE
  5
49d
  8
Layer_0
  62
0
  66
1
  10
0
  20
0
  30
0
  0
VERTEX
  5
49d
  8
Layer_0
  10
180.77899
  20
274.56677
  0
VERTEX
  5
49e
  8
Layer_0
  10
181.00217
  20
274.7871
  0
VERTEX
  5
49f
  8
Layer_0
  10
181.20032
  20
274.99259
  0
VERTEX
  5
4a0
  8
Layer_0
  10
181.3586
  20
275.19215
  0
VERTEX
  5
4a1
  8
Layer_0
  10
181.46217
  20
275.3947
  0
VERTEX
  5
4a2
  8
Layer_0
  10
181.49617
  20
275.60913
  0
VERTEX
  5
4a3
  8
Layer_0
  10
181.44577
  20
275.84436
  0
VERTEX
  5
4a4
  8
Layer_0
  10
181.38427
  20
275.97256
  0
VERTEX
  5
4a5
  8
Layer_0
  10
181.29611
  20
276.1093
  0
VERTEX
  5
4a6
  8
Layer_0
  10
181.17942
  20
276.2557
  0
VERTEX
  5
4a7
  8
Layer_0
  10
181.03235
  20
276.41286
  0
VERTEX
  5
4a8
  8
Layer_0
  10
180.86555
  20
276.55597
  0
VERTEX
  5
4a9
  8
Layer_0
  10
180.69217
  20
276.66208
  0
VERTEX
  5
4aa
  8
Layer_0
  10
180.51413
  20
276.7349
  0
VERTEX
  5
4ab
  8
Layer_0
  10
180.33333
  20
276.77814
  0
VERTEX
  5
4ac
  8
Layer_0
  10
179.9711
  20
276.79071
  0
VERTEX
  5
4ad
  8
Layer_0
  10
179.62074
  20
276.72948
  0
VERTEX
  5
4ae
  8
Layer_0
  10
179.29754
  20
276.62412
  0
VERTEX
  5
4af
  8
Layer_0
  10
179.01674
  20
276.50434
  0
VERTEX
  5
4b0
  8
Layer_0
  10
178.79363
  20
276.3998
  0
VERTEX
  5
4b1
  8
Layer_0
  10
178.64348
  20
276.34019
  0
VERTEX
  5
4b2
  8
Layer_0
  10
178.57021
  20
276.30612
  0
VERTEX
  5
4b3
  8
Layer_0
  10
178.46109
  20
276.23382
  0
VERTEX
  5
4b4
  8
Layer_0
  10
178.31932
  20
276.12748
  0
VERTEX
  5
4b5
  8
Layer_0
  10
178.14806
  20
275.9913
  0
VERTEX
  5
4b6
  8
Layer_0
  10
177.95051
  20
275.82944
  0
VERTEX
  5
4b7
  8
Layer_0
  10
177.72984
  20
275.64612
  0
VERTEX
  5
4b8
  8
Layer_0
  10
177.48924
  20
275.44551
  0
VERTEX
  5
4b9
  8
Layer_0
  10
177.23188
  20
275.2318
  0
VERTEX
  5
4ba
  8
Layer_0
  10
176.67963
  20
274.78185
  0
VERTEX
  5
4bb
  8
Layer_0
  10
176.09853
  20
274.32976
  0
VERTEX
  5
4bc
  8
Layer_0
  10
175.51404
  20
273.90906
  0
VERTEX
  5
4bd
  8
Layer_0
  10
174.9516
  20
273.55324
  0
VERTEX
  5
4be
  8
Layer_0
  10
174.42861
  20
273.25398
  0
VERTEX
  5
4bf
  8
Layer_0
  10
173.93022
  20
272.98486
  0
VERTEX
  5
4c0
  8
Layer_0
  10
173.43353
  20
272.75222
  0
VERTEX
  5
4c1
  8
Layer_0
  10
172.91563
  20
272.56242
  0
VERTEX
  5
4c2
  8
Layer_0
  10
172.35362
  20
272.42182
  0
VERTEX
  5
4c3
  8
Layer_0
  10
171.72459
  20
272.33677
  0
VERTEX
  5
4c4
  8
Layer_0
  10
171.37778
  20
272.31706
  0
VERTEX
  5
4c5
  8
Layer_0
  10
171.00564
  20
272.31362
  0
VERTEX
  5
4c6
  8
Layer_0
  10
170.60528
  20
272.32725
  0
VERTEX
  5
4c7
  8
Layer_0
  10
170.17386
  20
272.35873
  0
VERTEX
  5
4c8
  8
Layer_0
  10
169.9587
  20
272.38969
  0
VERTEX
  5
4c9
  8
Layer_0
  10
169.76068
  20
272.44089
  0
VERTEX
  5
4ca
  8
Layer_0
  10
169.57912
  20
272.51093
  0
VERTEX
  5
4cb
  8
Layer_0
  10
169.41335
  20
272.59843
  0
VERTEX
  5
4cc
  8
Layer_0
  10
169.12646
  20
272.82024
  0
VERTEX
  5
4cd
  8
Layer_0
  10
168.89461
  20
273.09517
  0
VERTEX
  5
4ce
  8
Layer_0
  10
168.71238
  20
273.41209
  0
VERTEX
  5
4cf
  8
Layer_0
  10
168.57437
  20
273.75986
  0
VERTEX
  5
4d0
  8
Layer_0
  10
168.47517
  20
274.12736
  0
VERTEX
  5
4d1
  8
Layer_0
  10
168.40938
  20
274.50345
  0
VERTEX
  5
4d2
  8
Layer_0
  10
168.37157
  20
274.87698
  0
VERTEX
  5
4d3
  8
Layer_0
  10
168.35636
  20
275.23684
  0
VERTEX
  5
4d4
  8
Layer_0
  10
168.35832
  20
275.57188
  0
VERTEX
  5
4d5
  8
Layer_0
  10
168.37205
  20
275.87098
  0
VERTEX
  5
4d6
  8
Layer_0
  10
168.39215
  20
276.12299
  0
VERTEX
  5
4d7
  8
Layer_0
  10
168.41319
  20
276.31678
  0
VERTEX
  5
4d8
  8
Layer_0
  10
168.42979
  20
276.44122
  0
VERTEX
  5
4d9
  8
Layer_0
  10
168.43652
  20
276.48518
  0
VERTEX
  5
4da
  8
Layer_0
  10
168.43137
  20
277.01225
  0
VERTEX
  5
4db
  8
Layer_0
  10
168.4568
  20
277.54734
  0
VERTEX
  5
4dc
  8
Layer_0
  10
168.51305
  20
278.08894
  0
VERTEX
  5
4dd
  8
Layer_0
  10
168.60039
  20
278.63551
  0
VERTEX
  5
4de
  8
Layer_0
  10
168.71907
  20
279.18553
  0
VERTEX
  5
4df
  8
Layer_0
  10
168.86934
  20
279.73749
  0
VERTEX
  5
4e0
  8
Layer_0
  10
169.05144
  20
280.28986
  0
VERTEX
  5
4e1
  8
Layer_0
  10
169.26564
  20
280.84111
  0
VERTEX
  5
4e2
  8
Layer_0
  10
169.51218
  20
281.38973
  0
VERTEX
  5
4e3
  8
Layer_0
  10
169.79131
  20
281.93419
  0
VERTEX
  5
4e4
  8
Layer_0
  10
170.1033
  20
282.47296
  0
VERTEX
  5
4e5
  8
Layer_0
  10
170.44839
  20
283.00453
  0
VERTEX
  5
4e6
  8
Layer_0
  10
170.82683
  20
283.52737
  0
VERTEX
  5
4e7
  8
Layer_0
  10
171.23887
  20
284.03997
  0
VERTEX
  5
4e8
  8
Layer_0
  10
171.68477
  20
284.54079
  0
VERTEX
  5
4e9
  8
Layer_0
  10
172.16478
  20
285.02831
  0
VERTEX
  5
4ea
  8
Layer_0
  10
172.67915
  20
285.50101
  0
VERTEX
  5
4eb
  8
Layer_0
  10
173.22814
  20
285.95738
  0
VERTEX
  5
4ec
  8
Layer_0
  10
173.81199
  20
286.39587
  0
VERTEX
  5
4ed
  8
Layer_0
  10
174.43096
  20
286.81499
  0
VERTEX
  5
4ee
  8
Layer_0
  10
175.08529
  20
287.21319
  0
VERTEX
  5
4ef
  8
Layer_0
  10
175.77525
  20
287.58896
  0
VERTEX
  5
4f0
  8
Layer_0
  10
176.50109
  20
287.94077
  0
VERTEX
  5
4f1
  8
Layer_0
  10
177.26305
  20
288.26711
  0
VERTEX
  5
4f2
  8
Layer_0
  10
178.06139
  20
288.56644
  0
VERTEX
  5
4f3
  8
Layer_0
  10
178.89636
  20
288.83725
  0
VERTEX
  5
4f4
  8
Layer_0
  10
179.76821
  20
289.07801
  0
VERTEX
  5
4f5
  8
Layer_0
  10
180.67719
  20
289.28721
  0
VERTEX
  5
4f6
  8
Layer_0
  10
181.62357
  20
289.46331
  0
VERTEX
  5
4f7
  8
Layer_0
  10
182.60758
  20
289.6048
  0
VERTEX
  5
4f8
  8
Layer_0
  10
183.62948
  20
289.71015
  0
VERTEX
  5
4f9
  8
Layer_0
  10
184.68953
  20
289.77784
  0
VERTEX
  5
4fa
  8
Layer_0
  10
185.80573
  20
289.80086
  0
VERTEX
  5
4fb
  8
Layer_0
  10
186.99278
  20
289.77434
  0
VERTEX
  5
4fc
  8
Layer_0
  10
188.24593
  20
289.69995
  0
VERTEX
  5
4fd
  8
Layer_0
  10
189.56045
  20
289.57939
  0
VERTEX
  5
4fe
  8
Layer_0
  10
190.9316
  20
289.41433
  0
VERTEX
  5
4ff
  8
Layer_0
  10
192.35464
  20
289.20646
  0
VERTEX
  5
500
  8
Layer_0
  10
193.82484
  20
288.95745
  0
VERTEX
  5
501
  8
Layer_0
  10
195.33746
  20
288.66899
  0
VERTEX
  5
502
  8
Layer_0
  10
196.88776
  20
288.34277
  0
VERTEX
  5
503
  8
Layer_0
  10
198.47101
  20
287.98046
  0
VERTEX
  5
504
  8
Layer_0
  10
200.08246
  20
287.58375
  0
VERTEX
  5
505
  8
Layer_0
  10
201.71738
  20
287.15432
  0
VERTEX
  5
506
  8
Layer_0
  10
203.37104
  20
286.69386
  0
VERTEX
  5
507
  8
Layer_0
  10
205.03869
  20
286.20403
  0
VERTEX
  5
508
  8
Layer_0
  10
206.71559
  20
285.68654
  0
VERTEX
  5
509
  8
Layer_0
  10
208.39702
  20
285.14305
  0
VERTEX
  5
50a
  8
Layer_0
  10
211.75449
  20
283.98483
  0
VERTEX
  5
50b
  8
Layer_0
  10
215.07318
  20
282.74283
  0
VERTEX
  5
50c
  8
Layer_0
  10
216.70615
  20
282.09463
  0
VERTEX
  5
50d
  8
Layer_0
  10
218.31522
  20
281.43052
  0
VERTEX
  5
50e
  8
Layer_0
  10
219.89564
  20
280.7522
  0
VERTEX
  5
50f
  8
Layer_0
  10
221.44269
  20
280.06135
  0
VERTEX
  5
510
  8
Layer_0
  10
222.95162
  20
279.35965
  0
VERTEX
  5
511
  8
Layer_0
  10
224.41769
  20
278.64878
  0
VERTEX
  5
512
  8
Layer_0
  10
225.83618
  20
277.93043
  0
VERTEX
  5
513
  8
Layer_0
  10
227.20234
  20
277.20627
  0
VERTEX
  5
514
  8
Layer_0
  10
228.51143
  20
276.47799
  0
VERTEX
  5
515
  8
Layer_0
  10
229.75872
  20
275.74727
  0
VERTEX
  5
516
  8
Layer_0
  10
230.93948
  20
275.0158
  0
VERTEX
  5
517
  8
Layer_0
  10
232.04895
  20
274.28526
  0
VERTEX
  5
518
  8
Layer_0
  10
234.01439
  20
272.91487
  0
VERTEX
  5
519
  8
Layer_0
  10
235.92117
  20
271.52141
  0
VERTEX
  5
51a
  8
Layer_0
  10
237.76255
  20
270.11447
  0
VERTEX
  5
51b
  8
Layer_0
  10
239.53179
  20
268.70362
  0
VERTEX
  5
51c
  8
Layer_0
  10
241.22213
  20
267.29845
  0
VERTEX
  5
51d
  8
Layer_0
  10
242.82685
  20
265.90854
  0
VERTEX
  5
51e
  8
Layer_0
  10
243.59498
  20
265.22231
  0
VERTEX
  5
51f
  8
Layer_0
  10
244.33918
  20
264.54348
  0
VERTEX
  5
520
  8
Layer_0
  10
245.0586
  20
263.87326
  0
VERTEX
  5
521
  8
Layer_0
  10
245.75239
  20
263.21284
  0
VERTEX
  5
522
  8
Layer_0
  10
246.41971
  20
262.56342
  0
VERTEX
  5
523
  8
Layer_0
  10
247.05973
  20
261.92621
  0
VERTEX
  5
524
  8
Layer_0
  10
247.67159
  20
261.30239
  0
VERTEX
  5
525
  8
Layer_0
  10
248.25445
  20
260.69316
  0
VERTEX
  5
526
  8
Layer_0
  10
248.80747
  20
260.09973
  0
VERTEX
  5
527
  8
Layer_0
  10
249.32981
  20
259.52329
  0
VERTEX
  5
528
  8
Layer_0
  10
249.82062
  20
258.96504
  0
VERTEX
  5
529
  8
Layer_0
  10
250.27906
  20
258.42618
  0
VERTEX
  5
52a
  8
Layer_0
  10
250.70429
  20
257.9079
  0
VERTEX
  5
52b
  8
Layer_0
  10
251.09547
  20
257.4114
  0
VERTEX
  5
52c
  8
Layer_0
  10
251.45174
  20
256.93788
  0
VERTEX
  5
52d
  8
Layer_0
  10
251.77227
  20
256.48854
  0
VERTEX
  5
52e
  8
Layer_0
  10
252.05622
  20
256.06457
  0
VERTEX
  5
52f
  8
Layer_0
  10
252.30274
  20
255.66718
  0
VERTEX
  5
530
  8
Layer_0
  10
252.51098
  20
255.29756
  0
VERTEX
  5
531
  8
Layer_0
  10
252.68011
  20
254.95691
  0
VERTEX
  5
532
  8
Layer_0
  10
252.95718
  20
254.29998
  0
VERTEX
  5
533
  8
Layer_0
  10
253.1932
  20
253.63664
  0
VERTEX
  5
534
  8
Layer_0
  10
253.39138
  20
252.97361
  0
VERTEX
  5
535
  8
Layer_0
  10
253.55492
  20
252.31762
  0
VERTEX
  5
536
  8
Layer_0
  10
253.687
  20
251.67542
  0
VERTEX
  5
537
  8
Layer_0
  10
253.79083
  20
251.05373
  0
VERTEX
  5
538
  8
Layer_0
  10
253.86961
  20
250.45929
  0
VERTEX
  5
539
  8
Layer_0
  10
253.92652
  20
249.89883
  0
VERTEX
  5
53a
  8
Layer_0
  10
253.96477
  20
249.37909
  0
VERTEX
  5
53b
  8
Layer_0
  10
253.98754
  20
248.9068
  0
VERTEX
  5
53c
  8
Layer_0
  10
253.99805
  20
248.48869
  0
VERTEX
  5
53d
  8
Layer_0
  10
253.99947
  20
248.1315
  0
VERTEX
  5
53e
  8
Layer_0
  10
253.99502
  20
247.84197
  0
VERTEX
  5
53f
  8
Layer_0
  10
253.98788
  20
247.62682
  0
VERTEX
  5
540
  8
Layer_0
  10
253.98125
  20
247.4928
  0
VERTEX
  5
541
  8
Layer_0
  10
253.97833
  20
247.44662
  0
VERTEX
  5
542
  8
Layer_0
  10
253.97418
  20
247.01488
  0
VERTEX
  5
543
  8
Layer_0
  10
253.93986
  20
246.58214
  0
VERTEX
  5
544
  8
Layer_0
  10
253.87683
  20
246.14933
  0
VERTEX
  5
545
  8
Layer_0
  10
253.78655
  20
245.71734
  0
VERTEX
  5
546
  8
Layer_0
  10
253.53008
  20
244.85953
  0
VERTEX
  5
547
  8
Layer_0
  10
253.1821
  20
244.01604
  0
VERTEX
  5
548
  8
Layer_0
  10
252.75426
  20
243.19417
  0
VERTEX
  5
549
  8
Layer_0
  10
252.25821
  20
242.40125
  0
VERTEX
  5
54a
  8
Layer_0
  10
251.70562
  20
241.6446
  0
VERTEX
  5
54b
  8
Layer_0
  10
251.10813
  20
240.93152
  0
VERTEX
  5
54c
  8
Layer_0
  10
250.4774
  20
240.26935
  0
VERTEX
  5
54d
  8
Layer_0
  10
249.8251
  20
239.66539
  0
VERTEX
  5
54e
  8
Layer_0
  10
249.16286
  20
239.12697
  0
VERTEX
  5
54f
  8
Layer_0
  10
248.50235
  20
238.6614
  0
VERTEX
  5
550
  8
Layer_0
  10
247.85522
  20
238.276
  0
VERTEX
  5
551
  8
Layer_0
  10
247.23313
  20
237.97808
  0
VERTEX
  5
552
  8
Layer_0
  10
246.93512
  20
237.86422
  0
VERTEX
  5
553
  8
Layer_0
  10
246.64774
  20
237.77497
  0
VERTEX
  5
554
  8
Layer_0
  10
246.37244
  20
237.71125
  0
VERTEX
  5
555
  8
Layer_0
  10
246.11069
  20
237.67398
  0
VERTEX
  5
556
  8
Layer_0
  10
245.86282
  20
237.66249
  0
VERTEX
  5
557
  8
Layer_0
  10
245.62797
  20
237.67451
  0
VERTEX
  5
558
  8
Layer_0
  10
245.4058
  20
237.70852
  0
VERTEX
  5
559
  8
Layer_0
  10
245.19599
  20
237.76299
  0
VERTEX
  5
55a
  8
Layer_0
  10
244.81205
  20
237.92729
  0
VERTEX
  5
55b
  8
Layer_0
  10
244.47344
  20
238.15526
  0
VERTEX
  5
55c
  8
Layer_0
  10
244.17746
  20
238.43477
  0
VERTEX
  5
55d
  8
Layer_0
  10
243.9214
  20
238.75366
  0
VERTEX
  5
55e
  8
Layer_0
  10
243.70257
  20
239.09981
  0
VERTEX
  5
55f
  8
Layer_0
  10
243.51825
  20
239.46106
  0
VERTEX
  5
560
  8
Layer_0
  10
243.36575
  20
239.82528
  0
VERTEX
  5
561
  8
Layer_0
  10
243.24235
  20
240.18033
  0
VERTEX
  5
562
  8
Layer_0
  10
243.14536
  20
240.51407
  0
VERTEX
  5
563
  8
Layer_0
  10
243.07206
  20
240.81435
  0
VERTEX
  5
564
  8
Layer_0
  10
243.01976
  20
241.06904
  0
VERTEX
  5
565
  8
Layer_0
  10
242.98575
  20
241.26599
  0
VERTEX
  5
566
  8
Layer_0
  10
242.96733
  20
241.39306
  0
VERTEX
  5
567
  8
Layer_0
  10
242.96179
  20
241.43812
  0
VERTEX
  5
568
  8
Layer_0
  10
242.96179
  20
247.33797
  0
VERTEX
  5
569
  8
Layer_0
  10
242.94526
  20
247.64077
  0
VERTEX
  5
56a
  8
Layer_0
  10
242.89055
  20
247.9211
  0
VERTEX
  5
56b
  8
Layer_0
  10
242.79004
  20
248.17343
  0
VERTEX
  5
56c
  8
Layer_0
  10
242.63609
  20
248.39225
  0
VERTEX
  5
56d
  8
Layer_0
  10
242.42104
  20
248.57204
  0
VERTEX
  5
56e
  8
Layer_0
  10
242.13728
  20
248.70729
  0
VERTEX
  5
56f
  8
Layer_0
  10
241.96723
  20
248.75649
  0
VERTEX
  5
570
  8
Layer_0
  10
241.77714
  20
248.79248
  0
VERTEX
  5
571
  8
Layer_0
  10
241.56605
  20
248.81458
  0
VERTEX
  5
572
  8
Layer_0
  10
241.33301
  20
248.82211
  0
VERTEX
  5
573
  8
Layer_0
  10
241.10165
  20
248.80706
  0
VERTEX
  5
574
  8
Layer_0
  10
240.8952
  20
248.76455
  0
VERTEX
  5
575
  8
Layer_0
  10
240.71229
  20
248.69849
  0
VERTEX
  5
576
  8
Layer_0
  10
240.55154
  20
248.61281
  0
VERTEX
  5
577
  8
Layer_0
  10
240.29101
  20
248.39828
  0
VERTEX
  5
578
  8
Layer_0
  10
240.10256
  20
248.15236
  0
VERTEX
  5
579
  8
Layer_0
  10
239.97519
  20
247.90644
  0
VERTEX
  5
57a
  8
Layer_0
  10
239.89786
  20
247.69191
  0
VERTEX
  5
57b
  8
Layer_0
  10
239.85955
  20
247.54017
  0
VERTEX
  5
57c
  8
Layer_0
  10
239.84923
  20
247.48261
  0
VERTEX
  5
57d
  8
Layer_0
  10
239.84923
  20
191.95976
  0
VERTEX
  5
57e
  8
Layer_0
  10
239.82992
  20
191.94091
  0
VERTEX
  5
57f
  8
Layer_0
  10
239.77449
  20
191.88702
  0
VERTEX
  5
580
  8
Layer_0
  10
239.68672
  20
191.80205
  0
VERTEX
  5
581
  8
Layer_0
  10
239.57037
  20
191.69
  0
VERTEX
  5
582
  8
Layer_0
  10
239.26699
  20
191.40051
  0
VERTEX
  5
583
  8
Layer_0
  10
238.89448
  20
191.05036
  0
VERTEX
  5
584
  8
Layer_0
  10
238.48296
  20
190.67138
  0
VERTEX
  5
585
  8
Layer_0
  10
238.06255
  20
190.29536
  0
VERTEX
  5
586
  8
Layer_0
  10
237.66338
  20
189.95412
  0
VERTEX
  5
587
  8
Layer_0
  10
237.31558
  20
189.67948
  0
VERTEX
  5
588
  8
Layer_0
  10
237.03858
  20
189.42427
  0
VERTEX
  5
589
  8
Layer_0
  10
236.83707
  20
189.1309
  0
VERTEX
  5
58a
  8
Layer_0
  10
236.71871
  20
188.81546
  0
VERTEX
  5
58b
  8
Layer_0
  10
236.69111
  20
188.4941
  0
VERTEX
  5
58c
  8
Layer_0
  10
236.71374
  20
188.33622
  0
VERTEX
  5
58d
  8
Layer_0
  10
236.76193
  20
188.18291
  0
VERTEX
  5
58e
  8
Layer_0
  10
236.83663
  20
188.03617
  0
VERTEX
  5
58f
  8
Layer_0
  10
236.93879
  20
187.89802
  0
VERTEX
  5
590
  8
Layer_0
  10
237.06937
  20
187.77047
  0
VERTEX
  5
591
  8
Layer_0
  10
237.22933
  20
187.65555
  0
VERTEX
  5
592
  8
Layer_0
  10
237.41962
  20
187.55526
  0
VERTEX
  5
593
  8
Layer_0
  10
237.64119
  20
187.47162
  0
VERTEX
  5
594
  8
Layer_0
  10
237.89057
  20
187.41745
  0
VERTEX
  5
595
  8
Layer_0
  10
238.16184
  20
187.40304
  0
VERTEX
  5
596
  8
Layer_0
  10
238.45231
  20
187.4266
  0
VERTEX
  5
597
  8
Layer_0
  10
238.75926
  20
187.48632
  0
VERTEX
  5
598
  8
Layer_0
  10
239.08
  20
187.58039
  0
VERTEX
  5
599
  8
Layer_0
  10
239.41182
  20
187.70701
  0
VERTEX
  5
59a
  8
Layer_0
  10
239.75202
  20
187.86439
  0
VERTEX
  5
59b
  8
Layer_0
  10
240.09789
  20
188.05072
  0
VERTEX
  5
59c
  8
Layer_0
  10
240.79585
  20
188.50301
  0
VERTEX
  5
59d
  8
Layer_0
  10
241.48408
  20
189.04946
  0
VERTEX
  5
59e
  8
Layer_0
  10
242.14095
  20
189.67566
  0
VERTEX
  5
59f
  8
Layer_0
  10
242.74483
  20
190.36718
  0
VERTEX
  5
5a0
  8
Layer_0
  10
243.03781
  20
190.70608
  0
VERTEX
  5
5a1
  8
Layer_0
  10
243.34378
  20
191.00505
  0
VERTEX
  5
5a2
  8
Layer_0
  10
243.65834
  20
191.26659
  0
VERTEX
  5
5a3
  8
Layer_0
  10
243.97709
  20
191.49319
  0
VERTEX
  5
5a4
  8
Layer_0
  10
244.29562
  20
191.68734
  0
VERTEX
  5
5a5
  8
Layer_0
  10
244.60954
  20
191.85153
  0
VERTEX
  5
5a6
  8
Layer_0
  10
244.91445
  20
191.98826
  0
VERTEX
  5
5a7
  8
Layer_0
  10
245.20594
  20
192.10002
  0
VERTEX
  5
5a8
  8
Layer_0
  10
245.47962
  20
192.18929
  0
VERTEX
  5
5a9
  8
Layer_0
  10
245.73109
  20
192.25858
  0
VERTEX
  5
5aa
  8
Layer_0
  10
245.95594
  20
192.31037
  0
VERTEX
  5
5ab
  8
Layer_0
  10
246.14977
  20
192.34716
  0
VERTEX
  5
5ac
  8
Layer_0
  10
246.30819
  20
192.37144
  0
VERTEX
  5
5ad
  8
Layer_0
  10
246.4268
  20
192.38569
  0
VERTEX
  5
5ae
  8
Layer_0
  10
246.50119
  20
192.39241
  0
VERTEX
  5
5af
  8
Layer_0
  10
246.52696
  20
192.3941
  0
VERTEX
  5
5b0
  8
Layer_0
  10
246.75433
  20
192.38486
  0
VERTEX
  5
5b1
  8
Layer_0
  10
246.99889
  20
192.35409
  0
VERTEX
  5
5b2
  8
Layer_0
  10
247.25574
  20
192.29723
  0
VERTEX
  5
5b3
  8
Layer_0
  10
247.52002
  20
192.20973
  0
VERTEX
  5
5b4
  8
Layer_0
  10
247.78685
  20
192.08703
  0
VERTEX
  5
5b5
  8
Layer_0
  10
248.05135
  20
191.92456
  0
VERTEX
  5
5b6
  8
Layer_0
  10
248.30864
  20
191.71776
  0
VERTEX
  5
5b7
  8
Layer_0
  10
248.55384
  20
191.46209
  0
VERTEX
  5
5b8
  8
Layer_0
  10
248.78207
  20
191.15296
  0
VERTEX
  5
5b9
  8
Layer_0
  10
248.98846
  20
190.78584
  0
VERTEX
  5
5ba
  8
Layer_0
  10
249.16812
  20
190.35615
  0
VERTEX
  5
5bb
  8
Layer_0
  10
249.31619
  20
189.85934
  0
VERTEX
  5
5bc
  8
Layer_0
  10
249.42777
  20
189.29084
  0
VERTEX
  5
5bd
  8
Layer_0
  10
249.498
  20
188.6461
  0
VERTEX
  5
5be
  8
Layer_0
  10
249.52199
  20
187.92057
  0
VERTEX
  5
5bf
  8
Layer_0
  10
249.49487
  20
187.10967
  0
VERTEX
  5
5c0
  8
Layer_0
  10
249.39189
  20
186.00974
  0
VERTEX
  5
5c1
  8
Layer_0
  10
249.22905
  20
184.97561
  0
VERTEX
  5
5c2
  8
Layer_0
  10
249.0096
  20
184.00521
  0
VERTEX
  5
5c3
  8
Layer_0
  10
248.73678
  20
183.09644
  0
VERTEX
  5
5c4
  8
Layer_0
  10
248.41386
  20
182.24724
  0
VERTEX
  5
5c5
  8
Layer_0
  10
248.04407
  20
181.45551
  0
VERTEX
  5
5c6
  8
Layer_0
  10
247.63067
  20
180.71918
  0
VERTEX
  5
5c7
  8
Layer_0
  10
247.17691
  20
180.03616
  0
VERTEX
  5
5c8
  8
Layer_0
  10
246.68604
  20
179.40438
  0
VERTEX
  5
5c9
  8
Layer_0
  10
246.16131
  20
178.82174
  0
VERTEX
  5
5ca
  8
Layer_0
  10
245.60596
  20
178.28617
  0
VERTEX
  5
5cb
  8
Layer_0
  10
245.02326
  20
177.79558
  0
VERTEX
  5
5cc
  8
Layer_0
  10
244.41644
  20
177.34789
  0
VERTEX
  5
5cd
  8
Layer_0
  10
243.78876
  20
176.94103
  0
VERTEX
  5
5ce
  8
Layer_0
  10
243.14347
  20
176.57291
  0
VERTEX
  5
5cf
  8
Layer_0
  10
242.48382
  20
176.24144
  0
VERTEX
  5
5d0
  8
Layer_0
  10
241.81305
  20
175.94454
  0
VERTEX
  5
5d1
  8
Layer_0
  10
241.13443
  20
175.68014
  0
VERTEX
  5
5d2
  8
Layer_0
  10
240.45119
  20
175.44615
  0
VERTEX
  5
5d3
  8
Layer_0
  10
239.7666
  20
175.24048
  0
VERTEX
  5
5d4
  8
Layer_0
  10
238.40631
  20
174.90581
  0
VERTEX
  5
5d5
  8
Layer_0
  10
237.07959
  20
174.65947
  0
VERTEX
  5
5d6
  8
Layer_0
  10
236.43693
  20
174.56422
  0
VERTEX
  5
5d7
  8
Layer_0
  10
235.81242
  20
174.4848
  0
VERTEX
  5
5d8
  8
Layer_0
  10
235.20929
  20
174.41914
  0
VERTEX
  5
5d9
  8
Layer_0
  10
234.6308
  20
174.36515
  0
VERTEX
  5
5da
  8
Layer_0
  10
234.08019
  20
174.32075
  0
VERTEX
  5
5db
  8
Layer_0
  10
233.56073
  20
174.28385
  0
VERTEX
  5
5dc
  8
Layer_0
  10
233.07566
  20
174.25239
  0
VERTEX
  5
5dd
  8
Layer_0
  10
232.62822
  20
174.22426
  0
VERTEX
  5
5de
  8
Layer_0
  10
232.15758
  20
174.20415
  0
VERTEX
  5
5df
  8
Layer_0
  10
231.60244
  20
174.19911
  0
VERTEX
  5
5e0
  8
Layer_0
  10
230.96522
  20
174.21064
  0
VERTEX
  5
5e1
  8
Layer_0
  10
230.24836
  20
174.24024
  0
VERTEX
  5
5e2
  8
Layer_0
  10
229.45431
  20
174.2894
  0
VERTEX
  5
5e3
  8
Layer_0
  10
228.5855
  20
174.35962
  0
VERTEX
  5
5e4
  8
Layer_0
  10
227.64438
  20
174.4524
  0
VERTEX
  5
5e5
  8
Layer_0
  10
226.63337
  20
174.56924
  0
VERTEX
  5
5e6
  8
Layer_0
  10
225.55493
  20
174.71164
  0
VERTEX
  5
5e7
  8
Layer_0
  10
224.41148
  20
174.88109
  0
VERTEX
  5
5e8
  8
Layer_0
  10
223.20548
  20
175.07909
  0
VERTEX
  5
5e9
  8
Layer_0
  10
221.93934
  20
175.30714
  0
VERTEX
  5
5ea
  8
Layer_0
  10
220.61553
  20
175.56673
  0
VERTEX
  5
5eb
  8
Layer_0
  10
219.23646
  20
175.85938
  0
VERTEX
  5
5ec
  8
Layer_0
  10
217.80459
  20
176.18656
  0
VERTEX
  5
5ed
  8
Layer_0
  10
216.32236
  20
176.54978
  0
VERTEX
  5
5ee
  8
Layer_0
  10
214.79219
  20
176.95054
  0
VERTEX
  5
5ef
  8
Layer_0
  10
213.21653
  20
177.39034
  0
VERTEX
  5
5f0
  8
Layer_0
  10
211.59782
  20
177.87067
  0
VERTEX
  5
5f1
  8
Layer_0
  10
209.93849
  20
178.39303
  0
VERTEX
  5
5f2
  8
Layer_0
  10
208.24099
  20
178.95893
  0
VERTEX
  5
5f3
  8
Layer_0
  10
206.50776
  20
179.56985
  0
VERTEX
  5
5f4
  8
Layer_0
  10
204.74123
  20
180.22729
  0
VERTEX
  5
5f5
  8
Layer_0
  10
202.94384
  20
180.93276
  0
VERTEX
  5
5f6
  8
Layer_0
  10
201.11803
  20
181.68774
  0
VERTEX
  5
5f7
  8
Layer_0
  10
199.26624
  20
182.49375
  0
VERTEX
  5
5f8
  8
Layer_0
  10
197.39091
  20
183.35227
  0
VERTEX
  5
5f9
  8
Layer_0
  10
195.49448
  20
184.2648
  0
VERTEX
  5
5fa
  8
Layer_0
  10
193.57938
  20
185.23285
  0
VERTEX
  5
5fb
  8
Layer_0
  10
191.64806
  20
186.25791
  0
VERTEX
  5
5fc
  8
Layer_0
  10
189.70295
  20
187.34147
  0
VERTEX
  5
5fd
  8
Layer_0
  10
187.74649
  20
188.48504
  0
VERTEX
  5
5fe
  8
Layer_0
  10
186.77931
  20
189.06888
  0
VERTEX
  5
5ff
  8
Layer_0
  10
185.83881
  20
189.64635
  0
VERTEX
  5
600
  8
Layer_0
  10
184.92463
  20
190.2175
  0
VERTEX
  5
601
  8
Layer_0
  10
184.0364
  20
190.78238
  0
VERTEX
  5
602
  8
Layer_0
  10
183.17373
  20
191.34105
  0
VERTEX
  5
603
  8
Layer_0
  10
182.33625
  20
191.89354
  0
VERTEX
  5
604
  8
Layer_0
  10
181.52358
  20
192.43991
  0
VERTEX
  5
605
  8
Layer_0
  10
180.73535
  20
192.98021
  0
VERTEX
  5
606
  8
Layer_0
  10
179.23072
  20
194.04278
  0
VERTEX
  5
607
  8
Layer_0
  10
177.81934
  20
195.08164
  0
VERTEX
  5
608
  8
Layer_0
  10
176.49822
  20
196.09719
  0
VERTEX
  5
609
  8
Layer_0
  10
175.26434
  20
197.08982
  0
VERTEX
  5
60a
  8
Layer_0
  10
174.11471
  20
198.05991
  0
VERTEX
  5
60b
  8
Layer_0
  10
173.04633
  20
199.00786
  0
VERTEX
  5
60c
  8
Layer_0
  10
172.0562
  20
199.93405
  0
VERTEX
  5
60d
  8
Layer_0
  10
171.1413
  20
200.83889
  0
VERTEX
  5
60e
  8
Layer_0
  10
170.29865
  20
201.72276
  0
VERTEX
  5
60f
  8
Layer_0
  10
169.52523
  20
202.58605
  0
VERTEX
  5
610
  8
Layer_0
  10
168.81805
  20
203.42915
  0
VERTEX
  5
611
  8
Layer_0
  10
168.1741
  20
204.25245
  0
VERTEX
  5
612
  8
Layer_0
  10
167.59038
  20
205.05635
  0
VERTEX
  5
613
  8
Layer_0
  10
167.06389
  20
205.84124
  0
VERTEX
  5
614
  8
Layer_0
  10
166.59163
  20
206.6075
  0
VERTEX
  5
615
  8
Layer_0
  10
166.17059
  20
207.35553
  0
VERTEX
  5
616
  8
Layer_0
  10
165.79777
  20
208.08572
  0
VERTEX
  5
617
  8
Layer_0
  10
165.47017
  20
208.79846
  0
VERTEX
  5
618
  8
Layer_0
  10
165.18479
  20
209.49414
  0
VERTEX
  5
619
  8
Layer_0
  10
164.93862
  20
210.17315
  0
VERTEX
  5
61a
  8
Layer_0
  10
164.72866
  20
210.83588
  0
VERTEX
  5
61b
  8
Layer_0
  10
164.55192
  20
211.48273
  0
VERTEX
  5
61c
  8
Layer_0
  10
164.40538
  20
212.11408
  0
VERTEX
  5
61d
  8
Layer_0
  10
164.28605
  20
212.73033
  0
VERTEX
  5
61e
  8
Layer_0
  10
164.11699
  20
213.91908
  0
VERTEX
  5
61f
  8
Layer_0
  10
164.02074
  20
215.0521
  0
VERTEX
  5
620
  8
Layer_0
  10
164.00052
  20
215.60171
  0
VERTEX
  5
621
  8
Layer_0
  10
164.00705
  20
216.14389
  0
VERTEX
  5
622
  8
Layer_0
  10
164.03928
  20
216.67799
  0
VERTEX
  5
623
  8
Layer_0
  10
164.09617
  20
217.20338
  0
VERTEX
  5
624
  8
Layer_0
  10
164.27976
  20
218.22543
  0
VERTEX
  5
625
  8
Layer_0
  10
164.54952
  20
219.20489
  0
VERTEX
  5
626
  8
Layer_0
  10
164.89711
  20
220.13661
  0
VERTEX
  5
627
  8
Layer_0
  10
165.31421
  20
221.01545
  0
VERTEX
  5
628
  8
Layer_0
  10
165.79249
  20
221.83627
  0
VERTEX
  5
629
  8
Layer_0
  10
166.32364
  20
222.59392
  0
VERTEX
  5
62a
  8
Layer_0
  10
166.89932
  20
223.28325
  0
VERTEX
  5
62b
  8
Layer_0
  10
167.51121
  20
223.89912
  0
VERTEX
  5
62c
  8
Layer_0
  10
168.15099
  20
224.43638
  0
VERTEX
  5
62d
  8
Layer_0
  10
168.81033
  20
224.88989
  0
VERTEX
  5
62e
  8
Layer_0
  10
169.48092
  20
225.2545
  0
VERTEX
  5
62f
  8
Layer_0
  10
170.15442
  20
225.52507
  0
VERTEX
  5
630
  8
Layer_0
  10
170.48966
  20
225.62348
  0
VERTEX
  5
631
  8
Layer_0
  10
170.82251
  20
225.69645
  0
VERTEX
  5
632
  8
Layer_0
  10
171.15193
  20
225.74333
  0
VERTEX
  5
633
  8
Layer_0
  10
171.47687
  20
225.76349
  0
VERTEX
  5
634
  8
Layer_0
  10
172.08132
  20
225.74382
  0
VERTEX
  5
635
  8
Layer_0
  10
172.60874
  20
225.664
  0
VERTEX
  5
636
  8
Layer_0
  10
173.06437
  20
225.5325
  0
VERTEX
  5
637
  8
Layer_0
  10
173.45345
  20
225.3578
  0
VERTEX
  5
638
  8
Layer_0
  10
173.78125
  20
225.14837
  0
VERTEX
  5
639
  8
Layer_0
  10
174.053
  20
224.91269
  0
VERTEX
  5
63a
  8
Layer_0
  10
174.27396
  20
224.65924
  0
VERTEX
  5
63b
  8
Layer_0
  10
174.44938
  20
224.39648
  0
VERTEX
  5
63c
  8
Layer_0
  10
174.5845
  20
224.13289
  0
VERTEX
  5
63d
  8
Layer_0
  10
174.68458
  20
223.87696
  0
VERTEX
  5
63e
  8
Layer_0
  10
174.75486
  20
223.63714
  0
VERTEX
  5
63f
  8
Layer_0
  10
174.80059
  20
223.42193
  0
VERTEX
  5
640
  8
Layer_0
  10
174.82702
  20
223.23979
  0
VERTEX
  5
641
  8
Layer_0
  10
174.8394
  20
223.09919
  0
VERTEX
  5
642
  8
Layer_0
  10
174.84298
  20
223.00862
  0
VERTEX
  5
643
  8
Layer_0
  10
174.843
  20
222.97655
  0
VERTEX
  5
644
  8
Layer_0
  10
174.843
  20
217.76461
  0
VERTEX
  5
645
  8
Layer_0
  10
174.8621
  20
217.29703
  0
VERTEX
  5
646
  8
Layer_0
  10
174.91606
  20
216.89537
  0
VERTEX
  5
647
  8
Layer_0
  10
174.99991
  20
216.5547
  0
VERTEX
  5
648
  8
Layer_0
  10
175.10867
  20
216.27008
  0
VERTEX
  5
649
  8
Layer_0
  10
175.23736
  20
216.03657
  0
VERTEX
  5
64a
  8
Layer_0
  10
175.38098
  20
215.84925
  0
VERTEX
  5
64b
  8
Layer_0
  10
175.53457
  20
215.70319
  0
VERTEX
  5
64c
  8
Layer_0
  10
175.69315
  20
215.59344
  0
VERTEX
  5
64d
  8
Layer_0
  10
176.00531
  20
215.46317
  0
VERTEX
  5
64e
  8
Layer_0
  10
176.27762
  20
215.41898
  0
VERTEX
  5
64f
  8
Layer_0
  10
176.38638
  20
215.41683
  0
VERTEX
  5
650
  8
Layer_0
  10
176.47023
  20
215.42141
  0
VERTEX
  5
651
  8
Layer_0
  10
176.52419
  20
215.42777
  0
VERTEX
  5
652
  8
Layer_0
  10
176.54329
  20
215.43098
  0
VERTEX
  5
653
  8
Layer_0
  10
176.78761
  20
215.44836
  0
VERTEX
  5
654
  8
Layer_0
  10
176.99984
  20
215.51586
  0
VERTEX
  5
655
  8
Layer_0
  10
177.18225
  20
215.62643
  0
VERTEX
  5
656
  8
Layer_0
  10
177.33707
  20
215.77299
  0
VERTEX
  5
657
  8
Layer_0
  10
177.46657
  20
215.94847
  0
VERTEX
  5
658
  8
Layer_0
  10
177.57299
  20
216.14579
  0
VERTEX
  5
659
  8
Layer_0
  10
177.65859
  20
216.35789
  0
VERTEX
  5
65a
  8
Layer_0
  10
177.72561
  20
216.57769
  0
VERTEX
  5
65b
  8
Layer_0
  10
177.81296
  20
217.0121
  0
VERTEX
  5
65c
  8
Layer_0
  10
177.85305
  20
217.39244
  0
VERTEX
  5
65d
  8
Layer_0
  10
177.861
  20
217.54466
  0
VERTEX
  5
65e
  8
Layer_0
  10
177.86389
  20
217.66214
  0
VERTEX
  5
65f
  8
Layer_0
  10
177.86397
  20
217.73781
  0
VERTEX
  5
660
  8
Layer_0
  10
177.86349
  20
217.76461
  0
VERTEX
  5
661
  8
Layer_0
  10
177.86349
  20
272.13049
  0
VERTEX
  5
662
  8
Layer_0
  10
177.88948
  20
272.15109
  0
VERTEX
  5
663
  8
Layer_0
  10
177.96353
  20
272.20993
  0
VERTEX
  5
664
  8
Layer_0
  10
178.07982
  20
272.3026
  0
VERTEX
  5
665
  8
Layer_0
  10
178.23251
  20
272.42464
  0
VERTEX
  5
666
  8
Layer_0
  10
178.62373
  20
272.73912
  0
VERTEX
  5
667
  8
Layer_0
  10
179.0905
  20
273.11791
  0
VERTEX
  5
668
  8
Layer_0
  10
179.5861
  20
273.52554
  0
VERTEX
  5
669
  8
Layer_0
  10
180.06385
  20
273.92654
  0
VERTEX
  5
66a
  8
Layer_0
  10
180.28144
  20
274.11347
  0
VERTEX
  5
66b
  8
Layer_0
  10
180.47705
  20
274.28544
  0
VERTEX
  5
66c
  8
Layer_0
  10
180.64485
  20
274.43802
  0
VERTEX
  5
66d
  8
Layer_0
  10
180.77899
  20
274.56677
  0
SEQEND
  0
POLYLINE
  5
66f
  8
Layer_0
  62
0
  66
1
  10
0
  20
0
  30
0
  0
VERTEX
  5
66f
  8
Layer_0
  10
133.43208
  20
244.50555
  0
VERTEX
  5
670
  8
Layer_0
  10
134.6953
  20
251.66964
  0
VERTEX
  5
671
  8
Layer_0
  10
127.8594
  20
249.18158
  0
VERTEX
  5
672
  8
Layer_0
  10
133.43208
  20
244.50555
  0
SEQEND
  0
POLYLINE
  5
674
  8
Layer_0
  62
0
  66
1
  10
0
  20
0
  30
0
  0
VERTEX
  5
674
  8
Layer_0
  10
135.55368
  20
195.48394
  0
VERTEX
  5
675
  8
Layer_0
  10
136.81689
  20
202.64804
  0
VERTEX
  5
676
  8
Layer_0
  10
129.98099
  20
200.15997
  0
VERTEX
  5
677
  8
Layer_0
  10
135.55368
  20
195.48394
  0
SEQEND
  0
POLYLINE
  5
679
  8
Layer_0
  62
0
  66
1
  10
0
  20
0
  30
0
  0
VERTEX
  5
679
  8
Layer_0
  10
114.89378
  20
233.41703
  0
VERTEX
  5
67a
  8
Layer_0
  10
116.15701
  20
240.58112
  0
VERTEX
  5
67b
  8
Layer_0
  10
109.32111
  20
238.09306
  0
VERTEX
  5
67c
  8
Layer_0
  10
114.89378
  20
233.41703
  0
SEQEND
  0
POLYLINE
  5
67e
  8
Layer_0
  62
0
  66
1
  10
0
  20
0
  30
0
  0
VERTEX
  5
67e
  8
Layer_0
  10
151.48012
  20
251.09113
  0
VERTEX
  5
67f
  8
Layer_0
  10
145.90744
  20
255.76716
  0
VERTEX
  5
680
  8
Layer_0
  10
152.74335
  20
258.25523
  0
VERTEX
  5
681
  8
Layer_0
  10
151.48012
  20
251.09113
  0
SEQEND
  0
POLYLINE
  5
683
  8
Layer_0
  62
0
  66
1
  10
0
  20
0
  30
0
  0
VERTEX
  5
683
  8
Layer_0
  10
109.38823
  20
203.76714
  0
VERTEX
  5
684
  8
Layer_0
  10
110.65145
  20
210.93123
  0
VERTEX
  5
685
  8
Layer_0
  10
103.81555
  20
208.44316
  0
VERTEX
  5
686
  8
Layer_0
  10
109.38823
  20
203.76714
  0
SEQEND
  0
POLYLINE
  5
688
  8
Layer_0
  62
0
  66
1
  10
0
  20
0
  30
0
  0
VERTEX
  5
688
  8
Layer_0
  10
121.93723
  20
262.69489
  0
VERTEX
  5
689
  8
Layer_0
  10
116.36455
  20
267.37092
  0
VERTEX
  5
68a
  8
Layer_0
  10
123.20045
  20
269.85899
  0
VERTEX
  5
68b
  8
Layer_0
  10
121.93723
  20
262.69489
  0
SEQEND
  0
POLYLINE
  5
68d
  8
Layer_0
  62
0
  66
1
  10
0
  20
0
  30
0
  0
VERTEX
  5
68d
  8
Layer_0
  10
139.47272
  20
220.21506
  0
VERTEX
  5
68e
  8
Layer_0
  10
133.90004
  20
224.89108
  0
VERTEX
  5
68f
  8
Layer_0
  10
140.73595
  20
227.37915
  0
VERTEX
  5
690
  8
Layer_0
  10
139.47272
  20
220.21506
  0
SEQEND
  0
POLYLINE
  5
692
  8
Layer_0
  62
0
  66
1
  10
0
  20
0
  30
0
  0
VERTEX
  5
692
  8
Layer_0
  10
100.77898
  20
274.56677
  0
VERTEX
  5
693
  8
Layer_0
  10
101.00216
  20
274.7871
  0
VERTEX
  5
694
  8
Layer_0
  10
101.20032
  20
274.99259
  0
VERTEX
  5
695
  8
Layer_0
  10
101.3586
  20
275.19215
  0
VERTEX
  5
696
  8
Layer_0
  10
101.46217
  20
275.3947
  0
VERTEX
  5
697
  8
Layer_0
  10
101.49617
  20
275.60913
  0
VERTEX
  5
698
  8
Layer_0
  10
101.44577
  20
275.84436
  0
VERTEX
  5
699
  8
Layer_0
  10
101.38427
  20
275.97256
  0
VERTEX
  5
69a
  8
Layer_0
  10
101.29611
  20
276.1093
  0
VERTEX
  5
69b
  8
Layer_0
  10
101.17942
  20
276.2557
  0
VERTEX
  5
69c
  8
Layer_0
  10
101.03235
  20
276.41286
  0
VERTEX
  5
69d
  8
Layer_0
  10
100.86555
  20
276.55597
  0
VERTEX
  5
69e
  8
Layer_0
  10
100.69217
  20
276.66208
  0
VERTEX
  5
69f
  8
Layer_0
  10
100.51413
  20
276.7349
  0
VERTEX
  5
6a0
  8
Layer_0
  10
100.33334
  20
276.77814
  0
VERTEX
  5
6a1
  8
Layer_0
  10
99.971104
  20
276.79071
  0
VERTEX
  5
6a2
  8
Layer_0
  10
99.620748
  20
276.72948
  0
VERTEX
  5
6a3
  8
Layer_0
  10
99.297537
  20
276.62412
  0
VERTEX
  5
6a4
  8
Layer_0
  10
99.016743
  20
276.50434
  0
VERTEX
  5
6a5
  8
Layer_0
  10
98.793633
  20
276.3998
  0
VERTEX
  5
6a6
  8
Layer_0
  10
98.643478
  20
276.34019
  0
VERTEX
  5
6a7
  8
Layer_0
  10
98.570205
  20
276.30612
  0
VERTEX
  5
6a8
  8
Layer_0
  10
98.46109
  20
276.23382
  0
VERTEX
  5
6a9
  8
Layer_0
  10
98.319315
  20
276.12748
  0
VERTEX
  5
6aa
  8
Layer_0
  10
98.14806
  20
275.9913
  0
VERTEX
  5
6ab
  8
Layer_0
  10
97.950508
  20
275.82944
  0
VERTEX
  5
6ac
  8
Layer_0
  10
97.729839
  20
275.64612
  0
VERTEX
  5
6ad
  8
Layer_0
  10
97.489234
  20
275.44551
  0
VERTEX
  5
6ae
  8
Layer_0
  10
97.231875
  20
275.2318
  0
VERTEX
  5
6af
  8
Layer_0
  10
96.679619
  20
274.78185
  0
VERTEX
  5
6b0
  8
Layer_0
  10
96.09852
  20
274.32976
  0
VERTEX
  5
6b1
  8
Layer_0
  10
95.514028
  20
273.90906
  0
VERTEX
  5
6b2
  8
Layer_0
  10
94.951591
  20
273.55324
  0
VERTEX
  5
6b3
  8
Layer_0
  10
94.428602
  20
273.25398
  0
VERTEX
  5
6b4
  8
Layer_0
  10
93.930214
  20
272.98486
  0
VERTEX
  5
6b5
  8
Layer_0
  10
93.433522
  20
272.75222
  0
VERTEX
  5
6b6
  8
Layer_0
  10
92.915623
  20
272.56242
  0
VERTEX
  5
6b7
  8
Layer_0
  10
92.35361
  20
272.42182
  0
VERTEX
  5
6b8
  8
Layer_0
  10
91.724581
  20
272.33677
  0
VERTEX
  5
6b9
  8
Layer_0
  10
91.377777
  20
272.31706
  0
VERTEX
  5
6ba
  8
Layer_0
  10
91.005629
  20
272.31362
  0
VERTEX
  5
6bb
  8
Layer_0
  10
90.605275
  20
272.32725
  0
VERTEX
  5
6bc
  8
Layer_0
  10
90.173851
  20
272.35873
  0
VERTEX
  5
6bd
  8
Layer_0
  10
89.958693
  20
272.38969
  0
VERTEX
  5
6be
  8
Layer_0
  10
89.760673
  20
272.44089
  0
VERTEX
  5
6bf
  8
Layer_0
  10
89.579115
  20
272.51093
  0
VERTEX
  5
6c0
  8
Layer_0
  10
89.413344
  20
272.59843
  0
VERTEX
  5
6c1
  8
Layer_0
  10
89.126458
  20
272.82024
  0
VERTEX
  5
6c2
  8
Layer_0
  10
88.894606
  20
273.09517
  0
VERTEX
  5
6c3
  8
Layer_0
  10
88.71238
  20
273.41209
  0
VERTEX
  5
6c4
  8
Layer_0
  10
88.574372
  20
273.75986
  0
VERTEX
  5
6c5
  8
Layer_0
  10
88.475175
  20
274.12736
  0
VERTEX
  5
6c6
  8
Layer_0
  10
88.409379
  20
274.50345
  0
VERTEX
  5
6c7
  8
Layer_0
  10
88.371577
  20
274.87698
  0
VERTEX
  5
6c8
  8
Layer_0
  10
88.356362
  20
275.23684
  0
VERTEX
  5
6c9
  8
Layer_0
  10
88.358325
  20
275.57188
  0
VERTEX
  5
6ca
  8
Layer_0
  10
88.372058
  20
275.87098
  0
VERTEX
  5
6cb
  8
Layer_0
  10
88.392153
  20
276.12299
  0
VERTEX
  5
6cc
  8
Layer_0
  10
88.413202
  20
276.31678
  0
VERTEX
  5
6cd
  8
Layer_0
  10
88.429797
  20
276.44122
  0
VERTEX
  5
6ce
  8
Layer_0
  10
88.436531
  20
276.48518
  0
VERTEX
  5
6cf
  8
Layer_0
  10
88.431377
  20
277.01225
  0
VERTEX
  5
6d0
  8
Layer_0
  10
88.456802
  20
277.54734
  0
VERTEX
  5
6d1
  8
Layer_0
  10
88.513059
  20
278.08894
  0
VERTEX
  5
6d2
  8
Layer_0
  10
88.600399
  20
278.63551
  0
VERTEX
  5
6d3
  8
Layer_0
  10
88.719076
  20
279.18553
  0
VERTEX
  5
6d4
  8
Layer_0
  10
88.86934
  20
279.73749
  0
VERTEX
  5
6d5
  8
Layer_0
  10
89.051444
  20
280.28986
  0
VERTEX
  5
6d6
  8
Layer_0
  10
89.26564
  20
280.84111
  0
VERTEX
  5
6d7
  8
Layer_0
  10
89.51218
  20
281.38973
  0
VERTEX
  5
6d8
  8
Layer_0
  10
89.791317
  20
281.93419
  0
VERTEX
  5
6d9
  8
Layer_0
  10
90.103303
  20
282.47296
  0
VERTEX
  5
6da
  8
Layer_0
  10
90.448389
  20
283.00453
  0
VERTEX
  5
6db
  8
Layer_0
  10
90.826828
  20
283.52737
  0
VERTEX
  5
6dc
  8
Layer_0
  10
91.238872
  20
284.03997
  0
VERTEX
  5
6dd
  8
Layer_0
  10
91.684772
  20
284.54079
  0
VERTEX
  5
6de
  8
Layer_0
  10
92.164783
  20
285.02831
  0
VERTEX
  5
6df
  8
Layer_0
  10
92.679154
  20
285.50101
  0
VERTEX
  5
6e0
  8
Layer_0
  10
93.228139
  20
285.95738
  0
VERTEX
  5
6e1
  8
Layer_0
  10
93.811989
  20
286.39587
  0
VERTEX
  5
6e2
  8
Layer_0
  10
94.430957
  20
286.81499
  0
VERTEX
  5
6e3
  8
Layer_0
  10
95.085295
  20
287.21319
  0
VERTEX
  5
6e4
  8
Layer_0
  10
95.775255
  20
287.58896
  0
VERTEX
  5
6e5
  8
Layer_0
  10
96.501089
  20
287.94077
  0
VERTEX
  5
6e6
  8
Layer_0
  10
97.263049
  20
288.26711
  0
VERTEX
  5
6e7
  8
Layer_0
  10
98.061388
  20
288.56644
  0
VERTEX
  5
6e8
  8
Layer_0
  10
98.896356
  20
288.83725
  0
VERTEX
  5
6e9
  8
Layer_0
  10
99.768208
  20
289.07801
  0
VERTEX
  5
6ea
  8
Layer_0
  10
100.67719
  20
289.28721
  0
VERTEX
  5
6eb
  8
Layer_0
  10
101.62357
  20
289.46331
  0
VERTEX
  5
6ec
  8
Layer_0
  10
102.60758
  20
289.6048
  0
VERTEX
  5
6ed
  8
Layer_0
  10
103.62948
  20
289.71015
  0
VERTEX
  5
6ee
  8
Layer_0
  10
104.68953
  20
289.77784
  0
VERTEX
  5
6ef
  8
Layer_0
  10
105.80573
  20
289.80086
  0
VERTEX
  5
6f0
  8
Layer_0
  10
106.99278
  20
289.77434
  0
VERTEX
  5
6f1
  8
Layer_0
  10
108.24593
  20
289.69995
  0
VERTEX
  5
6f2
  8
Layer_0
  10
109.56045
  20
289.57939
  0
VERTEX
  5
6f3
  8
Layer_0
  10
110.9316
  20
289.41433
  0
VERTEX
  5
6f4
  8
Layer_0
  10
112.35464
  20
289.20646
  0
VERTEX
  5
6f5
  8
Layer_0
  10
113.82484
  20
288.95745
  0
VERTEX
  5
6f6
  8
Layer_0
  10
115.33746
  20
288.66899
  0
VERTEX
  5
6f7
  8
Layer_0
  10
116.88776
  20
288.34277
  0
VERTEX
  5
6f8
  8
Layer_0
  10
118.47101
  20
287.98046
  0
VERTEX
  5
6f9
  8
Layer_0
  10
120.08246
  20
287.58375
  0
VERTEX
  5
6fa
  8
Layer_0
  10
121.71738
  20
287.15432
  0
VERTEX
  5
6fb
  8
Layer_0
  10
123.37104
  20
286.69386
  0
VERTEX
  5
6fc
  8
Layer_0
  10
125.03869
  20
286.20403
  0
VERTEX
  5
6fd
  8
Layer_0
  10
126.71559
  20
285.68654
  0
VERTEX
  5
6fe
  8
Layer_0
  10
128.39702
  20
285.14305
  0
VERTEX
  5
6ff
  8
Layer_0
  10
131.75449
  20
283.98483
  0
VERTEX
  5
700
  8
Layer_0
  10
135.07318
  20
282.74283
  0
VERTEX
  5
701
  8
Layer_0
  10
136.70615
  20
282.09463
  0
VERTEX
  5
702
  8
Layer_0
  10
138.31522
  20
281.43052
  0
VERTEX
  5
703
  8
Layer_0
  10
139.89564
  20
280.7522
  0
VERTEX
  5
704
  8
Layer_0
  10
141.44269
  20
280.06135
  0
VERTEX
  5
705
  8
Layer_0
  10
142.95162
  20
279.35965
  0
VERTEX
  5
706
  8
Layer_0
  10
144.41769
  20
278.64878
  0
VERTEX
  5
707
  8
Layer_0
  10
145.83618
  20
277.93043
  0
VERTEX
  5
708
  8
Layer_0
  10
147.20234
  20
277.20627
  0
VERTEX
  5
709
  8
Layer_0
  10
148.51143
  20
276.47799
  0
VERTEX
  5
70a
  8
Layer_0
  10
149.75872
  20
275.74727
  0
VERTEX
  5
70b
  8
Layer_0
  10
150.93948
  20
275.0158
  0
VERTEX
  5
70c
  8
Layer_0
  10
152.04895
  20
274.28526
  0
VERTEX
  5
70d
  8
Layer_0
  10
154.01439
  20
272.91487
  0
VERTEX
  5
70e
  8
Layer_0
  10
155.92117
  20
271.52141
  0
VERTEX
  5
70f
  8
Layer_0
  10
157.76255
  20
270.11447
  0
VERTEX
  5
710
  8
Layer_0
  10
159.53179
  20
268.70362
  0
VERTEX
  5
711
  8
Layer_0
  10
161.22213
  20
267.29845
  0
VERTEX
  5
712
  8
Layer_0
  10
162.82685
  20
265.90854
  0
VERTEX
  5
713
  8
Layer_0
  10
163.59498
  20
265.22231
  0
VERTEX
  5
714
  8
Layer_0
  10
164.33918
  20
264.54348
  0
VERTEX
  5
715
  8
Layer_0
  10
165.0586
  20
263.87326
  0
VERTEX
  5
716
  8
Layer_0
  10
165.75239
  20
263.21284
  0
VERTEX
  5
717
  8
Layer_0
  10
166.41971
  20
262.56342
  0
VERTEX
  5
718
  8
Layer_0
  10
167.05973
  20
261.92621
  0
VERTEX
  5
719
  8
Layer_0
  10
167.67159
  20
261.30239
  0
VERTEX
  5
71a
  8
Layer_0
  10
168.25445
  20
260.69316
  0
VERTEX
  5
71b
  8
Layer_0
  10
168.80747
  20
260.09973
  0
VERTEX
  5
71c
  8
Layer_0
  10
169.32981
  20
259.52329
  0
VERTEX
  5
71d
  8
Layer_0
  10
169.82062
  20
258.96504
  0
VERTEX
  5
71e
  8
Layer_0
  10
170.27906
  20
258.42618
  0
VERTEX
  5
71f
  8
Layer_0
  10
170.70429
  20
257.9079
  0
VERTEX
  5
720
  8
Layer_0
  10
171.09547
  20
257.4114
  0
VERTEX
  5
721
  8
Layer_0
  10
171.45174
  20
256.93788
  0
VERTEX
  5
722
  8
Layer_0
  10
171.77227
  20
256.48854
  0
VERTEX
  5
723
  8
Layer_0
  10
172.05622
  20
256.06457
  0
VERTEX
  5
724
  8
Layer_0
  10
172.30274
  20
255.66718
  0
VERTEX
  5
725
  8
Layer_0
  10
172.51098
  20
255.29756
  0
VERTEX
  5
726
  8
Layer_0
  10
172.68011
  20
254.95691
  0
VERTEX
  5
727
  8
Layer_0
  10
172.95718
  20
254.29998
  0
VERTEX
  5
728
  8
Layer_0
  10
173.1932
  20
253.63664
  0
VERTEX
  5
729
  8
Layer_0
  10
173.39138
  20
252.97361
  0
VERTEX
  5
72a
  8
Layer_0
  10
173.55492
  20
252.31762
  0
VERTEX
  5
72b
  8
Layer_0
  10
173.687
  20
251.67542
  0
VERTEX
  5
72c
  8
Layer_0
  10
173.79083
  20
251.05373
  0
VERTEX
  5
72d
  8
Layer_0
  10
173.86961
  20
250.45929
  0
VERTEX
  5
72e
  8
Layer_0
  10
173.92652
  20
249.89883
  0
VERTEX
  5
72f
  8
Layer_0
  10
173.96477
  20
249.37909
  0
VERTEX
  5
730
  8
Layer_0
  10
173.98754
  20
248.9068
  0
VERTEX
  5
731
  8
Layer_0
  10
173.99805
  20
248.48869
  0
VERTEX
  5
732
  8
Layer_0
  10
173.99947
  20
248.1315
  0
VERTEX
  5
733
  8
Layer_0
  10
173.99502
  20
247.84197
  0
VERTEX
  5
734
  8
Layer_0
  10
173.98788
  20
247.62682
  0
VERTEX
  5
735
  8
Layer_0
  10
173.98125
  20
247.4928
  0
VERTEX
  5
736
  8
Layer_0
  10
173.97833
  20
247.44662
  0
VERTEX
  5
737
  8
Layer_0
  10
173.97418
  20
247.01488
  0
VERTEX
  5
738
  8
Layer_0
  10
173.93986
  20
246.58214
  0
VERTEX
  5
739
  8
Layer_0
  10
173.87683
  20
246.14933
  0
VERTEX
  5
73a
  8
Layer_0
  10
173.78655
  20
245.71734
  0
VERTEX
  5
73b
  8
Layer_0
  10
173.53008
  20
244.85953
  0
VERTEX
  5
73c
  8
Layer_0
  10
173.1821
  20
244.01604
  0
VERTEX
  5
73d
  8
Layer_0
  10
172.75426
  20
243.19417
  0
VERTEX
  5
73e
  8
Layer_0
  10
172.25821
  20
242.40125
  0
VERTEX
  5
73f
  8
Layer_0
  10
171.70562
  20
241.6446
  0
VERTEX
  5
740
  8
Layer_0
  10
171.10813
  20
240.93152
  0
VERTEX
  5
741
  8
Layer_0
  10
170.4774
  20
240.26935
  0
VERTEX
  5
742
  8
Layer_0
  10
169.8251
  20
239.66539
  0
VERTEX
  5
743
  8
Layer_0
  10
169.16286
  20
239.12697
  0
VERTEX
  5
744
  8
Layer_0
  10
168.50235
  20
238.6614
  0
VERTEX
  5
745
  8
Layer_0
  10
167.85522
  20
238.276
  0
VERTEX
  5
746
  8
Layer_0
  10
167.23313
  20
237.97808
  0
VERTEX
  5
747
  8
Layer_0
  10
166.93512
  20
237.86422
  0
VERTEX
  5
748
  8
Layer_0
  10
166.64774
  20
237.77497
  0
VERTEX
  5
749
  8
Layer_0
  10
166.37244
  20
237.71125
  0
VERTEX
  5
74a
  8
Layer_0
  10
166.11069
  20
237.67398
  0
VERTEX
  5
74b
  8
Layer_0
  10
165.86282
  20
237.66249
  0
VERTEX
  5
74c
  8
Layer_0
  10
165.62797
  20
237.67451
  0
VERTEX
  5
74d
  8
Layer_0
  10
165.4058
  20
237.70852
  0
VERTEX
  5
74e
  8
Layer_0
  10
165.19599
  20
237.76299
  0
VERTEX
  5
74f
  8
Layer_0
  10
164.81205
  20
237.92729
  0
VERTEX
  5
750
  8
Layer_0
  10
164.47344
  20
238.15526
  0
VERTEX
  5
751
  8
Layer_0
  10
164.17746
  20
238.43477
  0
VERTEX
  5
752
  8
Layer_0
  10
163.9214
  20
238.75366
  0
VERTEX
  5
753
  8
Layer_0
  10
163.70257
  20
239.09981
  0
VERTEX
  5
754
  8
Layer_0
  10
163.51825
  20
239.46106
  0
VERTEX
  5
755
  8
Layer_0
  10
163.36575
  20
239.82528
  0
VERTEX
  5
756
  8
Layer_0
  10
163.24235
  20
240.18033
  0
VERTEX
  5
757
  8
Layer_0
  10
163.14536
  20
240.51407
  0
VERTEX
  5
758
  8
Layer_0
  10
163.07206
  20
240.81435
  0
VERTEX
  5
759
  8
Layer_0
  10
163.01976
  20
241.06904
  0
VERTEX
  5
75a
  8
Layer_0
  10
162.98575
  20
241.26599
  0
VERTEX
  5
75b
  8
Layer_0
  10
162.96733
  20
241.39306
  0
VERTEX
  5
75c
  8
Layer_0
  10
162.96179
  20
241.43812
  0
VERTEX
  5
75d
  8
Layer_0
  10
162.96179
  20
247.33797
  0
VERTEX
  5
75e
  8
Layer_0
  10
162.94526
  20
247.64077
  0
VERTEX
  5
75f
  8
Layer_0
  10
162.89055
  20
247.9211
  0
VERTEX
  5
760
  8
Layer_0
  10
162.79004
  20
248.17343
  0
VERTEX
  5
761
  8
Layer_0
  10
162.63609
  20
248.39225
  0
VERTEX
  5
762
  8
Layer_0
  10
162.42104
  20
248.57204
  0
VERTEX
  5
763
  8
Layer_0
  10
162.13728
  20
248.70729
  0
VERTEX
  5
764
  8
Layer_0
  10
161.96723
  20
248.75649
  0
VERTEX
  5
765
  8
Layer_0
  10
161.77714
  20
248.79248
  0
VERTEX
  5
766
  8
Layer_0
  10
161.56605
  20
248.81458
  0
VERTEX
  5
767
  8
Layer_0
  10
161.33301
  20
248.82211
  0
VERTEX
  5
768
  8
Layer_0
  10
161.10165
  20
248.80706
  0
VERTEX
  5
769
  8
Layer_0
  10
160.8952
  20
248.76455
  0
VERTEX
  5
76a
  8
Layer_0
  10
160.71229
  20
248.69849
  0
VERTEX
  5
76b
  8
Layer_0
  10
160.55154
  20
248.61281
  0
VERTEX
  5
76c
  8
Layer_0
  10
160.29101
  20
248.39828
  0
VERTEX
  5
76d
  8
Layer_0
  10
160.10256
  20
248.15236
  0
VERTEX
  5
76e
  8
Layer_0
  10
159.97519
  20
247.90644
  0
VERTEX
  5
76f
  8
Layer_0
  10
159.89786
  20
247.69191
  0
VERTEX
  5
770
  8
Layer_0
  10
159.85955
  20
247.54017
  0
VERTEX
  5
771
  8
Layer_0
  10
159.84923
  20
247.48261
  0
VERTEX
  5
772
  8
Layer_0
  10
159.84923
  20
191.95976
  0
VERTEX
  5
773
  8
Layer_0
  10
159.82992
  20
191.94091
  0
VERTEX
  5
774
  8
Layer_0
  10
159.77449
  20
191.88702
  0
VERTEX
  5
775
  8
Layer_0
  10
159.68672
  20
191.80205
  0
VERTEX
  5
776
  8
Layer_0
  10
159.57037
  20
191.69
  0
VERTEX
  5
777
  8
Layer_0
  10
159.26699
  20
191.40051
  0
VERTEX
  5
778
  8
Layer_0
  10
158.89448
  20
191.05036
  0
VERTEX
  5
779
  8
Layer_0
  10
158.48296
  20
190.67138
  0
VERTEX
  5
77a
  8
Layer_0
  10
158.06255
  20
190.29536
  0
VERTEX
  5
77b
  8
Layer_0
  10
157.66338
  20
189.95412
  0
VERTEX
  5
77c
  8
Layer_0
  10
157.31558
  20
189.67948
  0
VERTEX
  5
77d
  8
Layer_0
  10
157.03858
  20
189.42427
  0
VERTEX
  5
77e
  8
Layer_0
  10
156.83707
  20
189.1309
  0
VERTEX
  5
77f
  8
Layer_0
  10
156.71871
  20
188.81546
  0
VERTEX
  5
780
  8
Layer_0
  10
156.69111
  20
188.4941
  0
VERTEX
  5
781
  8
Layer_0
  10
156.71374
  20
188.33622
  0
VERTEX
  5
782
  8
Layer_0
  10
156.76193
  20
188.18291
  0
VERTEX
  5
783
  8
Layer_0
  10
156.83663
  20
188.03617
  0
VERTEX
  5
784
  8
Layer_0
  10
156.93879
  20
187.89802
  0
VERTEX
  5
785
  8
Layer_0
  10
157.06937
  20
187.77047
  0
VERTEX
  5
786
  8
Layer_0
  10
157.22933
  20
187.65555
  0
VERTEX
  5
787
  8
Layer_0
  10
157.41962
  20
187.55526
  0
VERTEX
  5
788
  8
Layer_0
  10
157.64119
  20
187.47162
  0
VERTEX
  5
789
  8
Layer_0
  10
157.89057
  20
187.41745
  0
VERTEX
  5
78a
  8
Layer_0
  10
158.16184
  20
187.40304
  0
VERTEX
  5
78b
  8
Layer_0
  10
158.45231
  20
187.4266
  0
VERTEX
  5
78c
  8
Layer_0
  10
158.75926
  20
187.48632
  0
VERTEX
  5
78d
  8
Layer_0
  10
159.08
  20
187.58039
  0
VERTEX
  5
78e
  8
Layer_0
  10
159.41182
  20
187.70701
  0
VERTEX
  5
78f
  8
Layer_0
  10
159.75202
  20
187.86439
  0
VERTEX
  5
790
  8
Layer_0
  10
160.09789
  20
188.05072
  0
VERTEX
  5
791
  8
Layer_0
  10
160.79585
  20
188.50301
  0
VERTEX
  5
792
  8
Layer_0
  10
161.48408
  20
189.04946
  0
VERTEX
  5
793
  8
Layer_0
  10
162.14095
  20
189.67566
  0
VERTEX
  5
794
  8
Layer_0
  10
162.74483
  20
190.36718
  0
VERTEX
  5
795
  8
Layer_0
  10
163.03781
  20
190.70608
  0
VERTEX
  5
796
  8
Layer_0
  10
163.34378
  20
191.00505
  0
VERTEX
  5
797
  8
Layer_0
  10
163.65834
  20
191.26659
  0
VERTEX
  5
798
  8
Layer_0
  10
163.97709
  20
191.49319
  0
VERTEX
  5
799
  8
Layer_0
  10
164.29562
  20
191.68734
  0
VERTEX
  5
79a
  8
Layer_0
  10
164.60954
  20
191.85153
  0
VERTEX
  5
79b
  8
Layer_0
  10
164.91445
  20
191.98826
  0
VERTEX
  5
79c
  8
Layer_0
  10
165.20594
  20
192.10002
  0
VERTEX
  5
79d
  8
Layer_0
  10
165.47962
  20
192.18929
  0
VERTEX
  5
79e
  8
Layer_0
  10
165.73109
  20
192.25858
  0
VERTEX
  5
79f
  8
Layer_0
  10
165.95594
  20
192.31037
  0
VERTEX
  5
7a0
  8
Layer_0
  10
166.14977
  20
192.34716
  0
VERTEX
  5
7a1
  8
Layer_0
  10
166.30819
  20
192.37144
  0
VERTEX
  5
7a2
  8
Layer_0
  10
166.4268
  20
192.38569
  0
VERTEX
  5
7a3
  8
Layer_0
  10
166.50119
  20
192.39241
  0
VERTEX
  5
7a4
  8
Layer_0
  10
166.52696
  20
192.3941
  0
VERTEX
  5
7a5
  8
Layer_0
  10
166.75433
  20
192.38486
  0
VERTEX
  5
7a6
  8
Layer_0
  10
166.99889
  20
192.35409
  0
VERTEX
  5
7a7
  8
Layer_0
  10
167.25574
  20
192.29723
  0
VERTEX
  5
7a8
  8
Layer_0
  10
167.52002
  20
192.20973
  0
VERTEX
  5
7a9
  8
Layer_0
  10
167.78685
  20
192.08703
  0
VERTEX
  5
7aa
  8
Layer_0
  10
168.05135
  20
191.92456
  0
VERTEX
  5
7ab
  8
Layer_0
  10
168.30864
  20
191.71776
  0
VERTEX
  5
7ac
  8
Layer_0
  10
168.55384
  20
191.46209
  0
VERTEX
  5
7ad
  8
Layer_0
  10
168.78207
  20
191.15296
  0
VERTEX
  5
7ae
  8
Layer_0
  10
168.98846
  20
190.78584
  0
VERTEX
  5
7af
  8
Layer_0
  10
169.16812
  20
190.35615
  0
VERTEX
  5
7b0
  8
Layer_0
  10
169.31619
  20
189.85934
  0
VERTEX
  5
7b1
  8
Layer_0
  10
169.42777
  20
189.29084
  0
VERTEX
  5
7b2
  8
Layer_0
  10
169.498
  20
188.6461
  0
VERTEX
  5
7b3
  8
Layer_0
  10
169.52199
  20
187.92057
  0
VERTEX
  5
7b4
  8
Layer_0
  10
169.49487
  20
187.10967
  0
VERTEX
  5
7b5
  8
Layer_0
  10
169.39189
  20
186.00974
  0
VERTEX
  5
7b6
  8
Layer_0
  10
169.22905
  20
184.97561
  0
VERTEX
  5
7b7
  8
Layer_0
  10
169.0096
  20
184.00521
  0
VERTEX
  5
7b8
  8
Layer_0
  10
168.73678
  20
183.09644
  0
VERTEX
  5
7b9
  8
Layer_0
  10
168.41386
  20
182.24724
  0
VERTEX
  5
7ba
  8
Layer_0
  10
168.04407
  20
181.45551
  0
VERTEX
  5
7bb
  8
Layer_0
  10
167.63067
  20
180.71918
  0
VERTEX
  5
7bc
  8
Layer_0
  10
167.17691
  20
180.03616
  0
VERTEX
  5
7bd
  8
Layer_0
  10
166.68604
  20
179.40438
  0
VERTEX
  5
7be
  8
Layer_0
  10
166.16131
  20
178.82174
  0
VERTEX
  5
7bf
  8
Layer_0
  10
165.60596
  20
178.28617
  0
VERTEX
  5
7c0
  8
Layer_0
  10
165.02326
  20
177.79558
  0
VERTEX
  5
7c1
  8
Layer_0
  10
164.41644
  20
177.34789
  0
VERTEX
  5
7c2
  8
Layer_0
  10
163.78876
  20
176.94103
  0
VERTEX
  5
7c3
  8
Layer_0
  10
163.14347
  20
176.57291
  0
VERTEX
  5
7c4
  8
Layer_0
  10
162.48382
  20
176.24144
  0
VERTEX
  5
7c5
  8
Layer_0
  10
161.81305
  20
175.94454
  0
VERTEX
  5
7c6
  8
Layer_0
  10
161.13443
  20
175.68014
  0
VERTEX
  5
7c7
  8
Layer_0
  10
160.45119
  20
175.44615
  0
VERTEX
  5
7c8
  8
Layer_0
  10
159.7666
  20
175.24048
  0
VERTEX
  5
7c9
  8
Layer_0
  10
158.40631
  20
174.90581
  0
VERTEX
  5
7ca
  8
Layer_0
  10
157.07959
  20
174.65947
  0
VERTEX
  5
7cb
  8
Layer_0
  10
156.43693
  20
174.56422
  0
VERTEX
  5
7cc
  8
Layer_0
  10
155.81242
  20
174.4848
  0
VERTEX
  5
7cd
  8
Layer_0
  10
155.20929
  20
174.41914
  0
VERTEX
  5
7ce
  8
Layer_0
  10
154.6308
  20
174.36515
  0
VERTEX
  5
7cf
  8
Layer_0
  10
154.08019
  20
174.32075
  0
VERTEX
  5
7d0
  8
Layer_0
  10
153.56073
  20
174.28385
  0
VERTEX
  5
7d1
  8
Layer_0
  10
153.07566
  20
174.25239
  0
VERTEX
  5
7d2
  8
Layer_0
  10
152.62822
  20
174.22426
  0
VERTEX
  5
7d3
  8
Layer_0
  10
152.15758
  20
174.20415
  0
VERTEX
  5
7d4
  8
Layer_0
  10
151.60244
  20
174.19911
  0
VERTEX
  5
7d5
  8
Layer_0
  10
150.96521
  20
174.21064
  0
VERTEX
  5
7d6
  8
Layer_0
  10
150.24836
  20
174.24024
  0
VERTEX
  5
7d7
  8
Layer_0
  10
149.45431
  20
174.2894
  0
VERTEX
  5
7d8
  8
Layer_0
  10
148.5855
  20
174.35962
  0
VERTEX
  5
7d9
  8
Layer_0
  10
147.64438
  20
174.4524
  0
VERTEX
  5
7da
  8
Layer_0
  10
146.63337
  20
174.56924
  0
VERTEX
  5
7db
  8
Layer_0
  10
145.55493
  20
174.71164
  0
VERTEX
  5
7dc
  8
Layer_0
  10
144.41148
  20
174.88109
  0
VERTEX
  5
7dd
  8
Layer_0
  10
143.20547
  20
175.07909
  0
VERTEX
  5
7de
  8
Layer_0
  10
141.93934
  20
175.30714
  0
VERTEX
  5
7df
  8
Layer_0
  10
140.61552
  20
175.56673
  0
VERTEX
  5
7e0
  8
Layer_0
  10
139.23646
  20
175.85938
  0
VERTEX
  5
7e1
  8
Layer_0
  10
137.80459
  20
176.18656
  0
VERTEX
  5
7e2
  8
Layer_0
  10
136.32235
  20
176.54978
  0
VERTEX
  5
7e3
  8
Layer_0
  10
134.79218
  20
176.95054
  0
VERTEX
  5
7e4
  8
Layer_0
  10
133.21652
  20
177.39034
  0
VERTEX
  5
7e5
  8
Layer_0
  10
131.59781
  20
177.87067
  0
VERTEX
  5
7e6
  8
Layer_0
  10
129.93849
  20
178.39303
  0
VERTEX
  5
7e7
  8
Layer_0
  10
128.24099
  20
178.95893
  0
VERTEX
  5
7e8
  8
Layer_0
  10
126.50775
  20
179.56985
  0
VERTEX
  5
7e9
  8
Layer_0
  10
124.74122
  20
180.22729
  0
VERTEX
  5
7ea
  8
Layer_0
  10
122.94383
  20
180.93276
  0
VERTEX
  5
7eb
  8
Layer_0
  10
121.11803
  20
181.68774
  0
VERTEX
  5
7ec
  8
Layer_0
  10
119.26624
  20
182.49375
  0
VERTEX
  5
7ed
  8
Layer_0
  10
117.39091
  20
183.35227
  0
VERTEX
  5
7ee
  8
Layer_0
  10
115.49447
  20
184.2648
  0
VERTEX
  5
7ef
  8
Layer_0
  10
113.57938
  20
185.23285
  0
VERTEX
  5
7f0
  8
Layer_0
  10
111.64805
  20
186.25791
  0
VERTEX
  5
7f1
  8
Layer_0
  10
109.70295
  20
187.34147
  0
VERTEX
  5
7f2
  8
Layer_0
  10
107.74649
  20
188.48504
  0
VERTEX
  5
7f3
  8
Layer_0
  10
106.77931
  20
189.06888
  0
VERTEX
  5
7f4
  8
Layer_0
  10
105.83881
  20
189.64635
  0
VERTEX
  5
7f5
  8
Layer_0
  10
104.92464
  20
190.2175
  0
VERTEX
  5
7f6
  8
Layer_0
  10
104.0364
  20
190.78238
  0
VERTEX
  5
7f7
  8
Layer_0
  10
103.17373
  20
191.34105
  0
VERTEX
  5
7f8
  8
Layer_0
  10
102.33625
  20
191.89354
  0
VERTEX
  5
7f9
  8
Layer_0
  10
101.52358
  20
192.43991
  0
VERTEX
  5
7fa
  8
Layer_0
  10
100.73536
  20
192.98021
  0
VERTEX
  5
7fb
  8
Layer_0
  10
99.230722
  20
194.04278
  0
VERTEX
  5
7fc
  8
Layer_0
  10
97.819343
  20
195.08164
  0
VERTEX
  5
7fd
  8
Layer_0
  10
96.498217
  20
196.09719
  0
VERTEX
  5
7fe
  8
Layer_0
  10
95.264342
  20
197.08982
  0
VERTEX
  5
7ff
  8
Layer_0
  10
94.114716
  20
198.05991
  0
VERTEX
  5
800
  8
Layer_0
  10
93.046336
  20
199.00786
  0
VERTEX
  5
801
  8
Layer_0
  10
92.056199
  20
199.93405
  0
VERTEX
  5
802
  8
Layer_0
  10
91.141305
  20
200.83889
  0
VERTEX
  5
803
  8
Layer_0
  10
90.29865
  20
201.72276
  0
VERTEX
  5
804
  8
Layer_0
  10
89.525233
  20
202.58605
  0
VERTEX
  5
805
  8
Layer_0
  10
88.81805
  20
203.42915
  0
VERTEX
  5
806
  8
Layer_0
  10
88.174101
  20
204.25245
  0
VERTEX
  5
807
  8
Layer_0
  10
87.590382
  20
205.05635
  0
VERTEX
  5
808
  8
Layer_0
  10
87.063891
  20
205.84124
  0
VERTEX
  5
809
  8
Layer_0
  10
86.591626
  20
206.6075
  0
VERTEX
  5
80a
  8
Layer_0
  10
86.170586
  20
207.35553
  0
VERTEX
  5
80b
  8
Layer_0
  10
85.797766
  20
208.08572
  0
VERTEX
  5
80c
  8
Layer_0
  10
85.470167
  20
208.79846
  0
VERTEX
  5
80d
  8
Layer_0
  10
85.184784
  20
209.49414
  0
VERTEX
  5
80e
  8
Layer_0
  10
84.938616
  20
210.17315
  0
VERTEX
  5
80f
  8
Layer_0
  10
84.72866
  20
210.83588
  0
VERTEX
  5
810
  8
Layer_0
  10
84.551915
  20
211.48273
  0
VERTEX
  5
811
  8
Layer_0
  10
84.405378
  20
212.11408
  0
VERTEX
  5
812
  8
Layer_0
  10
84.286047
  20
212.73033
  0
VERTEX
  5
813
  8
Layer_0
  10
84.116994
  20
213.91908
  0
VERTEX
  5
814
  8
Layer_0
  10
84.020737
  20
215.0521
  0
VERTEX
  5
815
  8
Layer_0
  10
84.000521
  20
215.60171
  0
VERTEX
  5
816
  8
Layer_0
  10
84.007048
  20
216.14389
  0
VERTEX
  5
817
  8
Layer_0
  10
84.039276
  20
216.67799
  0
VERTEX
  5
818
  8
Layer_0
  10
84.096165
  20
217.20338
  0
VERTEX
  5
819
  8
Layer_0
  10
84.279765
  20
218.22543
  0
VERTEX
  5
81a
  8
Layer_0
  10
84.549521
  20
219.20489
  0
VERTEX
  5
81b
  8
Layer_0
  10
84.897111
  20
220.13661
  0
VERTEX
  5
81c
  8
Layer_0
  10
85.31421
  20
221.01545
  0
VERTEX
  5
81d
  8
Layer_0
  10
85.792494
  20
221.83627
  0
VERTEX
  5
81e
  8
Layer_0
  10
86.323639
  20
222.59392
  0
VERTEX
  5
81f
  8
Layer_0
  10
86.89932
  20
223.28325
  0
VERTEX
  5
820
  8
Layer_0
  10
87.511213
  20
223.89912
  0
VERTEX
  5
821
  8
Layer_0
  10
88.150995
  20
224.43638
  0
VERTEX
  5
822
  8
Layer_0
  10
88.81034
  20
224.88989
  0
VERTEX
  5
823
  8
Layer_0
  10
89.480925
  20
225.2545
  0
VERTEX
  5
824
  8
Layer_0
  10
90.154425
  20
225.52507
  0
VERTEX
  5
825
  8
Layer_0
  10
90.489667
  20
225.62348
  0
VERTEX
  5
826
  8
Layer_0
  10
90.822517
  20
225.69645
  0
VERTEX
  5
827
  8
Layer_0
  10
91.151933
  20
225.74333
  0
VERTEX
  5
828
  8
Layer_0
  10
91.476875
  20
225.76349
  0
VERTEX
  5
829
  8
Layer_0
  10
92.08133
  20
225.74382
  0
VERTEX
  5
82a
  8
Layer_0
  10
92.608746
  20
225.664
  0
VERTEX
  5
82b
  8
Layer_0
  10
93.064373
  20
225.5325
  0
VERTEX
  5
82c
  8
Layer_0
  10
93.45346
  20
225.3578
  0
VERTEX
  5
82d
  8
Layer_0
  10
93.781257
  20
225.14837
  0
VERTEX
  5
82e
  8
Layer_0
  10
94.053011
  20
224.91269
  0
VERTEX
  5
82f
  8
Layer_0
  10
94.273972
  20
224.65924
  0
VERTEX
  5
830
  8
Layer_0
  10
94.449389
  20
224.39648
  0
VERTEX
  5
831
  8
Layer_0
  10
94.58451
  20
224.13289
  0
VERTEX
  5
832
  8
Layer_0
  10
94.684586
  20
223.87696
  0
VERTEX
  5
833
  8
Layer_0
  10
94.754864
  20
223.63714
  0
VERTEX
  5
834
  8
Layer_0
  10
94.800594
  20
223.42193
  0
VERTEX
  5
835
  8
Layer_0
  10
94.827024
  20
223.23979
  0
VERTEX
  5
836
  8
Layer_0
  10
94.839404
  20
223.09919
  0
VERTEX
  5
837
  8
Layer_0
  10
94.842983
  20
223.00862
  0
VERTEX
  5
838
  8
Layer_0
  10
94.84301
  20
222.97655
  0
VERTEX
  5
839
  8
Layer_0
  10
94.84301
  20
217.76461
  0
VERTEX
  5
83a
  8
Layer_0
  10
94.862105
  20
217.29703
  0
VERTEX
  5
83b
  8
Layer_0
  10
94.916069
  20
216.89537
  0
VERTEX
  5
83c
  8
Layer_0
  10
94.99992
  20
216.5547
  0
VERTEX
  5
83d
  8
Layer_0
  10
95.108679
  20
216.27008
  0
VERTEX
  5
83e
  8
Layer_0
  10
95.237362
  20
216.03657
  0
VERTEX
  5
83f
  8
Layer_0
  10
95.380989
  20
215.84925
  0
VERTEX
  5
840
  8
Layer_0
  10
95.534579
  20
215.70319
  0
VERTEX
  5
841
  8
Layer_0
  10
95.69315
  20
215.59344
  0
VERTEX
  5
842
  8
Layer_0
  10
96.00531
  20
215.46317
  0
VERTEX
  5
843
  8
Layer_0
  10
96.277621
  20
215.41898
  0
VERTEX
  5
844
  8
Layer_0
  10
96.386379
  20
215.41683
  0
VERTEX
  5
845
  8
Layer_0
  10
96.47023
  20
215.42141
  0
VERTEX
  5
846
  8
Layer_0
  10
96.524194
  20
215.42777
  0
VERTEX
  5
847
  8
Layer_0
  10
96.543289
  20
215.43098
  0
VERTEX
  5
848
  8
Layer_0
  10
96.787608
  20
215.44836
  0
VERTEX
  5
849
  8
Layer_0
  10
96.999843
  20
215.51586
  0
VERTEX
  5
84a
  8
Layer_0
  10
97.182247
  20
215.62643
  0
VERTEX
  5
84b
  8
Layer_0
  10
97.33707
  20
215.77299
  0
VERTEX
  5
84c
  8
Layer_0
  10
97.466567
  20
215.94847
  0
VERTEX
  5
84d
  8
Layer_0
  10
97.572988
  20
216.14579
  0
VERTEX
  5
84e
  8
Layer_0
  10
97.658585
  20
216.35789
  0
VERTEX
  5
84f
  8
Layer_0
  10
97.725611
  20
216.57769
  0
VERTEX
  5
850
  8
Layer_0
  10
97.812956
  20
217.0121
  0
VERTEX
  5
851
  8
Layer_0
  10
97.85304
  20
217.39244
  0
VERTEX
  5
852
  8
Layer_0
  10
97.860989
  20
217.54466
  0
VERTEX
  5
853
  8
Layer_0
  10
97.863878
  20
217.66214
  0
VERTEX
  5
854
  8
Layer_0
  10
97.86396
  20
217.73781
  0
VERTEX
  5
855
  8
Layer_0
  10
97.863487
  20
217.76461
  0
VERTEX
  5
856
  8
Layer_0
  10
97.863487
  20
272.13049
  0
VERTEX
  5
857
  8
Layer_0
  10
97.88947
  20
272.15109
  0
VERTEX
  5
858
  8
Layer_0
  10
97.963525
  20
272.20993
  0
VERTEX
  5
859
  8
Layer_0
  10
98.079816
  20
272.3026
  0
VERTEX
  5
85a
  8
Layer_0
  10
98.232506
  20
272.42464
  0
VERTEX
  5
85b
  8
Layer_0
  10
98.623729
  20
272.73912
  0
VERTEX
  5
85c
  8
Layer_0
  10
99.090494
  20
273.11791
  0
VERTEX
  5
85d
  8
Layer_0
  10
99.586102
  20
273.52554
  0
VERTEX
  5
85e
  8
Layer_0
  10
100.06385
  20
273.92654
  0
VERTEX
  5
85f
  8
Layer_0
  10
100.28144
  20
274.11347
  0
VERTEX
  5
860
  8
Layer_0
  10
100.47705
  20
274.28544
  0
VERTEX
  5
861
  8
Layer_0
  10
100.64484
  20
274.43802
  0
VERTEX
  5
862
  8
Layer_0
  10
100.77898
  20
274.56677
  0
SEQEND
  0
POLYLINE
  5
864
  8
Layer_0
  62
0
  66
1
  10
0
  20
0
  30
0
  0
VERTEX
  5
864
  8
Layer_0
  10
53.432079
  20
244.50555
  0
VERTEX
  5
865
  8
Layer_0
  10
54.695301
  20
251.66964
  0
VERTEX
  5
866
  8
Layer_0
  10
47.859402
  20
249.18158
  0
VERTEX
  5
867
  8
Layer_0
  10
53.432079
  20
244.50555
  0
SEQEND
  0
POLYLINE
  5
869
  8
Layer_0
  62
0
  66
1
  10
0
  20
0
  30
0
  0
VERTEX
  5
869
  8
Layer_0
  10
55.553677
  20
195.48394
  0
VERTEX
  5
86a
  8
Layer_0
  10
56.816898
  20
202.64804
  0
VERTEX
  5
86b
  8
Layer_0
  10
49.980999
  20
200.15997
  0
VERTEX
  5
86c
  8
Layer_0
  10
55.553677
  20
195.48394
  0
SEQEND
  0
POLYLINE
  5
86e
  8
Layer_0
  62
0
  66
1
  10
0
  20
0
  30
0
  0
VERTEX
  5
86e
  8
Layer_0
  10
34.893784
  20
233.41703
  0
VERTEX
  5
86f
  8
Layer_0
  10
36.157005
  20
240.58112
  0
VERTEX
  5
870
  8
Layer_0
  10
29.321106
  20
238.09306
  0
VERTEX
  5
871
  8
Layer_0
  10
34.893784
  20
233.41703
  0
SEQEND
  0
POLYLINE
  5
873
  8
Layer_0
  62
0
  66
1
  10
0
  20
0
  30
0
  0
VERTEX
  5
873
  8
Layer_0
  10
71.480118
  20
251.09113
  0
VERTEX
  5
874
  8
Layer_0
  10
65.90744
  20
255.76716
  0
VERTEX
  5
875
  8
Layer_0
  10
72.74334
  20
258.25523
  0
VERTEX
  5
876
  8
Layer_0
  10
71.480118
  20
251.09113
  0
SEQEND
  0
POLYLINE
  5
878
  8
Layer_0
  62
0
  66
1
  10
0
  20
0
  30
0
  0
VERTEX
  5
878
  8
Layer_0
  10
29.388229
  20
203.76714
  0
VERTEX
  5
879
  8
Layer_0
  10
23.815552
  20
208.44316
  0
VERTEX
  5
87a
  8
Layer_0
  10
30.651453
  20
210.93123
  0
VERTEX
  5
87b
  8
Layer_0
  10
29.388229
  20
203.76714
  0
SEQEND
  0
POLYLINE
  5
87d
  8
Layer_0
  62
0
  66
1
  10
0
  20
0
  30
0
  0
VERTEX
  5
87d
  8
Layer_0
  10
41.937225
  20
262.69489
  0
VERTEX
  5
87e
  8
Layer_0
  10
36.364548
  20
267.37092
  0
VERTEX
  5
87f
  8
Layer_0
  10
43.200447
  20
269.85899
  0
VERTEX
  5
880
  8
Layer_0
  10
41.937225
  20
262.69489
  0
SEQEND
  0
POLYLINE
  5
882
  8
Layer_0
  62
0
  66
1
  10
0
  20
0
  30
0
  0
VERTEX
  5
882
  8
Layer_0
  10
59.472721
  20
220.21506
  0
VERTEX
  5
883
  8
Layer_0
  10
60.735943
  20
227.37915
  0
VERTEX
  5
884
  8
Layer_0
  10
53.900043
  20
224.89108
  0
VERTEX
  5
885
  8
Layer_0
  10
59.472721
  20
220.21506
  0
SEQEND
  0
POLYLINE
  5
887
  8
Layer_0
  62
0
  66
1
  10
0
  20
0
  30
0
  0
VERTEX
  5
887
  8
Layer_0
  10
20.778988
  20
274.56677
  0
VERTEX
  5
888
  8
Layer_0
  10
21.002167
  20
274.7871
  0
VERTEX
  5
889
  8
Layer_0
  10
21.20032
  20
274.99259
  0
VERTEX
  5
88a
  8
Layer_0
  10
21.358602
  20
275.19215
  0
VERTEX
  5
88b
  8
Layer_0
  10
21.462168
  20
275.3947
  0
VERTEX
  5
88c
  8
Layer_0
  10
21.496171
  20
275.60913
  0
VERTEX
  5
88d
  8
Layer_0
  10
21.445767
  20
275.84436
  0
VERTEX
  5
88e
  8
Layer_0
  10
21.384272
  20
275.97256
  0
VERTEX
  5
88f
  8
Layer_0
  10
21.296109
  20
276.1093
  0
VERTEX
  5
890
  8
Layer_0
  10
21.179421
  20
276.2557
  0
VERTEX
  5
891
  8
Layer_0
  10
21.032352
  20
276.41286
  0
VERTEX
  5
892
  8
Layer_0
  10
20.865551
  20
276.55597
  0
VERTEX
  5
893
  8
Layer_0
  10
20.692176
  20
276.66208
  0
VERTEX
  5
894
  8
Layer_0
  10
20.514134
  20
276.7349
  0
VERTEX
  5
895
  8
Layer_0
  10
20.333336
  20
276.77814
  0
VERTEX
  5
896
  8
Layer_0
  10
19.971103
  20
276.79071
  0
VERTEX
  5
897
  8
Layer_0
  10
19.620747
  20
276.72948
  0
VERTEX
  5
898
  8
Layer_0
  10
19.297537
  20
276.62412
  0
VERTEX
  5
899
  8
Layer_0
  10
19.016743
  20
276.50434
  0
VERTEX
  5
89a
  8
Layer_0
  10
18.793635
  20
276.3998
  0
VERTEX
  5
89b
  8
Layer_0
  10
18.643482
  20
276.34019
  0
VERTEX
  5
89c
  8
Layer_0
  10
18.570208
  20
276.30612
  0
VERTEX
  5
89d
  8
Layer_0
  10
18.461093
  20
276.23382
  0
VERTEX
  5
89e
  8
Layer_0
  10
18.319318
  20
276.12748
  0
VERTEX
  5
89f
  8
Layer_0
  10
18.148063
  20
275.9913
  0
VERTEX
  5
8a0
  8
Layer_0
  10
17.95051
  20
275.82944
  0
VERTEX
  5
8a1
  8
Layer_0
  10
17.729841
  20
275.64612
  0
VERTEX
  5
8a2
  8
Layer_0
  10
17.489236
  20
275.44551
  0
VERTEX
  5
8a3
  8
Layer_0
  10
17.231877
  20
275.2318
  0
VERTEX
  5
8a4
  8
Layer_0
  10
16.679621
  20
274.78185
  0
VERTEX
  5
8a5
  8
Layer_0
  10
16.098521
  20
274.32976
  0
VERTEX
  5
8a6
  8
Layer_0
  10
15.514029
  20
273.90906
  0
VERTEX
  5
8a7
  8
Layer_0
  10
14.951592
  20
273.55324
  0
VERTEX
  5
8a8
  8
Layer_0
  10
14.428603
  20
273.25398
  0
VERTEX
  5
8a9
  8
Layer_0
  10
13.930214
  20
272.98486
  0
VERTEX
  5
8aa
  8
Layer_0
  10
13.433523
  20
272.75222
  0
VERTEX
  5
8ab
  8
Layer_0
  10
12.915623
  20
272.56242
  0
VERTEX
  5
8ac
  8
Layer_0
  10
12.353611
  20
272.42182
  0
VERTEX
  5
8ad
  8
Layer_0
  10
11.724582
  20
272.33677
  0
VERTEX
  5
8ae
  8
Layer_0
  10
11.377778
  20
272.31706
  0
VERTEX
  5
8af
  8
Layer_0
  10
11.00563
  20
272.31362
  0
VERTEX
  5
8b0
  8
Layer_0
  10
10.605276
  20
272.32725
  0
VERTEX
  5
8b1
  8
Layer_0
  10
10.173852
  20
272.35873
  0
VERTEX
  5
8b2
  8
Layer_0
  10
9.9586933
  20
272.38969
  0
VERTEX
  5
8b3
  8
Layer_0
  10
9.7606732
  20
272.44089
  0
VERTEX
  5
8b4
  8
Layer_0
  10
9.5791155
  20
272.51093
  0
VERTEX
  5
8b5
  8
Layer_0
  10
9.4133445
  20
272.59843
  0
VERTEX
  5
8b6
  8
Layer_0
  10
9.1264578
  20
272.82024
  0
VERTEX
  5
8b7
  8
Layer_0
  10
8.8946053
  20
273.09517
  0
VERTEX
  5
8b8
  8
Layer_0
  10
8.7123789
  20
273.41209
  0
VERTEX
  5
8b9
  8
Layer_0
  10
8.5743707
  20
273.75986
  0
VERTEX
  5
8ba
  8
Layer_0
  10
8.4751726
  20
274.12736
  0
VERTEX
  5
8bb
  8
Layer_0
  10
8.4093766
  20
274.50345
  0
VERTEX
  5
8bc
  8
Layer_0
  10
8.3715748
  20
274.87698
  0
VERTEX
  5
8bd
  8
Layer_0
  10
8.3563591
  20
275.23684
  0
VERTEX
  5
8be
  8
Layer_0
  10
8.3583216
  20
275.57188
  0
VERTEX
  5
8bf
  8
Layer_0
  10
8.3720544
  20
275.87098
  0
VERTEX
  5
8c0
  8
Layer_0
  10
8.3921493
  20
276.12299
  0
VERTEX
  5
8c1
  8
Layer_0
  10
8.4131984
  20
276.31678
  0
VERTEX
  5
8c2
  8
Layer_0
  10
8.4297937
  20
276.44122
  0
VERTEX
  5
8c3
  8
Layer_0
  10
8.4365273
  20
276.48518
  0
VERTEX
  5
8c4
  8
Layer_0
  10
8.4313732
  20
277.01225
  0
VERTEX
  5
8c5
  8
Layer_0
  10
8.4567986
  20
277.54734
  0
VERTEX
  5
8c6
  8
Layer_0
  10
8.5130554
  20
278.08894
  0
VERTEX
  5
8c7
  8
Layer_0
  10
8.6003959
  20
278.63551
  0
VERTEX
  5
8c8
  8
Layer_0
  10
8.7190721
  20
279.18553
  0
VERTEX
  5
8c9
  8
Layer_0
  10
8.8693363
  20
279.73749
  0
VERTEX
  5
8ca
  8
Layer_0
  10
9.0514404
  20
280.28986
  0
VERTEX
  5
8cb
  8
Layer_0
  10
9.2656367
  20
280.84111
  0
VERTEX
  5
8cc
  8
Layer_0
  10
9.5121772
  20
281.38973
  0
VERTEX
  5
8cd
  8
Layer_0
  10
9.7913142
  20
281.93419
  0
VERTEX
  5
8ce
  8
Layer_0
  10
10.1033
  20
282.47296
  0
VERTEX
  5
8cf
  8
Layer_0
  10
10.448386
  20
283.00453
  0
VERTEX
  5
8d0
  8
Layer_0
  10
10.826825
  20
283.52737
  0
VERTEX
  5
8d1
  8
Layer_0
  10
11.238869
  20
284.03997
  0
VERTEX
  5
8d2
  8
Layer_0
  10
11.68477
  20
284.54079
  0
VERTEX
  5
8d3
  8
Layer_0
  10
12.16478
  20
285.02831
  0
VERTEX
  5
8d4
  8
Layer_0
  10
12.679151
  20
285.50101
  0
VERTEX
  5
8d5
  8
Layer_0
  10
13.228136
  20
285.95738
  0
VERTEX
  5
8d6
  8
Layer_0
  10
13.811987
  20
286.39587
  0
VERTEX
  5
8d7
  8
Layer_0
  10
14.430955
  20
286.81499
  0
VERTEX
  5
8d8
  8
Layer_0
  10
15.085293
  20
287.21319
  0
VERTEX
  5
8d9
  8
Layer_0
  10
15.775253
  20
287.58896
  0
VERTEX
  5
8da
  8
Layer_0
  10
16.501087
  20
287.94077
  0
VERTEX
  5
8db
  8
Layer_0
  10
17.263047
  20
288.26711
  0
VERTEX
  5
8dc
  8
Layer_0
  10
18.061386
  20
288.56644
  0
VERTEX
  5
8dd
  8
Layer_0
  10
18.896355
  20
288.83725
  0
VERTEX
  5
8de
  8
Layer_0
  10
19.768207
  20
289.07801
  0
VERTEX
  5
8df
  8
Layer_0
  10
20.677193
  20
289.28721
  0
VERTEX
  5
8e0
  8
Layer_0
  10
21.623567
  20
289.46331
  0
VERTEX
  5
8e1
  8
Layer_0
  10
22.607579
  20
289.6048
  0
VERTEX
  5
8e2
  8
Layer_0
  10
23.629483
  20
289.71015
  0
VERTEX
  5
8e3
  8
Layer_0
  10
24.689529
  20
289.77784
  0
VERTEX
  5
8e4
  8
Layer_0
  10
25.805732
  20
289.80086
  0
VERTEX
  5
8e5
  8
Layer_0
  10
26.992778
  20
289.77434
  0
VERTEX
  5
8e6
  8
Layer_0
  10
28.245929
  20
289.69995
  0
VERTEX
  5
8e7
  8
Layer_0
  10
29.560449
  20
289.57939
  0
VERTEX
  5
8e8
  8
Layer_0
  10
30.9316
  20
289.41433
  0
VERTEX
  5
8e9
  8
Layer_0
  10
32.354644
  20
289.20646
  0
VERTEX
  5
8ea
  8
Layer_0
  10
33.824845
  20
288.95745
  0
VERTEX
  5
8eb
  8
Layer_0
  10
35.337464
  20
288.66899
  0
VERTEX
  5
8ec
  8
Layer_0
  10
36.887766
  20
288.34277
  0
VERTEX
  5
8ed
  8
Layer_0
  10
38.471011
  20
287.98046
  0
VERTEX
  5
8ee
  8
Layer_0
  10
40.082464
  20
287.58375
  0
VERTEX
  5
8ef
  8
Layer_0
  10
41.717386
  20
287.15432
  0
VERTEX
  5
8f0
  8
Layer_0
  10
43.37104
  20
286.69386
  0
VERTEX
  5
8f1
  8
Layer_0
  10
45.03869
  20
286.20403
  0
VERTEX
  5
8f2
  8
Layer_0
  10
46.715597
  20
285.68654
  0
VERTEX
  5
8f3
  8
Layer_0
  10
48.397024
  20
285.14305
  0
VERTEX
  5
8f4
  8
Layer_0
  10
51.75449
  20
283.98483
  0
VERTEX
  5
8f5
  8
Layer_0
  10
55.07319
  20
282.74283
  0
VERTEX
  5
8f6
  8
Layer_0
  10
56.706159
  20
282.09463
  0
VERTEX
  5
8f7
  8
Layer_0
  10
58.315224
  20
281.43052
  0
VERTEX
  5
8f8
  8
Layer_0
  10
59.895648
  20
280.7522
  0
VERTEX
  5
8f9
  8
Layer_0
  10
61.442694
  20
280.06135
  0
VERTEX
  5
8fa
  8
Layer_0
  10
62.951624
  20
279.35965
  0
VERTEX
  5
8fb
  8
Layer_0
  10
64.417701
  20
278.64878
  0
VERTEX
  5
8fc
  8
Layer_0
  10
65.836187
  20
277.93043
  0
VERTEX
  5
8fd
  8
Layer_0
  10
67.202346
  20
277.20627
  0
VERTEX
  5
8fe
  8
Layer_0
  10
68.51144
  20
276.47799
  0
VERTEX
  5
8ff
  8
Layer_0
  10
69.758731
  20
275.74727
  0
VERTEX
  5
900
  8
Layer_0
  10
70.939483
  20
275.0158
  0
VERTEX
  5
901
  8
Layer_0
  10
72.048958
  20
274.28526
  0
VERTEX
  5
902
  8
Layer_0
  10
74.01439
  20
272.91487
  0
VERTEX
  5
903
  8
Layer_0
  10
75.92117
  20
271.52141
  0
VERTEX
  5
904
  8
Layer_0
  10
77.762551
  20
270.11447
  0
VERTEX
  5
905
  8
Layer_0
  10
79.531788
  20
268.70362
  0
VERTEX
  5
906
  8
Layer_0
  10
81.222135
  20
267.29845
  0
VERTEX
  5
907
  8
Layer_0
  10
82.826849
  20
265.90854
  0
VERTEX
  5
908
  8
Layer_0
  10
83.594984
  20
265.22231
  0
VERTEX
  5
909
  8
Layer_0
  10
84.339182
  20
264.54348
  0
VERTEX
  5
90a
  8
Layer_0
  10
85.058598
  20
263.87326
  0
VERTEX
  5
90b
  8
Layer_0
  10
85.75239
  20
263.21284
  0
VERTEX
  5
90c
  8
Layer_0
  10
86.419714
  20
262.56342
  0
VERTEX
  5
90d
  8
Layer_0
  10
87.059727
  20
261.92621
  0
VERTEX
  5
90e
  8
Layer_0
  10
87.671587
  20
261.30239
  0
VERTEX
  5
90f
  8
Layer_0
  10
88.254449
  20
260.69316
  0
VERTEX
  5
910
  8
Layer_0
  10
88.807471
  20
260.09973
  0
VERTEX
  5
911
  8
Layer_0
  10
89.32981
  20
259.52329
  0
VERTEX
  5
912
  8
Layer_0
  10
89.820621
  20
258.96504
  0
VERTEX
  5
913
  8
Layer_0
  10
90.279063
  20
258.42618
  0
VERTEX
  5
914
  8
Layer_0
  10
90.704293
  20
257.9079
  0
VERTEX
  5
915
  8
Layer_0
  10
91.095466
  20
257.4114
  0
VERTEX
  5
916
  8
Layer_0
  10
91.451739
  20
256.93788
  0
VERTEX
  5
917
  8
Layer_0
  10
91.77227
  20
256.48854
  0
VERTEX
  5
918
  8
Layer_0
  10
92.056216
  20
256.06457
  0
VERTEX
  5
919
  8
Layer_0
  10
92.302733
  20
255.66718
  0
VERTEX
  5
91a
  8
Layer_0
  10
92.510977
  20
255.29756
  0
VERTEX
  5
91b
  8
Layer_0
  10
92.680107
  20
254.95691
  0
VERTEX
  5
91c
  8
Layer_0
  10
92.95717
  20
254.29998
  0
VERTEX
  5
91d
  8
Layer_0
  10
93.193195
  20
253.63664
  0
VERTEX
  5
91e
  8
Layer_0
  10
93.391377
  20
252.97361
  0
VERTEX
  5
91f
  8
Layer_0
  10
93.554913
  20
252.31762
  0
VERTEX
  5
920
  8
Layer_0
  10
93.686998
  20
251.67542
  0
VERTEX
  5
921
  8
Layer_0
  10
93.79083
  20
251.05373
  0
VERTEX
  5
922
  8
Layer_0
  10
93.869603
  20
250.45929
  0
VERTEX
  5
923
  8
Layer_0
  10
93.926516
  20
249.89883
  0
VERTEX
  5
924
  8
Layer_0
  10
93.964762
  20
249.37909
  0
VERTEX
  5
925
  8
Layer_0
  10
93.987539
  20
248.9068
  0
VERTEX
  5
926
  8
Layer_0
  10
93.998044
  20
248.48869
  0
VERTEX
  5
927
  8
Layer_0
  10
93.999471
  20
248.1315
  0
VERTEX
  5
928
  8
Layer_0
  10
93.995017
  20
247.84197
  0
VERTEX
  5
929
  8
Layer_0
  10
93.987879
  20
247.62682
  0
VERTEX
  5
92a
  8
Layer_0
  10
93.981252
  20
247.4928
  0
VERTEX
  5
92b
  8
Layer_0
  10
93.978333
  20
247.44662
  0
VERTEX
  5
92c
  8
Layer_0
  10
93.974175
  20
247.01488
  0
VERTEX
  5
92d
  8
Layer_0
  10
93.939855
  20
246.58214
  0
VERTEX
  5
92e
  8
Layer_0
  10
93.876829
  20
246.14933
  0
VERTEX
  5
92f
  8
Layer_0
  10
93.786554
  20
245.71734
  0
VERTEX
  5
930
  8
Layer_0
  10
93.530083
  20
244.85953
  0
VERTEX
  5
931
  8
Layer_0
  10
93.182099
  20
244.01604
  0
VERTEX
  5
932
  8
Layer_0
  10
92.754257
  20
243.19417
  0
VERTEX
  5
933
  8
Layer_0
  10
92.258211
  20
242.40125
  0
VERTEX
  5
934
  8
Layer_0
  10
91.705616
  20
241.6446
  0
VERTEX
  5
935
  8
Layer_0
  10
91.108129
  20
240.93152
  0
VERTEX
  5
936
  8
Layer_0
  10
90.477403
  20
240.26935
  0
VERTEX
  5
937
  8
Layer_0
  10
89.825093
  20
239.66539
  0
VERTEX
  5
938
  8
Layer_0
  10
89.162856
  20
239.12697
  0
VERTEX
  5
939
  8
Layer_0
  10
88.502346
  20
238.6614
  0
VERTEX
  5
93a
  8
Layer_0
  10
87.855219
  20
238.276
  0
VERTEX
  5
93b
  8
Layer_0
  10
87.233128
  20
237.97808
  0
VERTEX
  5
93c
  8
Layer_0
  10
86.935114
  20
237.86422
  0
VERTEX
  5
93d
  8
Layer_0
  10
86.64773
  20
237.77497
  0
VERTEX
  5
93e
  8
Layer_0
  10
86.372433
  20
237.71125
  0
VERTEX
  5
93f
  8
Layer_0
  10
86.11068
  20
237.67398
  0
VERTEX
  5
940
  8
Layer_0
  10
85.862808
  20
237.66249
  0
VERTEX
  5
941
  8
Layer_0
  10
85.62796
  20
237.67451
  0
VERTEX
  5
942
  8
Layer_0
  10
85.405797
  20
237.70852
  0
VERTEX
  5
943
  8
Layer_0
  10
85.195982
  20
237.76299
  0
VERTEX
  5
944
  8
Layer_0
  10
84.812041
  20
237.92729
  0
VERTEX
  5
945
  8
Layer_0
  10
84.473433
  20
238.15526
  0
VERTEX
  5
946
  8
Layer_0
  10
84.177454
  20
238.43477
  0
VERTEX
  5
947
  8
Layer_0
  10
83.9214
  20
238.75366
  0
VERTEX
  5
948
  8
Layer_0
  10
83.702566
  20
239.09981
  0
VERTEX
  5
949
  8
Layer_0
  10
83.518249
  20
239.46106
  0
VERTEX
  5
94a
  8
Layer_0
  10
83.365743
  20
239.82528
  0
VERTEX
  5
94b
  8
Layer_0
  10
83.242345
  20
240.18033
  0
VERTEX
  5
94c
  8
Layer_0
  10
83.145351
  20
240.51407
  0
VERTEX
  5
94d
  8
Layer_0
  10
83.072055
  20
240.81435
  0
VERTEX
  5
94e
  8
Layer_0
  10
83.019756
  20
241.06904
  0
VERTEX
  5
94f
  8
Layer_0
  10
82.985747
  20
241.26599
  0
VERTEX
  5
950
  8
Layer_0
  10
82.967324
  20
241.39306
  0
VERTEX
  5
951
  8
Layer_0
  10
82.961784
  20
241.43812
  0
VERTEX
  5
952
  8
Layer_0
  10
82.961784
  20
247.33797
  0
VERTEX
  5
953
  8
Layer_0
  10
82.945248
  20
247.64077
  0
VERTEX
  5
954
  8
Layer_0
  10
82.890545
  20
247.9211
  0
VERTEX
  5
955
  8
Layer_0
  10
82.790036
  20
248.17343
  0
VERTEX
  5
956
  8
Layer_0
  10
82.636082
  20
248.39225
  0
VERTEX
  5
957
  8
Layer_0
  10
82.421041
  20
248.57204
  0
VERTEX
  5
958
  8
Layer_0
  10
82.137275
  20
248.70729
  0
VERTEX
  5
959
  8
Layer_0
  10
81.967233
  20
248.75649
  0
VERTEX
  5
95a
  8
Layer_0
  10
81.777144
  20
248.79248
  0
VERTEX
  5
95b
  8
Layer_0
  10
81.566054
  20
248.81458
  0
VERTEX
  5
95c
  8
Layer_0
  10
81.333008
  20
248.82211
  0
VERTEX
  5
95d
  8
Layer_0
  10
81.101649
  20
248.80706
  0
VERTEX
  5
95e
  8
Layer_0
  10
80.895205
  20
248.76455
  0
VERTEX
  5
95f
  8
Layer_0
  10
80.712297
  20
248.69849
  0
VERTEX
  5
960
  8
Layer_0
  10
80.551547
  20
248.61281
  0
VERTEX
  5
961
  8
Layer_0
  10
80.29101
  20
248.39828
  0
VERTEX
  5
962
  8
Layer_0
  10
80.102567
  20
248.15236
  0
VERTEX
  5
963
  8
Layer_0
  10
79.975193
  20
247.90644
  0
VERTEX
  5
964
  8
Layer_0
  10
79.897862
  20
247.69191
  0
VERTEX
  5
965
  8
Layer_0
  10
79.859549
  20
247.54017
  0
VERTEX
  5
966
  8
Layer_0
  10
79.849228
  20
247.48261
  0
VERTEX
  5
967
  8
Layer_0
  10
79.849228
  20
191.95976
  0
VERTEX
  5
968
  8
Layer_0
  10
79.829917
  20
191.94091
  0
VERTEX
  5
969
  8
Layer_0
  10
79.774493
  20
191.88702
  0
VERTEX
  5
96a
  8
Layer_0
  10
79.686724
  20
191.80205
  0
VERTEX
  5
96b
  8
Layer_0
  10
79.570374
  20
191.69
  0
VERTEX
  5
96c
  8
Layer_0
  10
79.266994
  20
191.40051
  0
VERTEX
  5
96d
  8
Layer_0
  10
78.894479
  20
191.05036
  0
VERTEX
  5
96e
  8
Layer_0
  10
78.482954
  20
190.67138
  0
VERTEX
  5
96f
  8
Layer_0
  10
78.062545
  20
190.29536
  0
VERTEX
  5
970
  8
Layer_0
  10
77.663377
  20
189.95412
  0
VERTEX
  5
971
  8
Layer_0
  10
77.315575
  20
189.67948
  0
VERTEX
  5
972
  8
Layer_0
  10
77.038573
  20
189.42427
  0
VERTEX
  5
973
  8
Layer_0
  10
76.837073
  20
189.1309
  0
VERTEX
  5
974
  8
Layer_0
  10
76.718709
  20
188.81546
  0
VERTEX
  5
975
  8
Layer_0
  10
76.691117
  20
188.4941
  0
VERTEX
  5
976
  8
Layer_0
  10
76.713747
  20
188.33622
  0
VERTEX
  5
977
  8
Layer_0
  10
76.761934
  20
188.18291
  0
VERTEX
  5
978
  8
Layer_0
  10
76.836631
  20
188.03617
  0
VERTEX
  5
979
  8
Layer_0
  10
76.938794
  20
187.89802
  0
VERTEX
  5
97a
  8
Layer_0
  10
77.069377
  20
187.77047
  0
VERTEX
  5
97b
  8
Layer_0
  10
77.229334
  20
187.65555
  0
VERTEX
  5
97c
  8
Layer_0
  10
77.41962
  20
187.55526
  0
VERTEX
  5
97d
  8
Layer_0
  10
77.64119
  20
187.47162
  0
VERTEX
  5
97e
  8
Layer_0
  10
77.890567
  20
187.41745
  0
VERTEX
  5
97f
  8
Layer_0
  10
78.16184
  20
187.40304
  0
VERTEX
  5
980
  8
Layer_0
  10
78.452305
  20
187.4266
  0
VERTEX
  5
981
  8
Layer_0
  10
78.759258
  20
187.48632
  0
VERTEX
  5
982
  8
Layer_0
  10
79.079996
  20
187.58039
  0
VERTEX
  5
983
  8
Layer_0
  10
79.411817
  20
187.70701
  0
VERTEX
  5
984
  8
Layer_0
  10
79.752016
  20
187.86439
  0
VERTEX
  5
985
  8
Layer_0
  10
80.097891
  20
188.05072
  0
VERTEX
  5
986
  8
Layer_0
  10
80.795855
  20
188.50301
  0
VERTEX
  5
987
  8
Layer_0
  10
81.484083
  20
189.04946
  0
VERTEX
  5
988
  8
Layer_0
  10
82.140949
  20
189.67566
  0
VERTEX
  5
989
  8
Layer_0
  10
82.744827
  20
190.36718
  0
VERTEX
  5
98a
  8
Layer_0
  10
83.03781
  20
190.70608
  0
VERTEX
  5
98b
  8
Layer_0
  10
83.343781
  20
191.00505
  0
VERTEX
  5
98c
  8
Layer_0
  10
83.658339
  20
191.26659
  0
VERTEX
  5
98d
  8
Layer_0
  10
83.977085
  20
191.49319
  0
VERTEX
  5
98e
  8
Layer_0
  10
84.295617
  20
191.68734
  0
VERTEX
  5
98f
  8
Layer_0
  10
84.609537
  20
191.85153
  0
VERTEX
  5
990
  8
Layer_0
  10
84.914443
  20
191.98826
  0
VERTEX
  5
991
  8
Layer_0
  10
85.205935
  20
192.10002
  0
VERTEX
  5
992
  8
Layer_0
  10
85.479614
  20
192.18929
  0
VERTEX
  5
993
  8
Layer_0
  10
85.731078
  20
192.25858
  0
VERTEX
  5
994
  8
Layer_0
  10
85.955929
  20
192.31037
  0
VERTEX
  5
995
  8
Layer_0
  10
86.149764
  20
192.34716
  0
VERTEX
  5
996
  8
Layer_0
  10
86.308185
  20
192.37144
  0
VERTEX
  5
997
  8
Layer_0
  10
86.42679
  20
192.38569
  0
VERTEX
  5
998
  8
Layer_0
  10
86.50118
  20
192.39241
  0
VERTEX
  5
999
  8
Layer_0
  10
86.526955
  20
192.3941
  0
VERTEX
  5
99a
  8
Layer_0
  10
86.754329
  20
192.38486
  0
VERTEX
  5
99b
  8
Layer_0
  10
86.998884
  20
192.35409
  0
VERTEX
  5
99c
  8
Layer_0
  10
87.255743
  20
192.29723
  0
VERTEX
  5
99d
  8
Layer_0
  10
87.520026
  20
192.20973
  0
VERTEX
  5
99e
  8
Layer_0
  10
87.786856
  20
192.08703
  0
VERTEX
  5
99f
  8
Layer_0
  10
88.051354
  20
191.92456
  0
VERTEX
  5
9a0
  8
Layer_0
  10
88.308642
  20
191.71776
  0
VERTEX
  5
9a1
  8
Layer_0
  10
88.553843
  20
191.46209
  0
VERTEX
  5
9a2
  8
Layer_0
  10
88.782076
  20
191.15296
  0
VERTEX
  5
9a3
  8
Layer_0
  10
88.988465
  20
190.78584
  0
VERTEX
  5
9a4
  8
Layer_0
  10
89.168132
  20
190.35615
  0
VERTEX
  5
9a5
  8
Layer_0
  10
89.316197
  20
189.85934
  0
VERTEX
  5
9a6
  8
Layer_0
  10
89.427782
  20
189.29084
  0
VERTEX
  5
9a7
  8
Layer_0
  10
89.49801
  20
188.6461
  0
VERTEX
  5
9a8
  8
Layer_0
  10
89.522003
  20
187.92057
  0
VERTEX
  5
9a9
  8
Layer_0
  10
89.494881
  20
187.10967
  0
VERTEX
  5
9aa
  8
Layer_0
  10
89.3919
  20
186.00974
  0
VERTEX
  5
9ab
  8
Layer_0
  10
89.229057
  20
184.97561
  0
VERTEX
  5
9ac
  8
Layer_0
  10
89.009604
  20
184.00521
  0
VERTEX
  5
9ad
  8
Layer_0
  10
88.736789
  20
183.09644
  0
VERTEX
  5
9ae
  8
Layer_0
  10
88.413862
  20
182.24724
  0
VERTEX
  5
9af
  8
Layer_0
  10
88.044074
  20
181.45551
  0
VERTEX
  5
9b0
  8
Layer_0
  10
87.630675
  20
180.71918
  0
VERTEX
  5
9b1
  8
Layer_0
  10
87.176914
  20
180.03616
  0
VERTEX
  5
9b2
  8
Layer_0
  10
86.686042
  20
179.40438
  0
VERTEX
  5
9b3
  8
Layer_0
  10
86.161308
  20
178.82174
  0
VERTEX
  5
9b4
  8
Layer_0
  10
85.605963
  20
178.28617
  0
VERTEX
  5
9b5
  8
Layer_0
  10
85.023257
  20
177.79558
  0
VERTEX
  5
9b6
  8
Layer_0
  10
84.416439
  20
177.34789
  0
VERTEX
  5
9b7
  8
Layer_0
  10
83.788759
  20
176.94103
  0
VERTEX
  5
9b8
  8
Layer_0
  10
83.143468
  20
176.57291
  0
VERTEX
  5
9b9
  8
Layer_0
  10
82.483816
  20
176.24144
  0
VERTEX
  5
9ba
  8
Layer_0
  10
81.813052
  20
175.94454
  0
VERTEX
  5
9bb
  8
Layer_0
  10
81.134427
  20
175.68014
  0
VERTEX
  5
9bc
  8
Layer_0
  10
80.451191
  20
175.44615
  0
VERTEX
  5
9bd
  8
Layer_0
  10
79.766592
  20
175.24048
  0
VERTEX
  5
9be
  8
Layer_0
  10
78.406312
  20
174.90581
  0
VERTEX
  5
9bf
  8
Layer_0
  10
77.079585
  20
174.65947
  0
VERTEX
  5
9c0
  8
Layer_0
  10
76.43693
  20
174.56422
  0
VERTEX
  5
9c1
  8
Layer_0
  10
75.812413
  20
174.4848
  0
VERTEX
  5
9c2
  8
Layer_0
  10
75.209284
  20
174.41914
  0
VERTEX
  5
9c3
  8
Layer_0
  10
74.630794
  20
174.36515
  0
VERTEX
  5
9c4
  8
Layer_0
  10
74.080193
  20
174.32075
  0
VERTEX
  5
9c5
  8
Layer_0
  10
73.56073
  20
174.28385
  0
VERTEX
  5
9c6
  8
Layer_0
  10
73.075656
  20
174.25239
  0
VERTEX
  5
9c7
  8
Layer_0
  10
72.62822
  20
174.22426
  0
VERTEX
  5
9c8
  8
Layer_0
  10
72.157584
  20
174.20415
  0
VERTEX
  5
9c9
  8
Layer_0
  10
71.602436
  20
174.19911
  0
VERTEX
  5
9ca
  8
Layer_0
  10
70.965215
  20
174.21064
  0
VERTEX
  5
9cb
  8
Layer_0
  10
70.24836
  20
174.24024
  0
VERTEX
  5
9cc
  8
Layer_0
  10
69.454309
  20
174.2894
  0
VERTEX
  5
9cd
  8
Layer_0
  10
68.585502
  20
174.35962
  0
VERTEX
  5
9ce
  8
Layer_0
  10
67.644377
  20
174.4524
  0
VERTEX
  5
9cf
  8
Layer_0
  10
66.633372
  20
174.56924
  0
VERTEX
  5
9d0
  8
Layer_0
  10
65.554928
  20
174.71164
  0
VERTEX
  5
9d1
  8
Layer_0
  10
64.411482
  20
174.88109
  0
VERTEX
  5
9d2
  8
Layer_0
  10
63.205474
  20
175.07909
  0
VERTEX
  5
9d3
  8
Layer_0
  10
61.939342
  20
175.30714
  0
VERTEX
  5
9d4
  8
Layer_0
  10
60.615525
  20
175.56673
  0
VERTEX
  5
9d5
  8
Layer_0
  10
59.236462
  20
175.85938
  0
VERTEX
  5
9d6
  8
Layer_0
  10
57.804591
  20
176.18656
  0
VERTEX
  5
9d7
  8
Layer_0
  10
56.322352
  20
176.54978
  0
VERTEX
  5
9d8
  8
Layer_0
  10
54.792184
  20
176.95054
  0
VERTEX
  5
9d9
  8
Layer_0
  10
53.216524
  20
177.39034
  0
VERTEX
  5
9da
  8
Layer_0
  10
51.597813
  20
177.87067
  0
VERTEX
  5
9db
  8
Layer_0
  10
49.938488
  20
178.39303
  0
VERTEX
  5
9dc
  8
Layer_0
  10
48.240989
  20
178.95893
  0
VERTEX
  5
9dd
  8
Layer_0
  10
46.507754
  20
179.56985
  0
VERTEX
  5
9de
  8
Layer_0
  10
44.741222
  20
180.22729
  0
VERTEX
  5
9df
  8
Layer_0
  10
42.943833
  20
180.93276
  0
VERTEX
  5
9e0
  8
Layer_0
  10
41.118024
  20
181.68774
  0
VERTEX
  5
9e1
  8
Layer_0
  10
39.266235
  20
182.49375
  0
VERTEX
  5
9e2
  8
Layer_0
  10
37.390905
  20
183.35227
  0
VERTEX
  5
9e3
  8
Layer_0
  10
35.494472
  20
184.2648
  0
VERTEX
  5
9e4
  8
Layer_0
  10
33.579375
  20
185.23285
  0
VERTEX
  5
9e5
  8
Layer_0
  10
31.648053
  20
186.25791
  0
VERTEX
  5
9e6
  8
Layer_0
  10
29.702944
  20
187.34147
  0
VERTEX
  5
9e7
  8
Layer_0
  10
27.746489
  20
188.48504
  0
VERTEX
  5
9e8
  8
Layer_0
  10
26.779304
  20
189.06888
  0
VERTEX
  5
9e9
  8
Layer_0
  10
25.838811
  20
189.64635
  0
VERTEX
  5
9ea
  8
Layer_0
  10
24.924634
  20
190.2175
  0
VERTEX
  5
9eb
  8
Layer_0
  10
24.036398
  20
190.78238
  0
VERTEX
  5
9ec
  8
Layer_0
  10
23.173727
  20
191.34105
  0
VERTEX
  5
9ed
  8
Layer_0
  10
22.336246
  20
191.89354
  0
VERTEX
  5
9ee
  8
Layer_0
  10
21.523581
  20
192.43991
  0
VERTEX
  5
9ef
  8
Layer_0
  10
20.735355
  20
192.98021
  0
VERTEX
  5
9f0
  8
Layer_0
  10
19.230721
  20
194.04278
  0
VERTEX
  5
9f1
  8
Layer_0
  10
17.819342
  20
195.08164
  0
VERTEX
  5
9f2
  8
Layer_0
  10
16.498216
  20
196.09719
  0
VERTEX
  5
9f3
  8
Layer_0
  10
15.264341
  20
197.08982
  0
VERTEX
  5
9f4
  8
Layer_0
  10
14.114715
  20
198.05991
  0
VERTEX
  5
9f5
  8
Layer_0
  10
13.046335
  20
199.00786
  0
VERTEX
  5
9f6
  8
Layer_0
  10
12.056199
  20
199.93405
  0
VERTEX
  5
9f7
  8
Layer_0
  10
11.141304
  20
200.83889
  0
VERTEX
  5
9f8
  8
Layer_0
  10
10.29865
  20
201.72276
  0
VERTEX
  5
9f9
  8
Layer_0
  10
9.5252321
  20
202.58605
  0
VERTEX
  5
9fa
  8
Layer_0
  10
8.8180497
  20
203.42915
  0
VERTEX
  5
9fb
  8
Layer_0
  10
8.1741002
  20
204.25245
  0
VERTEX
  5
9fc
  8
Layer_0
  10
7.5903812
  20
205.05635
  0
VERTEX
  5
9fd
  8
Layer_0
  10
7.0638905
  20
205.84124
  0
VERTEX
  5
9fe
  8
Layer_0
  10
6.5916258
  20
206.6075
  0
VERTEX
  5
9ff
  8
Layer_0
  10
6.170585
  20
207.35553
  0
VERTEX
  5
a00
  8
Layer_0
  10
5.7977657
  20
208.08572
  0
VERTEX
  5
a01
  8
Layer_0
  10
5.4701657
  20
208.79846
  0
VERTEX
  5
a02
  8
Layer_0
  10
5.1847828
  20
209.49414
  0
VERTEX
  5
a03
  8
Layer_0
  10
4.9386148
  20
210.17315
  0
VERTEX
  5
a04
  8
Layer_0
  10
4.7286592
  20
210.83588
  0
VERTEX
  5
a05
  8
Layer_0
  10
4.5519141
  20
211.48273
  0
VERTEX
  5
a06
  8
Layer_0
  10
4.4053769
  20
212.11408
  0
VERTEX
  5
a07
  8
Layer_0
  10
4.2860456
  20
212.73033
  0
VERTEX
  5
a08
  8
Layer_0
  10
4.1169915
  20
213.91908
  0
VERTEX
  5
a09
  8
Layer_0
  10
4.0207337
  20
215.0521
  0
VERTEX
  5
a0a
  8
Layer_0
  10
4.0005188
  20
215.60171
  0
VERTEX
  5
a0b
  8
Layer_0
  10
4.0070458
  20
216.14389
  0
VERTEX
  5
a0c
  8
Layer_0
  10
4.0392743
  20
216.67799
  0
VERTEX
  5
a0d
  8
Layer_0
  10
4.0961637
  20
217.20338
  0
VERTEX
  5
a0e
  8
Layer_0
  10
4.2797633
  20
218.22543
  0
VERTEX
  5
a0f
  8
Layer_0
  10
4.5495202
  20
219.20489
  0
VERTEX
  5
a10
  8
Layer_0
  10
4.8971103
  20
220.13661
  0
VERTEX
  5
a11
  8
Layer_0
  10
5.3142095
  20
221.01545
  0
VERTEX
  5
a12
  8
Layer_0
  10
5.7924935
  20
221.83627
  0
VERTEX
  5
a13
  8
Layer_0
  10
6.323638
  20
222.59392
  0
VERTEX
  5
a14
  8
Layer_0
  10
6.899319
  20
223.28325
  0
VERTEX
  5
a15
  8
Layer_0
  10
7.5112122
  20
223.89912
  0
VERTEX
  5
a16
  8
Layer_0
  10
8.1509933
  20
224.43638
  0
VERTEX
  5
a17
  8
Layer_0
  10
8.8103383
  20
224.88989
  0
VERTEX
  5
a18
  8
Layer_0
  10
9.4809228
  20
225.2545
  0
VERTEX
  5
a19
  8
Layer_0
  10
10.154423
  20
225.52507
  0
VERTEX
  5
a1a
  8
Layer_0
  10
10.489665
  20
225.62348
  0
VERTEX
  5
a1b
  8
Layer_0
  10
10.822514
  20
225.69645
  0
VERTEX
  5
a1c
  8
Layer_0
  10
11.15193
  20
225.74333
  0
VERTEX
  5
a1d
  8
Layer_0
  10
11.476872
  20
225.76349
  0
VERTEX
  5
a1e
  8
Layer_0
  10
12.081327
  20
225.74382
  0
VERTEX
  5
a1f
  8
Layer_0
  10
12.608743
  20
225.664
  0
VERTEX
  5
a20
  8
Layer_0
  10
13.064371
  20
225.5325
  0
VERTEX
  5
a21
  8
Layer_0
  10
13.453458
  20
225.3578
  0
VERTEX
  5
a22
  8
Layer_0
  10
13.781254
  20
225.14837
  0
VERTEX
  5
a23
  8
Layer_0
  10
14.053009
  20
224.91269
  0
VERTEX
  5
a24
  8
Layer_0
  10
14.27397
  20
224.65924
  0
VERTEX
  5
a25
  8
Layer_0
  10
14.449386
  20
224.39648
  0
VERTEX
  5
a26
  8
Layer_0
  10
14.584508
  20
224.13289
  0
VERTEX
  5
a27
  8
Layer_0
  10
14.684583
  20
223.87696
  0
VERTEX
  5
a28
  8
Layer_0
  10
14.754861
  20
223.63714
  0
VERTEX
  5
a29
  8
Layer_0
  10
14.800591
  20
223.42193
  0
VERTEX
  5
a2a
  8
Layer_0
  10
14.827022
  20
223.23979
  0
VERTEX
  5
a2b
  8
Layer_0
  10
14.839402
  20
223.09919
  0
VERTEX
  5
a2c
  8
Layer_0
  10
14.842981
  20
223.00862
  0
VERTEX
  5
a2d
  8
Layer_0
  10
14.843007
  20
222.97655
  0
VERTEX
  5
a2e
  8
Layer_0
  10
14.843007
  20
217.76461
  0
VERTEX
  5
a2f
  8
Layer_0
  10
14.862102
  20
217.29703
  0
VERTEX
  5
a30
  8
Layer_0
  10
14.916066
  20
216.89537
  0
VERTEX
  5
a31
  8
Layer_0
  10
14.999918
  20
216.5547
  0
VERTEX
  5
a32
  8
Layer_0
  10
15.108676
  20
216.27008
  0
VERTEX
  5
a33
  8
Layer_0
  10
15.23736
  20
216.03657
  0
VERTEX
  5
a34
  8
Layer_0
  10
15.380987
  20
215.84925
  0
VERTEX
  5
a35
  8
Layer_0
  10
15.534577
  20
215.70319
  0
VERTEX
  5
a36
  8
Layer_0
  10
15.693149
  20
215.59344
  0
VERTEX
  5
a37
  8
Layer_0
  10
16.00531
  20
215.46317
  0
VERTEX
  5
a38
  8
Layer_0
  10
16.277621
  20
215.41898
  0
VERTEX
  5
a39
  8
Layer_0
  10
16.386379
  20
215.41683
  0
VERTEX
  5
a3a
  8
Layer_0
  10
16.470231
  20
215.42141
  0
VERTEX
  5
a3b
  8
Layer_0
  10
16.524195
  20
215.42777
  0
VERTEX
  5
a3c
  8
Layer_0
  10
16.54329
  20
215.43098
  0
VERTEX
  5
a3d
  8
Layer_0
  10
16.787608
  20
215.44836
  0
VERTEX
  5
a3e
  8
Layer_0
  10
16.999843
  20
215.51586
  0
VERTEX
  5
a3f
  8
Layer_0
  10
17.182247
  20
215.62643
  0
VERTEX
  5
a40
  8
Layer_0
  10
17.337071
  20
215.77299
  0
VERTEX
  5
a41
  8
Layer_0
  10
17.466567
  20
215.94847
  0
VERTEX
  5
a42
  8
Layer_0
  10
17.572988
  20
216.14579
  0
VERTEX
  5
a43
  8
Layer_0
  10
17.658585
  20
216.35789
  0
VERTEX
  5
a44
  8
Layer_0
  10
17.725612
  20
216.57769
  0
VERTEX
  5
a45
  8
Layer_0
  10
17.812958
  20
217.0121
  0
VERTEX
  5
a46
  8
Layer_0
  10
17.853042
  20
217.39244
  0
VERTEX
  5
a47
  8
Layer_0
  10
17.860991
  20
217.54466
  0
VERTEX
  5
a48
  8
Layer_0
  10
17.863881
  20
217.66214
  0
VERTEX
  5
a49
  8
Layer_0
  10
17.863963
  20
217.73781
  0
VERTEX
  5
a4a
  8
Layer_0
  10
17.86349
  20
217.76461
  0
VERTEX
  5
a4b
  8
Layer_0
  10
17.863491
  20
272.13049
  0
VERTEX
  5
a4c
  8
Layer_0
  10
17.889472
  20
272.15109
  0
VERTEX
  5
a4d
  8
Layer_0
  10
17.963528
  20
272.20993
  0
VERTEX
  5
a4e
  8
Layer_0
  10
18.079819
  20
272.3026
  0
VERTEX
  5
a4f
  8
Layer_0
  10
18.232508
  20
272.42464
  0
VERTEX
  5
a50
  8
Layer_0
  10
18.62373
  20
272.73912
  0
VERTEX
  5
a51
  8
Layer_0
  10
19.090495
  20
273.11791
  0
VERTEX
  5
a52
  8
Layer_0
  10
19.586103
  20
273.52554
  0
VERTEX
  5
a53
  8
Layer_0
  10
20.063855
  20
273.92654
  0
VERTEX
  5
a54
  8
Layer_0
  10
20.28144
  20
274.11347
  0
VERTEX
  5
a55
  8
Layer_0
  10
20.477049
  20
274.28544
  0
VERTEX
  5
a56
  8
Layer_0
  10
20.644844
  20
274.43802
  0
VERTEX
  5
a57
  8
Layer_0
  10
20.778988
  20
274.56677
  0
SEQEND
  0
ENDSEC
  0
EOF
